<?xml version="1.0" encoding="utf-8" standalone="no"?>
<!DOCTYPE svg PUBLIC "-//W3C//DTD SVG 1.1//EN"
  "http://www.w3.org/Graphics/SVG/1.1/DTD/svg11.dtd">
<svg xmlns:xlink="http://www.w3.org/1999/xlink" width="432pt" height="288pt" viewBox="0 0 432 288" xmlns="http://www.w3.org/2000/svg" version="1.1">
 <metadata>
  <rdf:RDF xmlns:dc="http://purl.org/dc/elements/1.1/" xmlns:cc="http://creativecommons.org/ns#" xmlns:rdf="http://www.w3.org/1999/02/22-rdf-syntax-ns#">
   <cc:Work>
    <dc:type rdf:resource="http://purl.org/dc/dcmitype/StillImage"/>
    <dc:date>2022-04-26T19:54:44.303778</dc:date>
    <dc:format>image/svg+xml</dc:format>
    <dc:creator>
     <cc:Agent>
      <dc:title>Matplotlib v3.5.0, https://matplotlib.org/</dc:title>
     </cc:Agent>
    </dc:creator>
   </cc:Work>
  </rdf:RDF>
 </metadata>
 <defs>
  <style type="text/css">*{stroke-linejoin: round; stroke-linecap: butt}</style>
 </defs>
 <g id="figure_1">
  <g id="patch_1">
   <path d="M 0 288 
L 432 288 
L 432 0 
L 0 0 
L 0 288 
z
" style="fill: none"/>
  </g>
  <g id="axes_1">
   <g id="patch_2">
    <path d="M 54 252 
L 388.8 252 
L 388.8 34.56 
L 54 34.56 
z
" style="fill: #ffffff"/>
   </g>
   <g id="matplotlib.axis_1">
    <g id="xtick_1">
     <g id="line2d_1">
      <defs>
       <path id="m0d97622824" d="M 0 0 
L 0 3.5 
" style="stroke: #000000; stroke-width: 0.8"/>
      </defs>
      <g>
       <use xlink:href="#m0d97622824" x="69.218182" y="252" style="stroke: #000000; stroke-width: 0.8"/>
      </g>
     </g>
     <g id="text_1">
      <!-- 0 -->
      <g transform="translate(66.036932 266.598437)scale(0.1 -0.1)">
       <defs>
        <path id="DejaVuSans-30" d="M 2034 4250 
Q 1547 4250 1301 3770 
Q 1056 3291 1056 2328 
Q 1056 1369 1301 889 
Q 1547 409 2034 409 
Q 2525 409 2770 889 
Q 3016 1369 3016 2328 
Q 3016 3291 2770 3770 
Q 2525 4250 2034 4250 
z
M 2034 4750 
Q 2819 4750 3233 4129 
Q 3647 3509 3647 2328 
Q 3647 1150 3233 529 
Q 2819 -91 2034 -91 
Q 1250 -91 836 529 
Q 422 1150 422 2328 
Q 422 3509 836 4129 
Q 1250 4750 2034 4750 
z
" transform="scale(0.015625)"/>
       </defs>
       <use xlink:href="#DejaVuSans-30"/>
      </g>
     </g>
    </g>
    <g id="xtick_2">
     <g id="line2d_2">
      <g>
       <use xlink:href="#m0d97622824" x="130.151843" y="252" style="stroke: #000000; stroke-width: 0.8"/>
      </g>
     </g>
     <g id="text_2">
      <!-- 200 -->
      <g transform="translate(120.608093 266.598437)scale(0.1 -0.1)">
       <defs>
        <path id="DejaVuSans-32" d="M 1228 531 
L 3431 531 
L 3431 0 
L 469 0 
L 469 531 
Q 828 903 1448 1529 
Q 2069 2156 2228 2338 
Q 2531 2678 2651 2914 
Q 2772 3150 2772 3378 
Q 2772 3750 2511 3984 
Q 2250 4219 1831 4219 
Q 1534 4219 1204 4116 
Q 875 4013 500 3803 
L 500 4441 
Q 881 4594 1212 4672 
Q 1544 4750 1819 4750 
Q 2544 4750 2975 4387 
Q 3406 4025 3406 3419 
Q 3406 3131 3298 2873 
Q 3191 2616 2906 2266 
Q 2828 2175 2409 1742 
Q 1991 1309 1228 531 
z
" transform="scale(0.015625)"/>
       </defs>
       <use xlink:href="#DejaVuSans-32"/>
       <use xlink:href="#DejaVuSans-30" x="63.623047"/>
       <use xlink:href="#DejaVuSans-30" x="127.246094"/>
      </g>
     </g>
    </g>
    <g id="xtick_3">
     <g id="line2d_3">
      <g>
       <use xlink:href="#m0d97622824" x="191.085504" y="252" style="stroke: #000000; stroke-width: 0.8"/>
      </g>
     </g>
     <g id="text_3">
      <!-- 400 -->
      <g transform="translate(181.541754 266.598437)scale(0.1 -0.1)">
       <defs>
        <path id="DejaVuSans-34" d="M 2419 4116 
L 825 1625 
L 2419 1625 
L 2419 4116 
z
M 2253 4666 
L 3047 4666 
L 3047 1625 
L 3713 1625 
L 3713 1100 
L 3047 1100 
L 3047 0 
L 2419 0 
L 2419 1100 
L 313 1100 
L 313 1709 
L 2253 4666 
z
" transform="scale(0.015625)"/>
       </defs>
       <use xlink:href="#DejaVuSans-34"/>
       <use xlink:href="#DejaVuSans-30" x="63.623047"/>
       <use xlink:href="#DejaVuSans-30" x="127.246094"/>
      </g>
     </g>
    </g>
    <g id="xtick_4">
     <g id="line2d_4">
      <g>
       <use xlink:href="#m0d97622824" x="252.019165" y="252" style="stroke: #000000; stroke-width: 0.8"/>
      </g>
     </g>
     <g id="text_4">
      <!-- 600 -->
      <g transform="translate(242.475415 266.598437)scale(0.1 -0.1)">
       <defs>
        <path id="DejaVuSans-36" d="M 2113 2584 
Q 1688 2584 1439 2293 
Q 1191 2003 1191 1497 
Q 1191 994 1439 701 
Q 1688 409 2113 409 
Q 2538 409 2786 701 
Q 3034 994 3034 1497 
Q 3034 2003 2786 2293 
Q 2538 2584 2113 2584 
z
M 3366 4563 
L 3366 3988 
Q 3128 4100 2886 4159 
Q 2644 4219 2406 4219 
Q 1781 4219 1451 3797 
Q 1122 3375 1075 2522 
Q 1259 2794 1537 2939 
Q 1816 3084 2150 3084 
Q 2853 3084 3261 2657 
Q 3669 2231 3669 1497 
Q 3669 778 3244 343 
Q 2819 -91 2113 -91 
Q 1303 -91 875 529 
Q 447 1150 447 2328 
Q 447 3434 972 4092 
Q 1497 4750 2381 4750 
Q 2619 4750 2861 4703 
Q 3103 4656 3366 4563 
z
" transform="scale(0.015625)"/>
       </defs>
       <use xlink:href="#DejaVuSans-36"/>
       <use xlink:href="#DejaVuSans-30" x="63.623047"/>
       <use xlink:href="#DejaVuSans-30" x="127.246094"/>
      </g>
     </g>
    </g>
    <g id="xtick_5">
     <g id="line2d_5">
      <g>
       <use xlink:href="#m0d97622824" x="312.952826" y="252" style="stroke: #000000; stroke-width: 0.8"/>
      </g>
     </g>
     <g id="text_5">
      <!-- 800 -->
      <g transform="translate(303.409076 266.598437)scale(0.1 -0.1)">
       <defs>
        <path id="DejaVuSans-38" d="M 2034 2216 
Q 1584 2216 1326 1975 
Q 1069 1734 1069 1313 
Q 1069 891 1326 650 
Q 1584 409 2034 409 
Q 2484 409 2743 651 
Q 3003 894 3003 1313 
Q 3003 1734 2745 1975 
Q 2488 2216 2034 2216 
z
M 1403 2484 
Q 997 2584 770 2862 
Q 544 3141 544 3541 
Q 544 4100 942 4425 
Q 1341 4750 2034 4750 
Q 2731 4750 3128 4425 
Q 3525 4100 3525 3541 
Q 3525 3141 3298 2862 
Q 3072 2584 2669 2484 
Q 3125 2378 3379 2068 
Q 3634 1759 3634 1313 
Q 3634 634 3220 271 
Q 2806 -91 2034 -91 
Q 1263 -91 848 271 
Q 434 634 434 1313 
Q 434 1759 690 2068 
Q 947 2378 1403 2484 
z
M 1172 3481 
Q 1172 3119 1398 2916 
Q 1625 2713 2034 2713 
Q 2441 2713 2670 2916 
Q 2900 3119 2900 3481 
Q 2900 3844 2670 4047 
Q 2441 4250 2034 4250 
Q 1625 4250 1398 4047 
Q 1172 3844 1172 3481 
z
" transform="scale(0.015625)"/>
       </defs>
       <use xlink:href="#DejaVuSans-38"/>
       <use xlink:href="#DejaVuSans-30" x="63.623047"/>
       <use xlink:href="#DejaVuSans-30" x="127.246094"/>
      </g>
     </g>
    </g>
    <g id="xtick_6">
     <g id="line2d_6">
      <g>
       <use xlink:href="#m0d97622824" x="373.886486" y="252" style="stroke: #000000; stroke-width: 0.8"/>
      </g>
     </g>
     <g id="text_6">
      <!-- 1000 -->
      <g transform="translate(361.161486 266.598437)scale(0.1 -0.1)">
       <defs>
        <path id="DejaVuSans-31" d="M 794 531 
L 1825 531 
L 1825 4091 
L 703 3866 
L 703 4441 
L 1819 4666 
L 2450 4666 
L 2450 531 
L 3481 531 
L 3481 0 
L 794 0 
L 794 531 
z
" transform="scale(0.015625)"/>
       </defs>
       <use xlink:href="#DejaVuSans-31"/>
       <use xlink:href="#DejaVuSans-30" x="63.623047"/>
       <use xlink:href="#DejaVuSans-30" x="127.246094"/>
       <use xlink:href="#DejaVuSans-30" x="190.869141"/>
      </g>
     </g>
    </g>
   </g>
   <g id="matplotlib.axis_2">
    <g id="ytick_1">
     <g id="line2d_7">
      <defs>
       <path id="mff021c9e22" d="M 0 0 
L -3.5 0 
" style="stroke: #000000; stroke-width: 0.8"/>
      </defs>
      <g>
       <use xlink:href="#mff021c9e22" x="54" y="244.749913" style="stroke: #000000; stroke-width: 0.8"/>
      </g>
     </g>
     <g id="text_7">
      <!-- 0.0 -->
      <g transform="translate(31.096875 248.549132)scale(0.1 -0.1)">
       <defs>
        <path id="DejaVuSans-2e" d="M 684 794 
L 1344 794 
L 1344 0 
L 684 0 
L 684 794 
z
" transform="scale(0.015625)"/>
       </defs>
       <use xlink:href="#DejaVuSans-30"/>
       <use xlink:href="#DejaVuSans-2e" x="63.623047"/>
       <use xlink:href="#DejaVuSans-30" x="95.410156"/>
      </g>
     </g>
    </g>
    <g id="ytick_2">
     <g id="line2d_8">
      <g>
       <use xlink:href="#mff021c9e22" x="54" y="218.718883" style="stroke: #000000; stroke-width: 0.8"/>
      </g>
     </g>
     <g id="text_8">
      <!-- 0.2 -->
      <g transform="translate(31.096875 222.518102)scale(0.1 -0.1)">
       <use xlink:href="#DejaVuSans-30"/>
       <use xlink:href="#DejaVuSans-2e" x="63.623047"/>
       <use xlink:href="#DejaVuSans-32" x="95.410156"/>
      </g>
     </g>
    </g>
    <g id="ytick_3">
     <g id="line2d_9">
      <g>
       <use xlink:href="#mff021c9e22" x="54" y="192.687853" style="stroke: #000000; stroke-width: 0.8"/>
      </g>
     </g>
     <g id="text_9">
      <!-- 0.4 -->
      <g transform="translate(31.096875 196.487072)scale(0.1 -0.1)">
       <use xlink:href="#DejaVuSans-30"/>
       <use xlink:href="#DejaVuSans-2e" x="63.623047"/>
       <use xlink:href="#DejaVuSans-34" x="95.410156"/>
      </g>
     </g>
    </g>
    <g id="ytick_4">
     <g id="line2d_10">
      <g>
       <use xlink:href="#mff021c9e22" x="54" y="166.656823" style="stroke: #000000; stroke-width: 0.8"/>
      </g>
     </g>
     <g id="text_10">
      <!-- 0.6 -->
      <g transform="translate(31.096875 170.456041)scale(0.1 -0.1)">
       <use xlink:href="#DejaVuSans-30"/>
       <use xlink:href="#DejaVuSans-2e" x="63.623047"/>
       <use xlink:href="#DejaVuSans-36" x="95.410156"/>
      </g>
     </g>
    </g>
    <g id="ytick_5">
     <g id="line2d_11">
      <g>
       <use xlink:href="#mff021c9e22" x="54" y="140.625792" style="stroke: #000000; stroke-width: 0.8"/>
      </g>
     </g>
     <g id="text_11">
      <!-- 0.8 -->
      <g transform="translate(31.096875 144.425011)scale(0.1 -0.1)">
       <use xlink:href="#DejaVuSans-30"/>
       <use xlink:href="#DejaVuSans-2e" x="63.623047"/>
       <use xlink:href="#DejaVuSans-38" x="95.410156"/>
      </g>
     </g>
    </g>
    <g id="ytick_6">
     <g id="line2d_12">
      <g>
       <use xlink:href="#mff021c9e22" x="54" y="114.594762" style="stroke: #000000; stroke-width: 0.8"/>
      </g>
     </g>
     <g id="text_12">
      <!-- 1.0 -->
      <g transform="translate(31.096875 118.393981)scale(0.1 -0.1)">
       <use xlink:href="#DejaVuSans-31"/>
       <use xlink:href="#DejaVuSans-2e" x="63.623047"/>
       <use xlink:href="#DejaVuSans-30" x="95.410156"/>
      </g>
     </g>
    </g>
    <g id="ytick_7">
     <g id="line2d_13">
      <g>
       <use xlink:href="#mff021c9e22" x="54" y="88.563732" style="stroke: #000000; stroke-width: 0.8"/>
      </g>
     </g>
     <g id="text_13">
      <!-- 1.2 -->
      <g transform="translate(31.096875 92.362951)scale(0.1 -0.1)">
       <use xlink:href="#DejaVuSans-31"/>
       <use xlink:href="#DejaVuSans-2e" x="63.623047"/>
       <use xlink:href="#DejaVuSans-32" x="95.410156"/>
      </g>
     </g>
    </g>
    <g id="ytick_8">
     <g id="line2d_14">
      <g>
       <use xlink:href="#mff021c9e22" x="54" y="62.532702" style="stroke: #000000; stroke-width: 0.8"/>
      </g>
     </g>
     <g id="text_14">
      <!-- 1.4 -->
      <g transform="translate(31.096875 66.33192)scale(0.1 -0.1)">
       <use xlink:href="#DejaVuSans-31"/>
       <use xlink:href="#DejaVuSans-2e" x="63.623047"/>
       <use xlink:href="#DejaVuSans-34" x="95.410156"/>
      </g>
     </g>
    </g>
    <g id="ytick_9">
     <g id="line2d_15">
      <g>
       <use xlink:href="#mff021c9e22" x="54" y="36.501671" style="stroke: #000000; stroke-width: 0.8"/>
      </g>
     </g>
     <g id="text_15">
      <!-- 1.6 -->
      <g transform="translate(31.096875 40.30089)scale(0.1 -0.1)">
       <use xlink:href="#DejaVuSans-31"/>
       <use xlink:href="#DejaVuSans-2e" x="63.623047"/>
       <use xlink:href="#DejaVuSans-36" x="95.410156"/>
      </g>
     </g>
    </g>
   </g>
   <g id="line2d_16">
    <path d="M 69.218182 242.116364 
L 69.827518 190.34666 
L 70.132187 167.760188 
L 71.35086 143.292382 
L 71.655528 139.631692 
L 71.960197 131.909464 
L 72.264865 129.512793 
L 72.874201 126.835155 
L 73.17887 126.804379 
L 73.483538 131.888037 
L 73.788206 125.141243 
L 74.092875 126.008113 
L 74.397543 121.635835 
L 75.00688 120.091022 
L 75.311548 119.90481 
L 75.616216 116.057365 
L 75.920885 118.798874 
L 76.225553 115.235406 
L 76.530221 117.695684 
L 76.834889 117.846481 
L 77.139558 121.42891 
L 77.444226 118.827081 
L 77.748894 121.020474 
L 78.053563 117.541179 
L 78.358231 110.394925 
L 78.662899 113.4293 
L 78.967568 113.849993 
L 79.272236 112.809044 
L 79.576904 114.28316 
L 79.881572 117.567563 
L 80.186241 117.574848 
L 80.490909 114.349971 
L 80.795577 114.79251 
L 81.100246 111.007842 
L 81.404914 114.398938 
L 81.709582 113.151585 
L 82.014251 111.251051 
L 82.318919 114.811485 
L 82.623587 114.181005 
L 82.928256 117.666033 
L 83.232924 111.182859 
L 83.537592 109.729984 
L 84.146929 114.404881 
L 84.451597 113.426957 
L 84.756265 108.648633 
L 85.060934 113.010717 
L 85.365602 114.341453 
L 85.67027 116.37688 
L 85.974939 110.193733 
L 86.279607 114.382507 
L 86.584275 106.153335 
L 86.888943 109.97538 
L 87.193612 108.215341 
L 87.49828 113.686923 
L 87.802948 108.889902 
L 88.107617 111.198576 
L 88.412285 110.090647 
L 88.716953 105.076235 
L 89.021622 112.193381 
L 89.32629 107.809621 
L 89.630958 111.763596 
L 89.935627 110.980519 
L 90.240295 109.100946 
L 90.544963 108.828599 
L 90.849631 111.640107 
L 91.1543 108.427643 
L 91.458968 112.868299 
L 91.763636 111.886527 
L 92.068305 115.246895 
L 92.372973 110.480556 
L 92.677641 116.168722 
L 92.98231 107.460983 
L 93.286978 108.020542 
L 93.591646 110.635775 
L 93.896314 110.658878 
L 94.505651 117.036073 
L 94.810319 111.604064 
L 95.114988 109.001243 
L 95.419656 110.582277 
L 95.724324 113.350217 
L 96.028993 112.661273 
L 96.333661 108.00349 
L 96.638329 110.06022 
L 96.942998 111.103357 
L 97.247666 107.501712 
L 97.552334 112.940555 
L 97.857002 113.059297 
L 98.161671 107.416096 
L 98.466339 113.613642 
L 98.771007 113.439184 
L 99.075676 110.05254 
L 99.380344 110.460277 
L 99.685012 105.625351 
L 99.989681 108.015499 
L 100.599017 107.522767 
L 100.903686 109.546464 
L 101.208354 109.618085 
L 101.81769 114.904999 
L 102.122359 107.828023 
L 102.427027 111.919048 
L 102.731695 104.726837 
L 103.036364 110.477515 
L 103.341032 109.788866 
L 103.6457 111.575717 
L 103.950369 107.949045 
L 104.255037 115.459708 
L 104.559705 107.505327 
L 104.864373 106.191411 
L 105.169042 107.187255 
L 105.47371 109.190488 
L 105.778378 109.638736 
L 106.083047 112.886406 
L 106.387715 110.067792 
L 106.692383 109.0791 
L 106.997052 112.557442 
L 107.30172 108.960824 
L 107.606388 107.269442 
L 107.911057 114.846303 
L 108.215725 108.093062 
L 108.520393 110.184687 
L 108.825061 108.452499 
L 109.434398 107.968455 
L 109.739066 112.40469 
L 110.043735 109.643593 
L 110.348403 109.094802 
L 110.653071 107.571688 
L 110.95774 109.150054 
L 111.262408 108.278288 
L 111.567076 108.046065 
L 112.176413 114.052007 
L 112.481081 108.002062 
L 112.785749 107.543573 
L 113.090418 108.720098 
L 113.395086 115.539661 
L 114.004423 109.852186 
L 114.309091 111.784387 
L 114.613759 109.651025 
L 114.918428 108.707189 
L 115.223096 106.733654 
L 115.527764 107.082059 
L 115.832432 111.712953 
L 116.137101 106.372029 
L 116.441769 111.34371 
L 116.746437 112.265576 
L 117.051106 105.735823 
L 117.660442 107.299511 
L 117.965111 111.350273 
L 118.269779 111.849258 
L 118.574447 108.235853 
L 118.879115 106.53634 
L 119.183784 111.733294 
L 119.488452 107.927339 
L 119.79312 108.229042 
L 120.097789 113.523341 
L 120.402457 108.000418 
L 121.011794 109.337732 
L 121.316462 108.310902 
L 121.62113 110.536708 
L 121.925799 105.551947 
L 122.230467 111.20064 
L 122.535135 109.031498 
L 122.839803 108.836342 
L 123.144472 109.548404 
L 123.44914 107.847417 
L 123.753808 106.952301 
L 124.058477 113.072811 
L 124.363145 108.646755 
L 124.667813 106.975326 
L 124.972482 112.052142 
L 125.581818 107.848271 
L 125.886486 108.148531 
L 126.191155 107.441961 
L 126.495823 106.049365 
L 126.800491 108.272749 
L 127.10516 106.99199 
L 127.409828 111.596911 
L 127.714496 110.203523 
L 128.019165 105.513949 
L 128.323833 109.611879 
L 128.628501 108.755613 
L 128.93317 109.134786 
L 129.237838 107.397664 
L 129.542506 106.620265 
L 129.847174 107.323033 
L 130.151843 105.033055 
L 130.456511 106.812629 
L 130.761179 107.930426 
L 131.065848 108.183317 
L 131.370516 108.846489 
L 131.675184 105.949707 
L 131.979853 108.455369 
L 132.284521 109.27179 
L 132.589189 111.166149 
L 132.893857 110.400712 
L 133.198526 108.563188 
L 133.503194 107.912831 
L 133.807862 108.32679 
L 134.112531 110.931567 
L 134.417199 107.371799 
L 134.721867 105.408178 
L 135.026536 111.267901 
L 135.331204 111.361833 
L 135.635872 106.904156 
L 135.940541 108.815861 
L 136.245209 109.387397 
L 136.549877 107.888022 
L 136.854545 107.521898 
L 137.159214 108.695661 
L 137.463882 111.411002 
L 137.76855 106.92701 
L 138.073219 114.427674 
L 138.377887 104.180436 
L 138.682555 111.252121 
L 138.987224 106.65426 
L 139.291892 106.77733 
L 139.59656 107.862436 
L 139.901229 106.708766 
L 140.205897 108.018028 
L 140.510565 107.213647 
L 140.815233 107.644984 
L 141.119902 111.131874 
L 141.42457 112.374248 
L 141.729238 110.69911 
L 142.033907 106.685912 
L 142.338575 109.426947 
L 142.643243 109.390097 
L 142.947912 108.989404 
L 143.25258 111.634428 
L 143.557248 111.588486 
L 143.861916 112.728301 
L 144.471253 107.944561 
L 144.775921 108.437495 
L 145.385258 109.752746 
L 145.689926 108.923431 
L 145.994595 110.781747 
L 146.299263 110.209621 
L 146.603931 108.373213 
L 146.9086 110.507709 
L 147.213268 111.362065 
L 147.517936 115.813909 
L 147.822604 111.408147 
L 148.127273 111.834348 
L 148.431941 107.211056 
L 148.736609 108.430265 
L 149.041278 107.707 
L 149.345946 111.403477 
L 149.650614 105.868048 
L 149.955283 114.149865 
L 150.259951 106.993464 
L 150.564619 107.836386 
L 150.869287 107.174843 
L 151.478624 112.911153 
L 151.783292 110.836052 
L 152.087961 105.839887 
L 152.392629 110.657249 
L 152.697297 106.928484 
L 153.001966 111.804372 
L 153.306634 113.668614 
L 153.611302 107.81274 
L 153.915971 106.277616 
L 154.220639 109.321363 
L 154.525307 109.908244 
L 154.829975 112.891278 
L 155.134644 104.747954 
L 155.439312 112.406102 
L 155.74398 108.040231 
L 156.048649 107.872785 
L 156.353317 106.351936 
L 156.657985 107.417586 
L 156.962654 107.75558 
L 157.267322 110.943281 
L 157.57199 110.701376 
L 157.876658 109.828912 
L 158.181327 109.854311 
L 158.485995 110.754672 
L 159.095332 105.300018 
L 159.4 105.43471 
L 159.704668 106.047084 
L 160.009337 105.818925 
L 160.314005 109.139813 
L 160.618673 107.365298 
L 160.923342 108.352981 
L 161.22801 107.313631 
L 161.532678 109.497202 
L 161.837346 107.104867 
L 162.446683 111.425556 
L 162.751351 108.895581 
L 163.05602 104.796068 
L 163.360688 104.49179 
L 163.665356 106.765011 
L 163.970025 105.887691 
L 164.274693 109.954915 
L 164.579361 108.191959 
L 164.884029 110.977136 
L 165.188698 110.455917 
L 165.493366 107.587033 
L 165.798034 107.704766 
L 166.102703 109.839401 
L 166.407371 109.810293 
L 166.712039 111.57131 
L 167.016708 109.385411 
L 167.321376 109.907654 
L 167.626044 111.997077 
L 168.235381 104.156666 
L 168.540049 109.927204 
L 168.844717 102.762921 
L 169.149386 103.946226 
L 169.454054 109.142451 
L 169.758722 110.55798 
L 170.063391 111.072418 
L 170.368059 105.260189 
L 170.672727 108.23683 
L 170.977396 112.445977 
L 171.282064 107.315399 
L 171.586732 110.576692 
L 171.8914 105.9197 
L 172.500737 111.685692 
L 172.805405 111.373857 
L 173.110074 110.282607 
L 173.414742 107.279993 
L 173.71941 107.783849 
L 174.024079 109.491368 
L 174.328747 110.133625 
L 174.633415 109.418103 
L 174.938084 104.904709 
L 175.242752 110.367431 
L 175.54742 109.993441 
L 175.852088 107.645465 
L 176.156757 112.064399 
L 176.461425 106.32362 
L 176.766093 109.261751 
L 177.070762 108.052985 
L 177.37543 108.831237 
L 177.680098 106.262659 
L 177.984767 109.271898 
L 178.594103 106.446861 
L 178.898771 108.99333 
L 179.20344 106.491453 
L 179.508108 106.679178 
L 180.117445 112.222613 
L 180.422113 112.345745 
L 181.03145 102.226559 
L 181.336118 112.215941 
L 181.945455 105.967845 
L 182.250123 106.191364 
L 182.554791 107.422318 
L 182.859459 102.230578 
L 183.164128 112.916568 
L 183.773464 104.800754 
L 184.078133 112.029629 
L 184.382801 106.629559 
L 184.687469 106.575657 
L 184.992138 106.861503 
L 185.296806 107.478826 
L 185.601474 107.100569 
L 185.906143 107.631144 
L 186.210811 107.755968 
L 186.515479 102.383547 
L 186.820147 110.345926 
L 187.124816 108.969311 
L 187.429484 105.842245 
L 188.038821 108.706646 
L 188.343489 105.829616 
L 188.648157 110.991023 
L 188.952826 108.944517 
L 189.257494 108.2606 
L 189.562162 106.429779 
L 189.86683 109.336258 
L 190.171499 107.986438 
L 190.476167 111.23299 
L 190.780835 111.034312 
L 191.085504 106.841845 
L 191.390172 110.011129 
L 191.69484 104.845703 
L 192.304177 113.457275 
L 192.608845 107.300737 
L 192.913514 105.401149 
L 193.52285 111.076902 
L 193.827518 107.353615 
L 194.132187 107.414467 
L 194.436855 109.256181 
L 194.741523 105.495361 
L 195.046192 108.977736 
L 195.35086 106.121171 
L 195.655528 110.695759 
L 195.960197 108.76289 
L 196.264865 108.200632 
L 196.569533 108.033932 
L 196.874201 113.932335 
L 197.17887 108.544848 
L 197.483538 106.470088 
L 197.788206 110.459517 
L 198.092875 106.006805 
L 198.397543 108.928722 
L 198.702211 109.522555 
L 199.00688 111.655669 
L 199.311548 106.810208 
L 199.616216 108.605096 
L 199.920885 111.516943 
L 200.225553 106.441803 
L 200.530221 108.053404 
L 200.834889 111.33153 
L 201.139558 107.896431 
L 201.444226 112.117106 
L 201.748894 114.633249 
L 202.358231 108.03764 
L 202.662899 108.899196 
L 202.967568 111.326721 
L 203.272236 110.431821 
L 203.881572 102.955099 
L 204.186241 110.33806 
L 204.795577 103.83999 
L 205.100246 109.417886 
L 205.404914 108.478922 
L 205.709582 107.03576 
L 206.014251 106.18207 
L 206.318919 107.908922 
L 206.623587 108.369816 
L 206.928256 108.524119 
L 207.232924 105.854084 
L 207.537592 107.731391 
L 207.84226 108.638703 
L 208.146929 108.452421 
L 208.451597 110.858441 
L 208.756265 106.117416 
L 209.060934 106.493641 
L 209.365602 104.653665 
L 209.67027 105.364532 
L 209.974939 106.424457 
L 210.279607 108.526509 
L 210.584275 102.480629 
L 210.888943 108.899273 
L 211.193612 106.221139 
L 211.49828 109.65014 
L 212.107617 105.31631 
L 212.412285 109.975101 
L 212.716953 104.989487 
L 213.021622 109.098154 
L 213.32629 106.323775 
L 213.630958 108.543638 
L 213.935627 105.537533 
L 214.240295 107.154331 
L 214.544963 103.666525 
L 214.849631 108.861167 
L 215.1543 110.700336 
L 215.458968 108.10428 
L 215.763636 109.318321 
L 216.068305 105.289157 
L 216.372973 106.097013 
L 216.677641 110.530346 
L 216.98231 106.532058 
L 217.591646 104.078855 
L 217.896314 110.533077 
L 218.200983 105.090773 
L 218.505651 107.989727 
L 218.810319 104.24976 
L 219.114988 105.304487 
L 219.419656 114.625786 
L 219.724324 110.411015 
L 220.028993 109.086362 
L 220.333661 105.959761 
L 220.638329 108.57816 
L 220.942998 104.314368 
L 221.247666 108.937054 
L 221.552334 105.854394 
L 221.857002 110.085526 
L 222.161671 108.052069 
L 222.466339 108.565189 
L 222.771007 104.984382 
L 223.075676 105.935169 
L 223.380344 104.834392 
L 223.685012 107.107163 
L 223.989681 107.049848 
L 224.294349 110.462837 
L 224.599017 104.37778 
L 224.903686 102.665762 
L 225.208354 106.709884 
L 225.513022 106.150915 
L 225.81769 103.494688 
L 226.122359 108.268979 
L 226.427027 107.305609 
L 226.731695 109.325397 
L 227.036364 106.056766 
L 227.341032 108.272067 
L 227.6457 108.509643 
L 227.950369 112.446349 
L 228.255037 105.307931 
L 228.559705 106.681598 
L 228.864373 110.158807 
L 229.47371 108.734853 
L 229.778378 104.939387 
L 230.083047 105.168383 
L 230.387715 111.153938 
L 230.692383 111.269685 
L 231.30172 107.424754 
L 231.606388 105.769182 
L 231.911057 108.317202 
L 232.215725 108.700238 
L 232.520393 106.534339 
L 232.825061 114.551085 
L 233.12973 107.51023 
L 233.434398 108.196428 
L 233.739066 108.195543 
L 234.043735 106.217912 
L 234.348403 108.132627 
L 234.653071 109.240929 
L 234.95774 109.174584 
L 235.567076 104.761484 
L 235.871744 105.923175 
L 236.481081 107.591951 
L 236.785749 111.350956 
L 237.090418 102.40606 
L 237.395086 106.754352 
L 237.699754 106.298097 
L 238.004423 107.674417 
L 238.309091 104.953366 
L 238.918428 107.609686 
L 239.223096 107.144385 
L 239.527764 108.225101 
L 239.832432 103.823047 
L 240.137101 105.125994 
L 240.746437 109.763855 
L 241.051106 105.549945 
L 241.355774 107.150747 
L 241.660442 109.543097 
L 241.965111 109.565378 
L 242.269779 110.301707 
L 242.574447 106.352464 
L 242.879115 110.066644 
L 243.183784 106.946622 
L 243.488452 109.704849 
L 243.79312 106.575626 
L 244.402457 107.945787 
L 244.707125 106.869711 
L 245.011794 106.724437 
L 245.316462 111.863936 
L 245.62113 104.562169 
L 245.925799 110.051656 
L 246.230467 106.903876 
L 246.535135 107.428059 
L 246.839803 105.437472 
L 247.144472 104.682788 
L 247.44914 107.798822 
L 247.753808 105.034482 
L 248.058477 110.098342 
L 248.363145 106.186182 
L 248.667813 106.61862 
L 248.972482 108.141021 
L 249.27715 106.849913 
L 249.581818 106.393255 
L 249.886486 103.388918 
L 250.191155 107.633037 
L 250.495823 109.099147 
L 250.800491 103.660008 
L 251.10516 105.637981 
L 251.409828 111.005639 
L 252.019165 106.860882 
L 252.323833 108.425734 
L 252.93317 105.119012 
L 253.237838 106.875715 
L 253.542506 104.7015 
L 253.847174 108.268498 
L 254.151843 103.699915 
L 254.456511 110.176573 
L 255.065848 105.103589 
L 255.370516 112.047285 
L 255.675184 110.685146 
L 255.979853 108.232455 
L 256.284521 108.877443 
L 256.589189 104.953816 
L 256.893857 108.343966 
L 257.198526 110.039321 
L 257.503194 112.44548 
L 257.807862 108.246543 
L 258.112531 107.411829 
L 258.417199 105.07383 
L 258.721867 109.37919 
L 259.026536 107.423016 
L 259.331204 106.359136 
L 259.635872 109.319501 
L 259.940541 105.384439 
L 260.245209 103.608558 
L 260.854545 105.232168 
L 261.159214 110.971256 
L 261.463882 105.378931 
L 261.76855 105.128213 
L 262.377887 107.113121 
L 262.682555 109.438103 
L 262.987224 106.455659 
L 263.291892 105.165326 
L 263.59656 108.140943 
L 263.901229 105.601845 
L 264.205897 111.909816 
L 264.510565 110.340806 
L 264.815233 106.866096 
L 265.119902 106.280719 
L 265.42457 106.248865 
L 265.729238 105.843456 
L 266.033907 108.10144 
L 266.338575 108.132425 
L 266.643243 106.734088 
L 266.947912 109.974387 
L 267.25258 108.721401 
L 267.557248 109.804646 
L 267.861916 109.133173 
L 268.166585 110.852871 
L 268.471253 110.415856 
L 268.775921 105.567121 
L 269.08059 105.145249 
L 269.385258 105.71061 
L 269.689926 109.382138 
L 269.994595 106.709899 
L 270.299263 106.699597 
L 270.603931 106.024027 
L 270.9086 105.86313 
L 271.213268 106.50776 
L 271.517936 106.055804 
L 271.822604 109.946475 
L 272.127273 106.233288 
L 272.431941 106.76875 
L 272.736609 109.619854 
L 273.041278 107.654216 
L 273.345946 109.60952 
L 273.650614 113.26817 
L 273.955283 107.519912 
L 274.259951 109.98424 
L 274.564619 106.251146 
L 274.869287 107.118257 
L 275.173956 110.489136 
L 275.478624 105.845255 
L 275.783292 103.578846 
L 276.087961 107.435289 
L 276.392629 108.842331 
L 276.697297 109.316103 
L 277.001966 111.247141 
L 277.306634 104.988106 
L 277.915971 107.627591 
L 278.220639 109.260929 
L 278.525307 107.753827 
L 278.829975 111.305387 
L 279.134644 110.394584 
L 279.439312 104.67396 
L 279.74398 108.808367 
L 280.048649 105.144008 
L 280.353317 107.263049 
L 280.657985 105.594677 
L 280.962654 105.449512 
L 281.57199 107.530385 
L 281.876658 103.516131 
L 282.181327 105.434369 
L 282.485995 108.243549 
L 282.790663 108.347101 
L 283.095332 104.643937 
L 283.4 108.241439 
L 283.704668 106.338515 
L 284.314005 108.203968 
L 284.618673 110.204454 
L 284.923342 107.631702 
L 285.22801 106.438374 
L 285.532678 107.097559 
L 285.837346 109.047355 
L 286.142015 107.259155 
L 286.446683 108.566989 
L 286.751351 107.357897 
L 287.05602 107.304166 
L 287.360688 102.776249 
L 287.665356 105.019029 
L 287.970025 105.257412 
L 288.274693 105.887877 
L 288.579361 106.894489 
L 288.884029 111.572086 
L 289.188698 109.347475 
L 289.493366 108.775334 
L 289.798034 106.34933 
L 290.102703 109.522431 
L 290.407371 108.846799 
L 290.712039 109.435372 
L 291.016708 108.483313 
L 291.321376 105.69916 
L 291.626044 108.777615 
L 291.930713 108.751595 
L 292.235381 106.66315 
L 292.540049 105.443337 
L 292.844717 108.616779 
L 293.149386 109.325164 
L 293.454054 106.996505 
L 293.758722 109.397545 
L 294.063391 108.10113 
L 294.368059 107.639895 
L 294.672727 108.114582 
L 294.977396 105.427138 
L 295.282064 107.507236 
L 295.586732 107.218597 
L 295.8914 105.268971 
L 296.196069 111.211718 
L 296.500737 106.767897 
L 296.805405 104.874996 
L 297.110074 110.308766 
L 297.414742 102.868676 
L 297.71941 103.363953 
L 298.024079 105.637081 
L 298.328747 110.57047 
L 298.938084 105.601597 
L 299.242752 109.401998 
L 299.54742 109.729891 
L 299.852088 107.962373 
L 300.156757 108.218724 
L 300.461425 107.244306 
L 300.766093 108.392468 
L 301.070762 105.52917 
L 301.37543 108.907745 
L 301.680098 103.139224 
L 301.984767 104.951334 
L 302.289435 110.402559 
L 302.594103 105.418962 
L 303.20344 102.764799 
L 303.508108 109.234319 
L 303.812776 107.00479 
L 304.117445 105.71933 
L 304.422113 108.196086 
L 304.726781 112.357274 
L 305.03145 107.122974 
L 305.336118 105.964835 
L 305.640786 110.734983 
L 305.945455 106.915265 
L 306.250123 109.515852 
L 306.554791 108.342523 
L 306.859459 109.597387 
L 307.164128 106.739239 
L 307.468796 106.99185 
L 307.773464 106.58627 
L 308.078133 111.593311 
L 308.382801 107.095309 
L 308.687469 107.6915 
L 308.992138 110.353343 
L 309.296806 104.787922 
L 309.601474 109.431664 
L 310.210811 107.421123 
L 310.515479 112.561972 
L 310.820147 110.697466 
L 311.124816 102.151587 
L 311.429484 109.217733 
L 311.734152 109.201938 
L 312.038821 106.41434 
L 312.343489 107.095557 
L 312.648157 110.41899 
L 312.952826 104.747085 
L 313.257494 108.075498 
L 313.562162 103.660288 
L 313.86683 109.045555 
L 314.171499 108.114458 
L 314.476167 106.404767 
L 314.780835 110.397175 
L 315.085504 105.153038 
L 315.390172 107.749746 
L 315.69484 104.713742 
L 315.999509 111.227249 
L 316.304177 105.46315 
L 316.608845 109.285226 
L 316.913514 107.248852 
L 317.218182 110.457345 
L 317.52285 108.520457 
L 318.132187 110.81402 
L 318.436855 103.182218 
L 318.741523 108.326527 
L 319.046192 106.963441 
L 319.35086 107.503574 
L 319.655528 107.336827 
L 319.960197 105.288071 
L 320.264865 109.245568 
L 320.569533 108.08954 
L 320.874201 106.488071 
L 321.17887 110.283631 
L 321.483538 108.089105 
L 321.788206 110.227681 
L 322.092875 110.139583 
L 322.397543 105.388644 
L 322.702211 108.382197 
L 323.00688 105.638633 
L 323.616216 108.960141 
L 323.920885 106.343759 
L 324.225553 111.681348 
L 324.530221 111.912594 
L 324.834889 106.622856 
L 325.139558 106.870456 
L 325.444226 106.006588 
L 325.748894 103.290424 
L 326.053563 107.987462 
L 326.358231 108.290685 
L 326.662899 101.701508 
L 326.967568 106.727416 
L 327.272236 107.154114 
L 327.576904 109.443425 
L 327.881572 103.23404 
L 328.490909 108.437092 
L 328.795577 107.223003 
L 329.100246 109.624881 
L 329.404914 105.699284 
L 329.709582 108.800454 
L 330.014251 109.278896 
L 330.318919 110.3009 
L 330.623587 106.590521 
L 330.928256 106.783428 
L 331.232924 104.651167 
L 331.537592 106.866437 
L 331.84226 105.644886 
L 332.146929 106.566006 
L 332.451597 105.900119 
L 332.756265 110.515172 
L 333.060934 105.2524 
L 333.365602 106.190728 
L 333.67027 108.325192 
L 333.974939 107.742981 
L 334.279607 109.301332 
L 334.584275 110.081089 
L 334.888943 108.818343 
L 335.193612 106.29307 
L 335.49828 108.0202 
L 335.802948 107.856789 
L 336.107617 109.621467 
L 336.412285 107.780343 
L 336.716953 108.236256 
L 337.021622 105.791044 
L 337.32629 104.643207 
L 337.630958 105.807847 
L 337.935627 106.521057 
L 338.240295 104.784959 
L 338.544963 109.341192 
L 338.849631 105.64065 
L 339.1543 105.767134 
L 339.458968 109.191077 
L 339.763636 110.29308 
L 340.068305 105.813324 
L 340.372973 108.376239 
L 340.677641 108.932601 
L 340.98231 104.887595 
L 341.286978 103.832869 
L 341.591646 110.917292 
L 341.896314 109.724786 
L 342.200983 112.015044 
L 342.505651 110.07316 
L 342.810319 106.067239 
L 343.114988 110.245074 
L 343.724324 106.270106 
L 344.028993 108.728089 
L 344.333661 105.876861 
L 344.638329 107.053044 
L 344.942998 103.61163 
L 345.247666 105.403337 
L 345.552334 108.643171 
L 345.857002 109.195841 
L 346.161671 108.873176 
L 346.466339 109.182683 
L 346.771007 109.876328 
L 347.075676 112.343465 
L 347.380344 107.299837 
L 347.685012 104.452969 
L 347.989681 105.575158 
L 348.599017 104.185013 
L 348.903686 109.269819 
L 349.208354 104.03884 
L 349.513022 107.948735 
L 349.81769 109.103693 
L 350.122359 108.269724 
L 350.427027 108.882439 
L 350.731695 106.362192 
L 351.036364 112.108929 
L 351.341032 108.276814 
L 351.6457 110.012866 
L 351.950369 112.631405 
L 352.255037 104.964165 
L 352.559705 111.143434 
L 352.864373 106.33521 
L 353.169042 109.837787 
L 353.47371 107.183081 
L 353.778378 109.572515 
L 354.083047 105.670968 
L 354.387715 110.061353 
L 354.692383 106.047735 
L 355.30172 107.434932 
L 355.606388 110.019523 
L 355.911057 108.479124 
L 356.520393 103.862954 
L 356.825061 104.079848 
L 357.12973 106.485976 
L 357.434398 113.774742 
L 357.739066 109.890385 
L 358.043735 107.691919 
L 358.348403 110.278775 
L 358.95774 103.806011 
L 359.262408 107.54196 
L 359.567076 108.282586 
L 359.871744 104.632238 
L 360.176413 112.347483 
L 360.481081 105.690657 
L 360.785749 107.211739 
L 361.090418 109.306452 
L 361.395086 106.773948 
L 361.699754 107.47006 
L 362.004423 106.287112 
L 362.309091 108.153232 
L 362.613759 105.086569 
L 362.918428 108.773301 
L 363.223096 109.250332 
L 363.527764 110.830187 
L 363.832432 107.023859 
L 364.137101 104.796828 
L 364.746437 109.427381 
L 365.051106 108.821105 
L 365.355774 108.897551 
L 365.660442 104.424514 
L 365.965111 110.527988 
L 366.269779 108.146451 
L 366.879115 107.03365 
L 367.183784 106.98175 
L 367.488452 108.027741 
L 367.79312 106.666517 
L 368.707125 109.624446 
L 369.011794 105.709974 
L 369.316462 104.657435 
L 369.62113 111.909242 
L 369.925799 105.516105 
L 370.535135 112.097898 
L 370.839803 108.279855 
L 371.44914 106.812365 
L 371.753808 106.8247 
L 372.058477 104.654022 
L 372.363145 107.679584 
L 372.667813 106.698666 
L 372.972482 107.941489 
L 373.27715 108.350514 
L 373.581818 105.300763 
L 373.581818 105.300763 
" clip-path="url(#p8a9094658b)" style="fill: none; stroke: #1f77b4; stroke-width: 1.5; stroke-linecap: square"/>
   </g>
   <g id="line2d_17">
    <path d="M 69.218182 242.116364 
L 69.827518 190.347731 
L 70.132187 167.784749 
L 71.35086 143.078451 
L 71.655528 139.756834 
L 71.960197 132.064862 
L 72.264865 129.761967 
L 72.569533 128.658816 
L 72.874201 127.094406 
L 73.17887 127.311006 
L 73.483538 132.229072 
L 73.788206 125.363692 
L 74.092875 126.425827 
L 74.397543 121.671172 
L 75.00688 119.796433 
L 75.311548 119.648863 
L 75.616216 116.258309 
L 75.920885 119.000818 
L 76.225553 115.402362 
L 76.530221 118.123506 
L 76.834889 117.912981 
L 77.139558 121.673018 
L 77.444226 119.011532 
L 77.748894 120.810151 
L 78.053563 117.235752 
L 78.358231 110.052866 
L 78.662899 113.074285 
L 78.967568 113.38854 
L 79.272236 112.497986 
L 79.576904 114.072969 
L 79.881572 117.596531 
L 80.186241 117.090928 
L 80.490909 114.042667 
L 80.795577 114.256178 
L 81.100246 110.523798 
L 81.404914 113.646691 
L 81.709582 112.742777 
L 82.014251 110.697155 
L 82.318919 114.368853 
L 82.623587 113.485482 
L 82.928256 116.973793 
L 83.232924 110.479362 
L 83.537592 108.638672 
L 84.146929 113.530168 
L 84.451597 112.287717 
L 84.756265 107.655829 
L 85.060934 111.817637 
L 85.365602 113.2226 
L 85.67027 115.162528 
L 85.974939 108.881958 
L 86.279607 113.076209 
L 86.584275 105.094404 
L 86.888943 108.689811 
L 87.193612 107.182957 
L 87.49828 112.709356 
L 87.802948 107.70053 
L 88.107617 110.42245 
L 88.412285 109.031203 
L 88.716953 104.057552 
L 89.021622 111.041139 
L 89.32629 106.47015 
L 89.630958 110.038917 
L 89.935627 109.308159 
L 90.240295 107.464676 
L 90.544963 107.075309 
L 90.849631 109.757928 
L 91.1543 106.46593 
L 91.458968 110.841731 
L 91.763636 109.770232 
L 92.068305 112.97424 
L 92.372973 108.40575 
L 92.677641 113.891575 
L 92.98231 105.175986 
L 93.286978 105.661906 
L 93.591646 108.281097 
L 93.896314 108.286 
L 94.505651 114.561341 
L 94.810319 109.244808 
L 95.114988 106.691916 
L 95.419656 108.1112 
L 95.724324 110.670872 
L 96.028993 109.827361 
L 96.333661 105.300127 
L 96.942998 108.316597 
L 97.247666 104.636458 
L 97.552334 110.119133 
L 97.857002 110.305229 
L 98.161671 104.452923 
L 98.466339 110.693121 
L 98.771007 110.43058 
L 99.075676 107.210637 
L 99.380344 107.518702 
L 99.685012 102.659742 
L 99.989681 104.841002 
L 100.294349 104.55438 
L 100.599017 104.106411 
L 100.903686 106.196112 
L 101.208354 106.259664 
L 101.81769 111.275379 
L 102.122359 104.21727 
L 102.427027 108.35641 
L 102.731695 101.183718 
L 103.036364 107.03154 
L 103.341032 106.330494 
L 103.6457 107.988238 
L 103.950369 104.35595 
L 104.255037 111.559565 
L 104.559705 103.599559 
L 104.864373 102.273541 
L 105.169042 103.205352 
L 105.47371 105.099912 
L 105.778378 105.297474 
L 106.083047 108.773581 
L 106.387715 105.788235 
L 106.692383 104.797201 
L 106.997052 108.376627 
L 107.30172 104.690903 
L 107.606388 102.979381 
L 107.911057 110.473171 
L 108.215725 103.698317 
L 108.520393 105.585647 
L 108.825061 103.935505 
L 109.12973 103.424014 
L 109.434398 103.298244 
L 109.739066 107.723493 
L 110.043735 104.872033 
L 110.348403 104.244237 
L 110.653071 102.717941 
L 110.95774 104.243321 
L 111.262408 103.460228 
L 111.567076 103.021832 
L 112.176413 109.077657 
L 112.481081 103.060916 
L 112.785749 102.513243 
L 113.090418 103.82103 
L 113.395086 110.552115 
L 114.004423 104.707179 
L 114.309091 106.452354 
L 114.613759 104.463691 
L 114.918428 103.311712 
L 115.223096 101.256347 
L 115.527764 101.512449 
L 115.832432 106.265669 
L 116.137101 100.812396 
L 116.441769 105.766048 
L 116.746437 106.459243 
L 117.051106 99.844061 
L 117.660442 101.426942 
L 117.965111 105.417767 
L 118.269779 105.892734 
L 118.574447 101.974553 
L 118.879115 100.373224 
L 119.183784 105.514337 
L 119.488452 101.642688 
L 119.79312 101.859566 
L 120.097789 107.160584 
L 120.402457 101.528787 
L 121.011794 102.792556 
L 121.316462 101.911373 
L 121.62113 103.874963 
L 121.925799 98.998703 
L 122.230467 104.476553 
L 122.535135 102.493119 
L 122.839803 102.302772 
L 123.144472 102.911143 
L 123.44914 101.084107 
L 123.753808 100.287593 
L 124.058477 106.422238 
L 124.363145 101.877254 
L 124.667813 100.152466 
L 124.972482 105.299289 
L 125.581818 100.94068 
L 125.886486 101.121701 
L 126.191155 100.510476 
L 126.495823 98.945143 
L 126.800491 101.180661 
L 127.10516 99.781905 
L 127.409828 104.295733 
L 127.714496 103.018108 
L 128.019165 98.341784 
L 128.323833 102.46789 
L 128.628501 101.505979 
L 128.93317 101.96332 
L 129.237838 100.259525 
L 129.542506 99.405727 
L 129.847174 99.920243 
L 130.151843 97.570855 
L 130.761179 100.371858 
L 131.065848 100.520375 
L 131.370516 101.186402 
L 131.675184 98.22748 
L 131.979853 100.520685 
L 132.284521 101.483683 
L 132.589189 103.330253 
L 132.893857 102.530217 
L 133.198526 100.822016 
L 133.503194 100.073336 
L 133.807862 100.392091 
L 134.112531 103.004796 
L 134.417199 99.591434 
L 134.721867 97.509553 
L 135.026536 103.406078 
L 135.331204 103.390609 
L 135.635872 98.968541 
L 135.940541 100.74903 
L 136.245209 101.264477 
L 136.549877 99.788313 
L 136.854545 99.476137 
L 137.159214 100.620932 
L 137.463882 103.350718 
L 137.76855 98.81689 
L 138.073219 106.298485 
L 138.377887 96.030316 
L 138.682555 103.240262 
L 138.987224 98.548112 
L 139.291892 98.67382 
L 139.59656 99.560868 
L 139.901229 98.491402 
L 140.205897 99.970467 
L 140.510565 98.95799 
L 140.815233 99.438977 
L 141.119902 102.880841 
L 141.42457 103.957227 
L 141.729238 102.503514 
L 142.033907 98.264423 
L 142.338575 100.992518 
L 142.643243 100.936723 
L 142.947912 100.445124 
L 143.25258 102.996495 
L 143.557248 103.003353 
L 143.861916 103.908989 
L 144.471253 99.259352 
L 144.775921 99.567214 
L 145.385258 100.996428 
L 145.689926 99.983795 
L 145.994595 101.589531 
L 146.299263 101.223577 
L 146.603931 99.327683 
L 146.9086 101.358347 
L 147.213268 102.164869 
L 147.517936 106.645074 
L 147.822604 102.251741 
L 148.127273 102.56477 
L 148.431941 97.823109 
L 148.736609 98.953335 
L 149.041278 98.195036 
L 149.345946 102.013265 
L 149.650614 96.396797 
L 149.955283 104.657637 
L 150.259951 97.422339 
L 150.564619 98.200482 
L 150.869287 97.6271 
L 151.478624 103.265196 
L 151.783292 101.078521 
L 152.087961 95.875361 
L 152.392629 100.676168 
L 152.697297 96.979567 
L 153.001966 101.77094 
L 153.306634 103.726865 
L 153.611302 97.924148 
L 153.915971 96.278661 
L 154.220639 99.119462 
L 154.525307 99.531435 
L 154.829975 102.603032 
L 155.134644 94.326599 
L 155.439312 102.178724 
L 155.74398 97.701854 
L 156.048649 97.485364 
L 156.353317 95.832662 
L 156.657985 96.958109 
L 156.962654 97.304823 
L 157.267322 100.461089 
L 157.57199 100.133305 
L 157.876658 99.138515 
L 158.181327 99.352213 
L 158.485995 100.181512 
L 159.095332 94.544471 
L 159.4 94.671405 
L 159.704668 95.240226 
L 160.009337 94.985598 
L 160.314005 98.206037 
L 160.618673 96.43644 
L 160.923342 97.332813 
L 161.22801 96.206187 
L 161.532678 98.389945 
L 161.837346 96.149353 
L 162.446683 100.393146 
L 162.751351 97.750744 
L 163.05602 93.815931 
L 163.360688 93.194884 
L 163.665356 95.421899 
L 163.970025 94.525417 
L 164.274693 98.478244 
L 164.579361 96.713938 
L 164.884029 99.672519 
L 165.188698 99.146242 
L 165.493366 96.036554 
L 165.798034 96.153077 
L 166.102703 98.196821 
L 166.407371 98.058452 
L 166.712039 99.918707 
L 167.016708 97.804987 
L 167.321376 98.202577 
L 167.626044 100.27968 
L 168.235381 92.47705 
L 168.540049 98.006521 
L 168.844717 91.045137 
L 169.149386 92.187341 
L 169.454054 97.217392 
L 169.758722 98.635465 
L 170.063391 99.142549 
L 170.368059 93.06961 
L 170.672727 96.089493 
L 170.977396 100.386055 
L 171.282064 95.293522 
L 171.586732 98.439114 
L 171.8914 93.703302 
L 172.500737 99.281461 
L 172.805405 98.99892 
L 173.110074 98.048863 
L 173.414742 94.819781 
L 173.71941 95.419293 
L 174.024079 97.217795 
L 174.328747 97.669582 
L 174.633415 97.033608 
L 174.938084 92.421736 
L 175.242752 97.813753 
L 175.54742 97.499809 
L 175.852088 95.042261 
L 176.156757 99.511994 
L 176.461425 93.455579 
L 176.766093 96.505206 
L 177.070762 95.111027 
L 177.37543 95.844997 
L 177.680098 93.360048 
L 177.984767 96.324199 
L 178.289435 94.64689 
L 178.594103 93.613141 
L 178.898771 95.979859 
L 179.20344 93.453298 
L 179.508108 93.531373 
L 180.117445 98.959976 
L 180.422113 99.131223 
L 181.03145 89.031152 
L 181.336118 98.928277 
L 181.945455 92.675356 
L 182.250123 92.942831 
L 182.554791 94.152885 
L 182.859459 88.905133 
L 183.164128 99.562652 
L 183.773464 91.332286 
L 184.078133 98.464529 
L 184.382801 93.060688 
L 184.687469 92.902289 
L 184.992138 93.182688 
L 185.296806 93.841082 
L 185.601474 93.345665 
L 185.906143 94.081389 
L 186.210811 94.152653 
L 186.515479 88.610692 
L 186.820147 96.671627 
L 187.124816 95.150685 
L 187.429484 92.080965 
L 188.038821 94.778137 
L 188.343489 91.923651 
L 188.648157 97.10315 
L 188.952826 95.247161 
L 189.257494 94.232977 
L 189.562162 92.525133 
L 189.86683 95.331132 
L 190.171499 93.96769 
L 190.476167 97.281037 
L 190.780835 97.036153 
L 191.085504 92.983715 
L 191.390172 95.933049 
L 191.69484 90.850306 
L 192.304177 99.2605 
L 192.608845 93.191486 
L 192.913514 91.47683 
L 193.218182 93.622279 
L 193.52285 96.930801 
L 193.827518 93.153084 
L 194.132187 93.150431 
L 194.436855 95.020461 
L 194.741523 91.200045 
L 195.046192 94.413518 
L 195.35086 91.79695 
L 195.655528 96.212362 
L 195.960197 94.320269 
L 196.264865 93.872377 
L 196.569533 93.698617 
L 196.874201 99.608967 
L 197.17887 94.008962 
L 197.483538 91.808059 
L 197.788206 95.882374 
L 198.092875 91.408111 
L 198.397543 94.238237 
L 198.702211 94.681412 
L 199.00688 96.915224 
L 199.311548 92.343754 
L 199.616216 93.72082 
L 199.920885 96.650681 
L 200.225553 91.61326 
L 200.530221 93.095226 
L 200.834889 96.384447 
L 201.139558 93.032202 
L 201.444226 97.160884 
L 201.748894 99.617687 
L 202.358231 92.910093 
L 202.662899 93.799996 
L 202.967568 96.116568 
L 203.272236 95.193244 
L 203.881572 87.842571 
L 204.186241 95.142399 
L 204.795577 88.636758 
L 205.100246 94.187175 
L 205.404914 93.246055 
L 205.709582 91.572965 
L 206.014251 90.935068 
L 206.318919 92.53483 
L 206.623587 93.125839 
L 206.928256 93.216683 
L 207.232924 90.435152 
L 207.537592 92.321676 
L 207.84226 93.187638 
L 208.146929 93.058501 
L 208.451597 95.427268 
L 208.756265 90.574499 
L 209.060934 91.015083 
L 209.365602 88.970547 
L 209.67027 89.628786 
L 209.974939 90.716561 
L 210.279607 92.610516 
L 210.584275 86.577995 
L 210.888943 92.920566 
L 211.193612 90.409582 
L 211.49828 93.7604 
L 212.107617 89.382008 
L 212.412285 94.02094 
L 212.716953 89.120289 
L 213.021622 93.073675 
L 213.32629 90.590185 
L 213.630958 92.588577 
L 213.935627 89.631035 
L 214.240295 91.182901 
L 214.544963 87.576322 
L 214.849631 92.902056 
L 215.1543 94.521089 
L 215.458968 91.945435 
L 215.763636 93.120455 
L 216.068305 89.316563 
L 216.372973 89.938588 
L 216.677641 94.269657 
L 216.98231 90.413461 
L 217.591646 87.834084 
L 217.896314 94.184243 
L 218.200983 88.610568 
L 218.505651 91.556162 
L 218.810319 87.816303 
L 219.114988 88.944543 
L 219.419656 98.114401 
L 219.724324 93.984168 
L 220.028993 92.586296 
L 220.333661 89.532076 
L 220.638329 92.076884 
L 220.942998 87.675467 
L 221.247666 92.530517 
L 221.552334 89.316299 
L 221.857002 93.610736 
L 222.161671 91.53897 
L 222.466339 92.014728 
L 222.771007 88.356839 
L 223.075676 89.408742 
L 223.380344 88.237213 
L 223.685012 90.560643 
L 223.989681 90.436642 
L 224.294349 93.881981 
L 224.599017 87.749555 
L 224.903686 85.826461 
L 225.208354 89.836805 
L 225.513022 89.366617 
L 225.81769 86.532534 
L 226.122359 91.337747 
L 226.427027 90.35264 
L 226.731695 92.396554 
L 227.036364 88.895669 
L 227.341032 91.323193 
L 227.6457 91.357328 
L 227.950369 95.460797 
L 228.255037 88.101559 
L 228.559705 89.50435 
L 228.864373 92.872002 
L 229.47371 91.456504 
L 229.778378 87.540605 
L 230.083047 87.935371 
L 230.387715 93.956689 
L 230.692383 94.012779 
L 231.30172 90.15137 
L 231.606388 88.348259 
L 231.911057 90.836435 
L 232.215725 91.093297 
L 232.520393 88.836057 
L 232.825061 97.021429 
L 233.12973 89.953622 
L 233.434398 90.538176 
L 233.739066 90.588649 
L 234.043735 88.510786 
L 234.348403 90.328218 
L 234.653071 91.463859 
L 234.95774 91.279036 
L 235.567076 86.903189 
L 235.871744 87.96091 
L 236.176413 88.452416 
L 236.481081 89.679569 
L 236.785749 93.378885 
L 237.090418 84.18732 
L 237.395086 88.642313 
L 237.699754 88.113227 
L 238.004423 89.600997 
L 238.309091 86.832561 
L 238.613759 88.570894 
L 238.918428 89.613223 
L 239.223096 89.026187 
L 239.527764 90.12082 
L 239.832432 85.549366 
L 240.137101 86.858674 
L 240.746437 91.349151 
L 241.051106 87.03743 
L 241.355774 88.585525 
L 241.660442 91.070148 
L 241.965111 90.951003 
L 242.269779 91.639124 
L 242.574447 87.911833 
L 242.879115 91.416272 
L 243.183784 88.371719 
L 243.488452 91.082266 
L 243.79312 87.981266 
L 244.402457 89.283732 
L 244.707125 88.032701 
L 245.011794 87.856877 
L 245.316462 93.075459 
L 245.62113 85.623376 
L 245.925799 91.228067 
L 246.230467 88.110977 
L 246.535135 88.496512 
L 246.839803 86.432799 
L 247.144472 85.606479 
L 247.44914 88.861115 
L 247.753808 86.014961 
L 248.058477 91.115873 
L 248.363145 87.130602 
L 248.667813 87.490536 
L 248.972482 89.073665 
L 249.27715 87.717375 
L 249.581818 87.420917 
L 249.886486 84.156676 
L 250.191155 88.479662 
L 250.495823 89.93792 
L 250.800491 84.369692 
L 251.10516 86.497639 
L 251.409828 91.719247 
L 252.019165 87.441428 
L 252.323833 88.980509 
L 252.93317 85.579234 
L 253.237838 87.378931 
L 253.542506 85.184623 
L 253.847174 88.729775 
L 254.151843 84.155094 
L 254.456511 90.50879 
L 255.065848 85.47849 
L 255.370516 92.319441 
L 255.675184 90.905526 
L 255.979853 88.355024 
L 256.284521 88.817919 
L 256.589189 85.048333 
L 256.893857 88.381137 
L 257.198526 90.021659 
L 257.503194 92.415794 
L 257.807862 88.052825 
L 258.112531 87.421832 
L 258.417199 85.104546 
L 258.721867 89.211118 
L 259.026536 87.323044 
L 259.331204 86.335857 
L 259.635872 89.417353 
L 259.940541 85.227074 
L 260.245209 83.51715 
L 260.854545 85.010211 
L 261.159214 90.764861 
L 261.463882 84.985867 
L 261.76855 84.706568 
L 262.377887 86.76001 
L 262.682555 88.979484 
L 262.987224 85.94767 
L 263.291892 84.842626 
L 263.59656 87.503631 
L 263.901229 85.055905 
L 264.205897 91.323131 
L 264.510565 89.770972 
L 264.815233 86.291373 
L 265.119902 85.58122 
L 265.42457 85.628527 
L 265.729238 85.275731 
L 266.033907 87.48602 
L 266.338575 87.611992 
L 266.643243 86.197659 
L 266.947912 89.396872 
L 267.25258 88.019171 
L 267.557248 88.935482 
L 267.861916 88.301464 
L 268.166585 89.97778 
L 268.471253 89.416608 
L 268.775921 84.632993 
L 269.08059 84.254891 
L 269.385258 84.817025 
L 269.689926 88.332526 
L 269.994595 85.678565 
L 270.299263 85.659046 
L 270.603931 85.001057 
L 270.9086 84.658004 
L 271.213268 85.227446 
L 271.517936 84.910771 
L 271.822604 88.519646 
L 272.127273 84.753984 
L 272.431941 85.559668 
L 272.736609 88.377444 
L 273.041278 86.277828 
L 273.345946 88.175942 
L 273.650614 91.884334 
L 273.955283 85.928197 
L 274.259951 88.739472 
L 274.564619 84.729656 
L 274.869287 85.657588 
L 275.173956 88.9285 
L 275.478624 84.230376 
L 275.783292 81.837513 
L 276.087961 85.80778 
L 276.392629 87.370615 
L 276.697297 87.469201 
L 277.001966 89.653611 
L 277.306634 83.29315 
L 277.915971 85.745593 
L 278.220639 87.635685 
L 278.525307 86.090367 
L 278.829975 89.461014 
L 279.134644 88.694725 
L 279.439312 82.840914 
L 279.74398 87.236233 
L 280.048649 83.465266 
L 280.353317 85.58049 
L 280.657985 83.888007 
L 280.962654 83.583728 
L 281.267322 84.447223 
L 281.57199 85.652126 
L 281.876658 81.632566 
L 282.181327 83.471875 
L 282.485995 86.386655 
L 282.790663 86.570547 
L 283.095332 82.69038 
L 283.4 86.275392 
L 283.704668 84.151634 
L 284.314005 86.033642 
L 284.618673 88.037185 
L 284.923342 85.500445 
L 285.22801 84.368497 
L 285.532678 85.005137 
L 285.837346 86.794873 
L 286.142015 85.078573 
L 286.446683 86.204067 
L 286.751351 85.034741 
L 287.05602 84.969094 
L 287.360688 80.386904 
L 287.665356 82.787431 
L 287.970025 83.044356 
L 288.274693 83.615908 
L 288.579361 84.437961 
L 288.884029 89.164401 
L 289.188698 86.883887 
L 289.493366 86.283367 
L 289.798034 83.773144 
L 290.102703 87.103108 
L 290.407371 86.29848 
L 290.712039 86.688498 
L 291.016708 85.774421 
L 291.321376 83.174998 
L 291.626044 86.106085 
L 291.930713 86.251746 
L 292.235381 84.083101 
L 292.540049 82.938259 
L 292.844717 85.699465 
L 293.149386 86.545971 
L 293.454054 84.184682 
L 293.758722 86.420883 
L 294.063391 85.37753 
L 294.368059 84.932555 
L 294.672727 85.701715 
L 294.977396 82.529172 
L 295.282064 84.810136 
L 295.586732 84.566787 
L 295.8914 82.375225 
L 296.196069 88.351331 
L 296.500737 83.867184 
L 296.805405 81.940367 
L 297.110074 87.331438 
L 297.414742 79.949376 
L 297.71941 80.50954 
L 298.024079 82.600576 
L 298.328747 87.84524 
L 298.938084 82.420035 
L 299.242752 86.427586 
L 299.54742 86.612626 
L 299.852088 84.900716 
L 300.156757 85.193746 
L 300.461425 84.273851 
L 300.766093 85.17024 
L 301.070762 82.430073 
L 301.37543 85.882317 
L 301.680098 79.807873 
L 301.984767 81.730688 
L 302.289435 87.162084 
L 302.594103 82.101653 
L 302.898771 81.035941 
L 303.20344 79.433277 
L 303.508108 86.066489 
L 303.812776 83.854741 
L 304.117445 82.512601 
L 304.422113 84.787669 
L 304.726781 88.985613 
L 305.03145 83.785075 
L 305.336118 82.483168 
L 305.640786 87.322438 
L 305.945455 83.367796 
L 306.250123 85.942534 
L 306.554791 84.705979 
L 306.859459 86.010632 
L 307.164128 83.085038 
L 307.468796 83.269395 
L 307.773464 83.000151 
L 308.078133 87.838599 
L 308.382801 83.300861 
L 308.687469 84.093838 
L 308.992138 86.529508 
L 309.296806 81.059773 
L 309.601474 85.544153 
L 309.906143 84.678206 
L 310.210811 83.464567 
L 310.515479 88.640187 
L 310.820147 86.854966 
L 311.124816 78.211664 
L 311.429484 85.378135 
L 311.734152 85.181039 
L 312.038821 82.305575 
L 312.343489 82.99967 
L 312.648157 86.328704 
L 312.952826 80.657048 
L 313.257494 83.971403 
L 313.562162 79.708743 
L 313.86683 84.77355 
L 314.171499 83.937688 
L 314.476167 82.167718 
L 314.780835 86.336617 
L 315.085504 81.037679 
L 315.390172 83.648258 
L 315.69484 80.422978 
L 315.999509 87.133985 
L 316.304177 81.208677 
L 316.608845 85.005432 
L 316.913514 83.197046 
L 317.218182 86.090957 
L 317.52285 84.43267 
L 318.132187 86.35837 
L 318.436855 78.688089 
L 318.741523 83.780777 
L 319.046192 82.762699 
L 319.35086 83.187814 
L 319.655528 82.873761 
L 319.960197 80.740739 
L 320.264865 84.923587 
L 320.874201 81.935138 
L 321.17887 85.659776 
L 321.483538 83.477787 
L 321.788206 85.62426 
L 322.092875 85.645315 
L 322.397543 80.735185 
L 322.702211 83.626117 
L 323.00688 80.925981 
L 323.616216 84.219825 
L 323.920885 81.631977 
L 324.225553 86.853368 
L 324.530221 87.05532 
L 324.834889 81.77303 
L 325.139558 81.9388 
L 325.444226 81.028835 
L 325.748894 78.524414 
L 326.053563 83.428261 
L 326.358231 83.551657 
L 326.662899 76.913232 
L 326.967568 81.708407 
L 327.272236 82.288431 
L 327.576904 84.440381 
L 327.881572 78.093667 
L 328.490909 83.629158 
L 328.795577 82.120101 
L 329.100246 84.608975 
L 329.404914 80.78755 
L 329.709582 83.62441 
L 330.014251 84.184248 
L 330.318919 85.226639 
L 330.623587 81.490846 
L 330.928256 81.543661 
L 331.232924 79.645734 
L 331.537592 81.707507 
L 331.84226 80.531743 
L 332.146929 81.401569 
L 332.451597 80.864477 
L 332.756265 85.446776 
L 333.060934 79.953441 
L 333.365602 81.036329 
L 333.67027 83.2891 
L 333.974939 82.642592 
L 334.279607 84.019564 
L 334.584275 84.828693 
L 334.888943 83.82824 
L 335.193612 81.169361 
L 335.49828 82.608349 
L 335.802948 82.53302 
L 336.107617 84.346247 
L 336.412285 82.524254 
L 336.716953 83.086295 
L 337.021622 80.21485 
L 337.32629 79.330688 
L 337.935627 80.970728 
L 338.240295 79.394178 
L 338.544963 83.904081 
L 338.849631 80.079863 
L 339.1543 80.297999 
L 339.458968 83.883616 
L 339.763636 84.622877 
L 340.068305 80.305322 
L 340.372973 82.888206 
L 340.677641 83.544535 
L 340.98231 79.301906 
L 341.286978 78.344184 
L 341.591646 85.279051 
L 341.896314 84.132456 
L 342.200983 86.415871 
L 342.505651 84.307396 
L 342.810319 80.166503 
L 343.114988 84.54038 
L 343.724324 80.27862 
L 344.028993 82.646533 
L 344.333661 79.847531 
L 344.638329 81.096421 
L 344.942998 77.671516 
L 345.247666 79.785375 
L 345.552334 82.687463 
L 345.857002 83.285889 
L 346.161671 83.049771 
L 346.466339 83.132314 
L 346.771007 83.825292 
L 347.075676 86.372133 
L 347.380344 81.204255 
L 347.685012 78.205675 
L 347.989681 79.353697 
L 348.599017 78.147755 
L 348.903686 83.053603 
L 349.208354 77.97913 
L 349.513022 81.881252 
L 349.81769 83.062199 
L 350.122359 82.243513 
L 350.427027 82.793653 
L 350.731695 80.181026 
L 351.036364 85.806228 
L 351.341032 81.976301 
L 351.6457 83.670942 
L 351.950369 86.262064 
L 352.255037 78.647454 
L 352.559705 84.719229 
L 352.864373 80.024271 
L 353.169042 83.363886 
L 353.47371 80.725317 
L 353.778378 83.194905 
L 354.083047 79.159565 
L 354.387715 83.725324 
L 354.692383 79.520739 
L 355.30172 80.65894 
L 355.606388 83.271661 
L 355.911057 81.709043 
L 356.520393 77.0022 
L 356.825061 77.147939 
L 357.12973 79.687766 
L 357.434398 86.989394 
L 357.739066 82.963084 
L 358.043735 80.811956 
L 358.348403 83.532123 
L 358.95774 76.809107 
L 359.262408 80.666171 
L 359.567076 81.272509 
L 359.871744 77.779179 
L 360.176413 85.403984 
L 360.481081 78.719803 
L 360.785749 79.96708 
L 361.090418 82.171334 
L 361.395086 79.634764 
L 361.699754 80.669383 
L 362.004423 79.262372 
L 362.309091 81.161463 
L 362.613759 78.059765 
L 362.918428 81.633296 
L 363.223096 82.059077 
L 363.527764 83.829559 
L 363.832432 79.919478 
L 364.137101 77.660376 
L 364.746437 82.632631 
L 365.051106 81.684218 
L 365.355774 81.812502 
L 365.660442 77.315291 
L 365.965111 83.311396 
L 366.269779 80.940256 
L 366.574447 80.647862 
L 366.879115 79.895785 
L 367.183784 79.806508 
L 367.488452 80.877091 
L 367.79312 79.394364 
L 368.707125 82.31535 
L 369.011794 78.551908 
L 369.316462 77.463574 
L 369.62113 84.5228 
L 369.925799 78.094955 
L 370.535135 84.909405 
L 370.839803 80.915663 
L 371.44914 79.277764 
L 371.753808 79.681529 
L 372.058477 76.973371 
L 372.363145 80.387664 
L 372.667813 79.111497 
L 372.972482 80.372583 
L 373.27715 80.824059 
L 373.581818 77.902219 
L 373.581818 77.902219 
" clip-path="url(#p8a9094658b)" style="fill: none; stroke: #ff7f0e; stroke-width: 1.5; stroke-linecap: square"/>
   </g>
   <g id="line2d_18">
    <path d="M 54 44.443636 
L 388.8 44.443636 
" clip-path="url(#p8a9094658b)" style="fill: none; stroke: #1f77b4; stroke-width: 1.5; stroke-linecap: square"/>
   </g>
   <g id="patch_3">
    <path d="M 54 252 
L 54 34.56 
" style="fill: none; stroke: #000000; stroke-width: 0.8; stroke-linejoin: miter; stroke-linecap: square"/>
   </g>
   <g id="patch_4">
    <path d="M 388.8 252 
L 388.8 34.56 
" style="fill: none; stroke: #000000; stroke-width: 0.8; stroke-linejoin: miter; stroke-linecap: square"/>
   </g>
   <g id="patch_5">
    <path d="M 54 252 
L 388.8 252 
" style="fill: none; stroke: #000000; stroke-width: 0.8; stroke-linejoin: miter; stroke-linecap: square"/>
   </g>
   <g id="patch_6">
    <path d="M 54 34.56 
L 388.8 34.56 
" style="fill: none; stroke: #000000; stroke-width: 0.8; stroke-linejoin: miter; stroke-linecap: square"/>
   </g>
   <g id="legend_1">
    <g id="patch_7">
     <path d="M 310.248438 247 
L 381.8 247 
Q 383.8 247 383.8 245 
L 383.8 216.64375 
Q 383.8 214.64375 381.8 214.64375 
L 310.248438 214.64375 
Q 308.248438 214.64375 308.248438 216.64375 
L 308.248438 245 
Q 308.248438 247 310.248438 247 
z
" style="fill: #ffffff; opacity: 0.8; stroke: #cccccc; stroke-linejoin: miter"/>
    </g>
    <g id="line2d_19">
     <path d="M 312.248438 222.742188 
L 322.248438 222.742188 
L 332.248438 222.742188 
" style="fill: none; stroke: #1f77b4; stroke-width: 1.5; stroke-linecap: square"/>
    </g>
    <g id="text_16">
     <!-- al=0.01 -->
     <g transform="translate(340.248438 226.242188)scale(0.1 -0.1)">
      <defs>
       <path id="DejaVuSans-61" d="M 2194 1759 
Q 1497 1759 1228 1600 
Q 959 1441 959 1056 
Q 959 750 1161 570 
Q 1363 391 1709 391 
Q 2188 391 2477 730 
Q 2766 1069 2766 1631 
L 2766 1759 
L 2194 1759 
z
M 3341 1997 
L 3341 0 
L 2766 0 
L 2766 531 
Q 2569 213 2275 61 
Q 1981 -91 1556 -91 
Q 1019 -91 701 211 
Q 384 513 384 1019 
Q 384 1609 779 1909 
Q 1175 2209 1959 2209 
L 2766 2209 
L 2766 2266 
Q 2766 2663 2505 2880 
Q 2244 3097 1772 3097 
Q 1472 3097 1187 3025 
Q 903 2953 641 2809 
L 641 3341 
Q 956 3463 1253 3523 
Q 1550 3584 1831 3584 
Q 2591 3584 2966 3190 
Q 3341 2797 3341 1997 
z
" transform="scale(0.015625)"/>
       <path id="DejaVuSans-6c" d="M 603 4863 
L 1178 4863 
L 1178 0 
L 603 0 
L 603 4863 
z
" transform="scale(0.015625)"/>
       <path id="DejaVuSans-3d" d="M 678 2906 
L 4684 2906 
L 4684 2381 
L 678 2381 
L 678 2906 
z
M 678 1631 
L 4684 1631 
L 4684 1100 
L 678 1100 
L 678 1631 
z
" transform="scale(0.015625)"/>
      </defs>
      <use xlink:href="#DejaVuSans-61"/>
      <use xlink:href="#DejaVuSans-6c" x="61.279297"/>
      <use xlink:href="#DejaVuSans-3d" x="89.0625"/>
      <use xlink:href="#DejaVuSans-30" x="172.851562"/>
      <use xlink:href="#DejaVuSans-2e" x="236.474609"/>
      <use xlink:href="#DejaVuSans-30" x="268.261719"/>
      <use xlink:href="#DejaVuSans-31" x="331.884766"/>
     </g>
    </g>
    <g id="line2d_20">
     <path d="M 312.248438 237.420312 
L 322.248438 237.420312 
L 332.248438 237.420312 
" style="fill: none; stroke: #ff7f0e; stroke-width: 1.5; stroke-linecap: square"/>
    </g>
    <g id="text_17">
     <!-- al=var -->
     <g transform="translate(340.248438 240.920312)scale(0.1 -0.1)">
      <defs>
       <path id="DejaVuSans-76" d="M 191 3500 
L 800 3500 
L 1894 563 
L 2988 3500 
L 3597 3500 
L 2284 0 
L 1503 0 
L 191 3500 
z
" transform="scale(0.015625)"/>
       <path id="DejaVuSans-72" d="M 2631 2963 
Q 2534 3019 2420 3045 
Q 2306 3072 2169 3072 
Q 1681 3072 1420 2755 
Q 1159 2438 1159 1844 
L 1159 0 
L 581 0 
L 581 3500 
L 1159 3500 
L 1159 2956 
Q 1341 3275 1631 3429 
Q 1922 3584 2338 3584 
Q 2397 3584 2469 3576 
Q 2541 3569 2628 3553 
L 2631 2963 
z
" transform="scale(0.015625)"/>
      </defs>
      <use xlink:href="#DejaVuSans-61"/>
      <use xlink:href="#DejaVuSans-6c" x="61.279297"/>
      <use xlink:href="#DejaVuSans-3d" x="89.0625"/>
      <use xlink:href="#DejaVuSans-76" x="172.851562"/>
      <use xlink:href="#DejaVuSans-61" x="232.03125"/>
      <use xlink:href="#DejaVuSans-72" x="293.310547"/>
     </g>
    </g>
   </g>
  </g>
 </g>
 <defs>
  <clipPath id="p8a9094658b">
   <rect x="54" y="34.56" width="334.8" height="217.44"/>
  </clipPath>
 </defs>
</svg>
