<?xml version="1.0" encoding="utf-8" standalone="no"?>
<!DOCTYPE svg PUBLIC "-//W3C//DTD SVG 1.1//EN"
  "http://www.w3.org/Graphics/SVG/1.1/DTD/svg11.dtd">
<svg xmlns:xlink="http://www.w3.org/1999/xlink" width="432pt" height="288pt" viewBox="0 0 432 288" xmlns="http://www.w3.org/2000/svg" version="1.1">
 <metadata>
  <rdf:RDF xmlns:dc="http://purl.org/dc/elements/1.1/" xmlns:cc="http://creativecommons.org/ns#" xmlns:rdf="http://www.w3.org/1999/02/22-rdf-syntax-ns#">
   <cc:Work>
    <dc:type rdf:resource="http://purl.org/dc/dcmitype/StillImage"/>
    <dc:date>2022-04-26T19:54:18.631528</dc:date>
    <dc:format>image/svg+xml</dc:format>
    <dc:creator>
     <cc:Agent>
      <dc:title>Matplotlib v3.5.0, https://matplotlib.org/</dc:title>
     </cc:Agent>
    </dc:creator>
   </cc:Work>
  </rdf:RDF>
 </metadata>
 <defs>
  <style type="text/css">*{stroke-linejoin: round; stroke-linecap: butt}</style>
 </defs>
 <g id="figure_1">
  <g id="patch_1">
   <path d="M 0 288 
L 432 288 
L 432 0 
L 0 0 
L 0 288 
z
" style="fill: none"/>
  </g>
  <g id="axes_1">
   <g id="patch_2">
    <path d="M 54 252 
L 388.8 252 
L 388.8 34.56 
L 54 34.56 
z
" style="fill: #ffffff"/>
   </g>
   <g id="matplotlib.axis_1">
    <g id="xtick_1">
     <g id="line2d_1">
      <defs>
       <path id="m170e847cd3" d="M 0 0 
L 0 3.5 
" style="stroke: #000000; stroke-width: 0.8"/>
      </defs>
      <g>
       <use xlink:href="#m170e847cd3" x="69.218182" y="252" style="stroke: #000000; stroke-width: 0.8"/>
      </g>
     </g>
     <g id="text_1">
      <!-- 0 -->
      <g transform="translate(66.036932 266.598437)scale(0.1 -0.1)">
       <defs>
        <path id="DejaVuSans-30" d="M 2034 4250 
Q 1547 4250 1301 3770 
Q 1056 3291 1056 2328 
Q 1056 1369 1301 889 
Q 1547 409 2034 409 
Q 2525 409 2770 889 
Q 3016 1369 3016 2328 
Q 3016 3291 2770 3770 
Q 2525 4250 2034 4250 
z
M 2034 4750 
Q 2819 4750 3233 4129 
Q 3647 3509 3647 2328 
Q 3647 1150 3233 529 
Q 2819 -91 2034 -91 
Q 1250 -91 836 529 
Q 422 1150 422 2328 
Q 422 3509 836 4129 
Q 1250 4750 2034 4750 
z
" transform="scale(0.015625)"/>
       </defs>
       <use xlink:href="#DejaVuSans-30"/>
      </g>
     </g>
    </g>
    <g id="xtick_2">
     <g id="line2d_2">
      <g>
       <use xlink:href="#m170e847cd3" x="130.151843" y="252" style="stroke: #000000; stroke-width: 0.8"/>
      </g>
     </g>
     <g id="text_2">
      <!-- 200 -->
      <g transform="translate(120.608093 266.598437)scale(0.1 -0.1)">
       <defs>
        <path id="DejaVuSans-32" d="M 1228 531 
L 3431 531 
L 3431 0 
L 469 0 
L 469 531 
Q 828 903 1448 1529 
Q 2069 2156 2228 2338 
Q 2531 2678 2651 2914 
Q 2772 3150 2772 3378 
Q 2772 3750 2511 3984 
Q 2250 4219 1831 4219 
Q 1534 4219 1204 4116 
Q 875 4013 500 3803 
L 500 4441 
Q 881 4594 1212 4672 
Q 1544 4750 1819 4750 
Q 2544 4750 2975 4387 
Q 3406 4025 3406 3419 
Q 3406 3131 3298 2873 
Q 3191 2616 2906 2266 
Q 2828 2175 2409 1742 
Q 1991 1309 1228 531 
z
" transform="scale(0.015625)"/>
       </defs>
       <use xlink:href="#DejaVuSans-32"/>
       <use xlink:href="#DejaVuSans-30" x="63.623047"/>
       <use xlink:href="#DejaVuSans-30" x="127.246094"/>
      </g>
     </g>
    </g>
    <g id="xtick_3">
     <g id="line2d_3">
      <g>
       <use xlink:href="#m170e847cd3" x="191.085504" y="252" style="stroke: #000000; stroke-width: 0.8"/>
      </g>
     </g>
     <g id="text_3">
      <!-- 400 -->
      <g transform="translate(181.541754 266.598437)scale(0.1 -0.1)">
       <defs>
        <path id="DejaVuSans-34" d="M 2419 4116 
L 825 1625 
L 2419 1625 
L 2419 4116 
z
M 2253 4666 
L 3047 4666 
L 3047 1625 
L 3713 1625 
L 3713 1100 
L 3047 1100 
L 3047 0 
L 2419 0 
L 2419 1100 
L 313 1100 
L 313 1709 
L 2253 4666 
z
" transform="scale(0.015625)"/>
       </defs>
       <use xlink:href="#DejaVuSans-34"/>
       <use xlink:href="#DejaVuSans-30" x="63.623047"/>
       <use xlink:href="#DejaVuSans-30" x="127.246094"/>
      </g>
     </g>
    </g>
    <g id="xtick_4">
     <g id="line2d_4">
      <g>
       <use xlink:href="#m170e847cd3" x="252.019165" y="252" style="stroke: #000000; stroke-width: 0.8"/>
      </g>
     </g>
     <g id="text_4">
      <!-- 600 -->
      <g transform="translate(242.475415 266.598437)scale(0.1 -0.1)">
       <defs>
        <path id="DejaVuSans-36" d="M 2113 2584 
Q 1688 2584 1439 2293 
Q 1191 2003 1191 1497 
Q 1191 994 1439 701 
Q 1688 409 2113 409 
Q 2538 409 2786 701 
Q 3034 994 3034 1497 
Q 3034 2003 2786 2293 
Q 2538 2584 2113 2584 
z
M 3366 4563 
L 3366 3988 
Q 3128 4100 2886 4159 
Q 2644 4219 2406 4219 
Q 1781 4219 1451 3797 
Q 1122 3375 1075 2522 
Q 1259 2794 1537 2939 
Q 1816 3084 2150 3084 
Q 2853 3084 3261 2657 
Q 3669 2231 3669 1497 
Q 3669 778 3244 343 
Q 2819 -91 2113 -91 
Q 1303 -91 875 529 
Q 447 1150 447 2328 
Q 447 3434 972 4092 
Q 1497 4750 2381 4750 
Q 2619 4750 2861 4703 
Q 3103 4656 3366 4563 
z
" transform="scale(0.015625)"/>
       </defs>
       <use xlink:href="#DejaVuSans-36"/>
       <use xlink:href="#DejaVuSans-30" x="63.623047"/>
       <use xlink:href="#DejaVuSans-30" x="127.246094"/>
      </g>
     </g>
    </g>
    <g id="xtick_5">
     <g id="line2d_5">
      <g>
       <use xlink:href="#m170e847cd3" x="312.952826" y="252" style="stroke: #000000; stroke-width: 0.8"/>
      </g>
     </g>
     <g id="text_5">
      <!-- 800 -->
      <g transform="translate(303.409076 266.598437)scale(0.1 -0.1)">
       <defs>
        <path id="DejaVuSans-38" d="M 2034 2216 
Q 1584 2216 1326 1975 
Q 1069 1734 1069 1313 
Q 1069 891 1326 650 
Q 1584 409 2034 409 
Q 2484 409 2743 651 
Q 3003 894 3003 1313 
Q 3003 1734 2745 1975 
Q 2488 2216 2034 2216 
z
M 1403 2484 
Q 997 2584 770 2862 
Q 544 3141 544 3541 
Q 544 4100 942 4425 
Q 1341 4750 2034 4750 
Q 2731 4750 3128 4425 
Q 3525 4100 3525 3541 
Q 3525 3141 3298 2862 
Q 3072 2584 2669 2484 
Q 3125 2378 3379 2068 
Q 3634 1759 3634 1313 
Q 3634 634 3220 271 
Q 2806 -91 2034 -91 
Q 1263 -91 848 271 
Q 434 634 434 1313 
Q 434 1759 690 2068 
Q 947 2378 1403 2484 
z
M 1172 3481 
Q 1172 3119 1398 2916 
Q 1625 2713 2034 2713 
Q 2441 2713 2670 2916 
Q 2900 3119 2900 3481 
Q 2900 3844 2670 4047 
Q 2441 4250 2034 4250 
Q 1625 4250 1398 4047 
Q 1172 3844 1172 3481 
z
" transform="scale(0.015625)"/>
       </defs>
       <use xlink:href="#DejaVuSans-38"/>
       <use xlink:href="#DejaVuSans-30" x="63.623047"/>
       <use xlink:href="#DejaVuSans-30" x="127.246094"/>
      </g>
     </g>
    </g>
    <g id="xtick_6">
     <g id="line2d_6">
      <g>
       <use xlink:href="#m170e847cd3" x="373.886486" y="252" style="stroke: #000000; stroke-width: 0.8"/>
      </g>
     </g>
     <g id="text_6">
      <!-- 1000 -->
      <g transform="translate(361.161486 266.598437)scale(0.1 -0.1)">
       <defs>
        <path id="DejaVuSans-31" d="M 794 531 
L 1825 531 
L 1825 4091 
L 703 3866 
L 703 4441 
L 1819 4666 
L 2450 4666 
L 2450 531 
L 3481 531 
L 3481 0 
L 794 0 
L 794 531 
z
" transform="scale(0.015625)"/>
       </defs>
       <use xlink:href="#DejaVuSans-31"/>
       <use xlink:href="#DejaVuSans-30" x="63.623047"/>
       <use xlink:href="#DejaVuSans-30" x="127.246094"/>
       <use xlink:href="#DejaVuSans-30" x="190.869141"/>
      </g>
     </g>
    </g>
   </g>
   <g id="matplotlib.axis_2">
    <g id="ytick_1">
     <g id="line2d_7">
      <defs>
       <path id="m2b56d1b1ac" d="M 0 0 
L -3.5 0 
" style="stroke: #000000; stroke-width: 0.8"/>
      </defs>
      <g>
       <use xlink:href="#m2b56d1b1ac" x="54" y="244.739944" style="stroke: #000000; stroke-width: 0.8"/>
      </g>
     </g>
     <g id="text_7">
      <!-- 0.0 -->
      <g transform="translate(31.096875 248.539163)scale(0.1 -0.1)">
       <defs>
        <path id="DejaVuSans-2e" d="M 684 794 
L 1344 794 
L 1344 0 
L 684 0 
L 684 794 
z
" transform="scale(0.015625)"/>
       </defs>
       <use xlink:href="#DejaVuSans-30"/>
       <use xlink:href="#DejaVuSans-2e" x="63.623047"/>
       <use xlink:href="#DejaVuSans-30" x="95.410156"/>
      </g>
     </g>
    </g>
    <g id="ytick_2">
     <g id="line2d_8">
      <g>
       <use xlink:href="#m2b56d1b1ac" x="54" y="218.710209" style="stroke: #000000; stroke-width: 0.8"/>
      </g>
     </g>
     <g id="text_8">
      <!-- 0.2 -->
      <g transform="translate(31.096875 222.509428)scale(0.1 -0.1)">
       <use xlink:href="#DejaVuSans-30"/>
       <use xlink:href="#DejaVuSans-2e" x="63.623047"/>
       <use xlink:href="#DejaVuSans-32" x="95.410156"/>
      </g>
     </g>
    </g>
    <g id="ytick_3">
     <g id="line2d_9">
      <g>
       <use xlink:href="#m2b56d1b1ac" x="54" y="192.680475" style="stroke: #000000; stroke-width: 0.8"/>
      </g>
     </g>
     <g id="text_9">
      <!-- 0.4 -->
      <g transform="translate(31.096875 196.479693)scale(0.1 -0.1)">
       <use xlink:href="#DejaVuSans-30"/>
       <use xlink:href="#DejaVuSans-2e" x="63.623047"/>
       <use xlink:href="#DejaVuSans-34" x="95.410156"/>
      </g>
     </g>
    </g>
    <g id="ytick_4">
     <g id="line2d_10">
      <g>
       <use xlink:href="#m2b56d1b1ac" x="54" y="166.65074" style="stroke: #000000; stroke-width: 0.8"/>
      </g>
     </g>
     <g id="text_10">
      <!-- 0.6 -->
      <g transform="translate(31.096875 170.449959)scale(0.1 -0.1)">
       <use xlink:href="#DejaVuSans-30"/>
       <use xlink:href="#DejaVuSans-2e" x="63.623047"/>
       <use xlink:href="#DejaVuSans-36" x="95.410156"/>
      </g>
     </g>
    </g>
    <g id="ytick_5">
     <g id="line2d_11">
      <g>
       <use xlink:href="#m2b56d1b1ac" x="54" y="140.621005" style="stroke: #000000; stroke-width: 0.8"/>
      </g>
     </g>
     <g id="text_11">
      <!-- 0.8 -->
      <g transform="translate(31.096875 144.420224)scale(0.1 -0.1)">
       <use xlink:href="#DejaVuSans-30"/>
       <use xlink:href="#DejaVuSans-2e" x="63.623047"/>
       <use xlink:href="#DejaVuSans-38" x="95.410156"/>
      </g>
     </g>
    </g>
    <g id="ytick_6">
     <g id="line2d_12">
      <g>
       <use xlink:href="#m2b56d1b1ac" x="54" y="114.591271" style="stroke: #000000; stroke-width: 0.8"/>
      </g>
     </g>
     <g id="text_12">
      <!-- 1.0 -->
      <g transform="translate(31.096875 118.390489)scale(0.1 -0.1)">
       <use xlink:href="#DejaVuSans-31"/>
       <use xlink:href="#DejaVuSans-2e" x="63.623047"/>
       <use xlink:href="#DejaVuSans-30" x="95.410156"/>
      </g>
     </g>
    </g>
    <g id="ytick_7">
     <g id="line2d_13">
      <g>
       <use xlink:href="#m2b56d1b1ac" x="54" y="88.561536" style="stroke: #000000; stroke-width: 0.8"/>
      </g>
     </g>
     <g id="text_13">
      <!-- 1.2 -->
      <g transform="translate(31.096875 92.360755)scale(0.1 -0.1)">
       <use xlink:href="#DejaVuSans-31"/>
       <use xlink:href="#DejaVuSans-2e" x="63.623047"/>
       <use xlink:href="#DejaVuSans-32" x="95.410156"/>
      </g>
     </g>
    </g>
    <g id="ytick_8">
     <g id="line2d_14">
      <g>
       <use xlink:href="#m2b56d1b1ac" x="54" y="62.531801" style="stroke: #000000; stroke-width: 0.8"/>
      </g>
     </g>
     <g id="text_14">
      <!-- 1.4 -->
      <g transform="translate(31.096875 66.33102)scale(0.1 -0.1)">
       <use xlink:href="#DejaVuSans-31"/>
       <use xlink:href="#DejaVuSans-2e" x="63.623047"/>
       <use xlink:href="#DejaVuSans-34" x="95.410156"/>
      </g>
     </g>
    </g>
    <g id="ytick_9">
     <g id="line2d_15">
      <g>
       <use xlink:href="#m2b56d1b1ac" x="54" y="36.502067" style="stroke: #000000; stroke-width: 0.8"/>
      </g>
     </g>
     <g id="text_15">
      <!-- 1.6 -->
      <g transform="translate(31.096875 40.301285)scale(0.1 -0.1)">
       <use xlink:href="#DejaVuSans-31"/>
       <use xlink:href="#DejaVuSans-2e" x="63.623047"/>
       <use xlink:href="#DejaVuSans-36" x="95.410156"/>
      </g>
     </g>
    </g>
   </g>
   <g id="line2d_16">
    <path d="M 69.218182 242.011606 
L 69.827518 195.745363 
L 70.132187 173.762052 
L 71.35086 150.678651 
L 71.655528 147.051772 
L 71.960197 139.422491 
L 72.264865 136.849107 
L 72.569533 135.811391 
L 72.874201 131.761924 
L 73.17887 132.773435 
L 73.483538 137.107198 
L 73.788206 131.033537 
L 74.092875 132.074736 
L 74.397543 127.200309 
L 74.702211 127.890848 
L 75.311548 124.837083 
L 75.616216 120.236929 
L 75.920885 123.628555 
L 76.225553 117.743051 
L 77.139558 124.932895 
L 77.444226 122.435255 
L 77.748894 122.535629 
L 78.053563 118.353036 
L 78.358231 110.686768 
L 78.662899 114.131144 
L 78.967568 116.082054 
L 79.272236 113.697673 
L 79.576904 112.55354 
L 79.881572 118.047268 
L 80.186241 116.655587 
L 80.490909 113.242899 
L 80.795577 113.652959 
L 81.100246 109.525165 
L 81.404914 114.306929 
L 81.709582 110.071073 
L 82.014251 109.96205 
L 82.318919 113.926146 
L 82.623587 112.390695 
L 82.928256 115.167968 
L 83.232924 109.494631 
L 83.537592 107.339794 
L 83.84226 108.531216 
L 84.146929 111.097432 
L 84.451597 110.809491 
L 84.756265 104.546641 
L 85.365602 111.422206 
L 85.67027 112.031664 
L 85.974939 105.566639 
L 86.279607 108.697366 
L 86.584275 100.169118 
L 86.888943 103.960874 
L 87.193612 102.646946 
L 87.49828 107.341392 
L 87.802948 105.122136 
L 88.107617 104.798774 
L 88.412285 104.198284 
L 88.716953 97.916894 
L 89.021622 105.877558 
L 89.32629 100.107354 
L 89.630958 102.442149 
L 90.240295 100.549327 
L 90.544963 99.673184 
L 90.849631 102.213893 
L 91.1543 98.454998 
L 91.458968 102.905425 
L 91.763636 103.288085 
L 92.068305 107.044886 
L 92.372973 101.096415 
L 92.677641 103.700643 
L 92.98231 100.527948 
L 93.286978 98.716378 
L 93.591646 100.316076 
L 93.896314 102.662849 
L 94.200983 101.097563 
L 94.505651 105.12859 
L 94.810319 97.866315 
L 95.114988 96.895871 
L 95.419656 98.76539 
L 95.724324 103.532802 
L 96.333661 94.709756 
L 96.638329 97.064891 
L 96.942998 98.250883 
L 97.247666 93.996534 
L 97.552334 101.417574 
L 97.857002 99.925813 
L 98.161671 94.159813 
L 98.466339 101.081691 
L 98.771007 99.596757 
L 99.075676 95.87848 
L 99.380344 94.167897 
L 99.685012 89.137785 
L 100.294349 93.224279 
L 100.903686 94.989412 
L 101.208354 94.409092 
L 101.513022 96.601274 
L 101.81769 100.079008 
L 102.122359 92.231913 
L 102.427027 96.608845 
L 102.731695 86.911377 
L 103.036364 93.800301 
L 103.341032 96.888905 
L 103.6457 94.641149 
L 103.950369 93.301202 
L 104.255037 99.20094 
L 104.559705 91.897814 
L 104.864373 89.901679 
L 105.169042 90.799124 
L 105.47371 93.311379 
L 105.778378 93.201953 
L 106.083047 94.623865 
L 106.387715 93.545003 
L 106.692383 89.624442 
L 106.997052 93.661722 
L 107.606388 88.689233 
L 107.911057 98.044768 
L 108.215725 88.448038 
L 108.520393 89.726701 
L 108.825061 87.546667 
L 109.12973 89.187263 
L 109.434398 88.638065 
L 109.739066 93.631313 
L 110.043735 91.495683 
L 110.348403 92.175749 
L 110.653071 87.312004 
L 110.95774 89.164906 
L 111.262408 88.501192 
L 111.567076 88.261269 
L 111.871744 90.025643 
L 112.176413 94.893437 
L 112.481081 87.509106 
L 113.090418 87.704857 
L 113.395086 94.606038 
L 113.699754 89.82775 
L 114.004423 89.658761 
L 114.309091 90.084522 
L 114.613759 87.361109 
L 114.918428 87.785163 
L 115.223096 84.451687 
L 115.527764 88.161601 
L 116.137101 84.541441 
L 116.441769 90.872634 
L 116.746437 90.708548 
L 117.051106 84.228163 
L 117.355774 84.073914 
L 117.660442 85.832841 
L 117.965111 89.757048 
L 118.269779 89.298024 
L 118.574447 85.265383 
L 118.879115 84.924954 
L 119.183784 89.656372 
L 119.488452 85.335138 
L 119.79312 85.720948 
L 120.097789 92.521607 
L 120.402457 85.071012 
L 120.707125 85.394901 
L 121.011794 85.127688 
L 121.316462 84.210569 
L 121.62113 86.498401 
L 121.925799 82.290612 
L 122.230467 87.516972 
L 122.535135 85.900455 
L 122.839803 82.550378 
L 123.144472 85.318025 
L 123.44914 83.393522 
L 123.753808 82.644709 
L 124.058477 90.672352 
L 124.363145 85.145421 
L 124.667813 82.336629 
L 124.972482 90.046169 
L 125.581818 81.462611 
L 125.886486 84.307041 
L 126.495823 80.14814 
L 126.800491 81.861872 
L 127.10516 82.499257 
L 127.409828 88.867283 
L 128.019165 80.905113 
L 128.323833 85.184798 
L 128.628501 82.970042 
L 129.237838 84.69462 
L 129.542506 81.100244 
L 129.847174 82.910744 
L 130.151843 79.890173 
L 130.456511 78.979121 
L 130.761179 80.32864 
L 131.065848 82.295189 
L 131.370516 81.695428 
L 131.675184 79.432731 
L 131.979853 81.398457 
L 132.284521 84.261458 
L 132.589189 85.500046 
L 132.893857 85.824975 
L 133.198526 81.63762 
L 133.503194 82.536322 
L 133.807862 80.795174 
L 134.112531 84.281752 
L 134.417199 82.89917 
L 134.721867 78.98649 
L 135.026536 82.413195 
L 135.331204 83.719956 
L 135.635872 79.329324 
L 135.940541 81.894159 
L 136.245209 82.286795 
L 136.549877 79.344932 
L 136.854545 80.965001 
L 137.159214 81.441278 
L 137.463882 83.253469 
L 137.76855 80.375806 
L 138.073219 87.098286 
L 138.377887 76.494637 
L 138.682555 81.889784 
L 138.987224 79.035067 
L 139.291892 78.459572 
L 139.901229 81.090703 
L 140.510565 78.337051 
L 140.815233 81.866155 
L 141.119902 82.106714 
L 141.42457 84.810904 
L 141.729238 82.947902 
L 142.033907 77.246491 
L 142.338575 82.260435 
L 142.643243 79.696562 
L 143.25258 83.063752 
L 143.557248 85.215549 
L 143.861916 84.536414 
L 144.166585 82.074644 
L 144.471253 78.594816 
L 144.775921 79.466352 
L 145.08059 79.212822 
L 145.385258 79.80422 
L 145.689926 79.568564 
L 145.994595 80.639916 
L 146.299263 82.39135 
L 146.603931 79.821643 
L 146.9086 82.100321 
L 147.213268 83.016059 
L 147.517936 85.82195 
L 147.822604 80.918208 
L 148.127273 82.185793 
L 148.431941 76.755241 
L 148.736609 79.358616 
L 149.041278 77.696796 
L 149.345946 82.461168 
L 149.650614 75.081072 
L 149.955283 84.950476 
L 150.259951 76.733086 
L 150.564619 77.16873 
L 150.869287 77.321195 
L 151.478624 82.574116 
L 151.783292 80.767201 
L 152.087961 77.301398 
L 152.392629 80.203373 
L 152.697297 77.096384 
L 153.001966 83.276058 
L 153.306634 83.658781 
L 153.611302 78.233814 
L 153.915971 76.227827 
L 154.220639 78.362728 
L 154.525307 78.854117 
L 154.829975 81.876627 
L 155.134644 73.722957 
L 155.439312 82.630885 
L 155.74398 74.969582 
L 156.048649 79.828548 
L 156.353317 75.656645 
L 156.657985 75.287917 
L 156.962654 76.395481 
L 157.267322 79.876877 
L 157.876658 79.840323 
L 158.181327 77.039273 
L 158.485995 78.76005 
L 158.790663 75.0176 
L 159.095332 76.167955 
L 159.4 74.962786 
L 159.704668 76.060638 
L 160.009337 73.589218 
L 160.314005 78.31865 
L 160.618673 72.99028 
L 160.923342 77.962132 
L 161.22801 75.618757 
L 161.532678 77.147862 
L 161.837346 76.438225 
L 162.446683 79.894657 
L 162.751351 77.548566 
L 163.05602 72.021496 
L 163.360688 71.926405 
L 163.665356 74.722289 
L 163.970025 74.893543 
L 164.274693 79.104652 
L 164.579361 74.879766 
L 164.884029 78.579875 
L 165.188698 78.722581 
L 165.493366 78.082683 
L 165.798034 75.745344 
L 166.407371 78.824483 
L 166.712039 81.928447 
L 167.016708 77.05966 
L 167.321376 76.58934 
L 167.626044 79.58321 
L 167.930713 76.154643 
L 168.235381 71.002569 
L 168.540049 75.903999 
L 168.844717 71.628348 
L 169.454054 77.396784 
L 169.758722 76.891897 
L 170.063391 78.702412 
L 170.368059 74.518594 
L 170.672727 75.021867 
L 170.977396 81.654236 
L 171.282064 75.457573 
L 171.586732 79.143796 
L 171.8914 72.969428 
L 172.196069 76.651881 
L 173.110074 78.656938 
L 173.414742 75.842886 
L 173.71941 74.310662 
L 174.024079 77.549994 
L 174.328747 78.26109 
L 174.633415 76.846407 
L 174.938084 70.768914 
L 175.242752 76.443221 
L 175.54742 76.290911 
L 175.852088 73.716347 
L 176.156757 76.152083 
L 176.461425 72.62512 
L 176.766093 74.692345 
L 177.070762 74.968775 
L 177.37543 74.000364 
L 177.680098 69.771366 
L 177.984767 77.952498 
L 178.289435 74.399439 
L 178.594103 74.710296 
L 178.898771 75.20215 
L 179.20344 73.066086 
L 179.508108 74.419065 
L 180.117445 79.877776 
L 180.422113 79.676532 
L 181.03145 69.334605 
L 181.336118 75.881223 
L 181.640786 74.190763 
L 181.945455 71.176848 
L 182.250123 72.700445 
L 182.554791 75.261417 
L 182.859459 71.306243 
L 183.164128 79.470773 
L 183.773464 70.486496 
L 184.078133 79.404323 
L 184.382801 72.843881 
L 184.687469 72.134864 
L 184.992138 74.060981 
L 185.296806 72.312526 
L 185.601474 73.726665 
L 185.906143 73.280269 
L 186.210811 73.670392 
L 186.515479 68.639257 
L 186.820147 76.600015 
L 187.124816 75.304146 
L 187.429484 72.51861 
L 187.734152 71.263018 
L 188.038821 75.929568 
L 188.343489 70.610196 
L 188.648157 75.393651 
L 188.952826 74.477929 
L 189.257494 76.695525 
L 189.562162 73.28525 
L 189.86683 74.555271 
L 190.171499 74.273582 
L 190.780835 76.484568 
L 191.085504 71.057554 
L 191.390172 76.595546 
L 191.69484 70.396664 
L 191.999509 75.164682 
L 192.304177 77.205655 
L 192.913514 68.428145 
L 193.218182 73.273195 
L 193.52285 75.691491 
L 193.827518 73.651821 
L 194.132187 73.398912 
L 194.436855 75.337332 
L 194.741523 70.34019 
L 195.046192 72.937219 
L 195.655528 75.063245 
L 195.960197 74.432548 
L 196.264865 76.87241 
L 196.569533 72.446342 
L 196.874201 77.196191 
L 197.17887 74.90597 
L 197.483538 70.786648 
L 197.788206 76.840946 
L 198.092875 71.068631 
L 198.397543 74.670873 
L 198.702211 74.780439 
L 199.00688 77.346298 
L 199.311548 70.653529 
L 199.616216 72.434938 
L 199.920885 76.205935 
L 200.225553 72.644778 
L 200.530221 71.616526 
L 200.834889 77.9967 
L 201.139558 72.839925 
L 201.748894 79.405952 
L 202.358231 71.286942 
L 202.967568 78.515348 
L 203.272236 73.929724 
L 203.576904 72.765562 
L 203.881572 66.468811 
L 204.186241 73.750263 
L 204.490909 73.786165 
L 204.795577 68.66045 
L 205.100246 74.318296 
L 205.404914 72.526135 
L 205.709582 73.205131 
L 206.014251 71.443224 
L 206.318919 72.400573 
L 206.623587 72.588877 
L 206.928256 72.480226 
L 207.232924 69.197562 
L 207.537592 70.072526 
L 207.84226 73.603663 
L 208.146929 71.248884 
L 208.451597 74.279555 
L 208.756265 69.218802 
L 209.060934 70.475589 
L 209.365602 68.429433 
L 209.67027 69.916741 
L 209.974939 72.18656 
L 210.279607 73.138913 
L 210.584275 65.214941 
L 210.888943 73.390006 
L 211.193612 69.682946 
L 211.49828 73.7666 
L 211.802948 70.333999 
L 212.107617 69.466063 
L 212.412285 74.890378 
L 212.716953 69.049332 
L 213.021622 72.361087 
L 213.32629 69.162545 
L 213.630958 74.419267 
L 213.935627 70.329314 
L 214.240295 71.928562 
L 214.544963 69.381134 
L 214.849631 72.676521 
L 215.1543 74.025669 
L 215.458968 72.854338 
L 215.763636 72.610971 
L 216.068305 66.723179 
L 216.677641 73.417654 
L 216.98231 68.973914 
L 217.591646 67.17803 
L 217.896314 75.93444 
L 218.200983 67.206763 
L 218.505651 73.522628 
L 218.810319 69.361446 
L 219.114988 68.702201 
L 219.419656 78.289265 
L 219.724324 73.368999 
L 220.028993 74.328691 
L 220.333661 68.884486 
L 220.638329 71.673698 
L 220.942998 70.191076 
L 221.247666 72.004585 
L 221.552334 71.293862 
L 221.857002 73.556792 
L 222.161671 73.278764 
L 223.075676 68.343791 
L 223.685012 69.447151 
L 224.294349 74.104671 
L 224.599017 67.098578 
L 225.208354 70.128861 
L 225.513022 68.577151 
L 225.81769 63.579404 
L 226.122359 69.758209 
L 226.427027 69.546508 
L 226.731695 71.27543 
L 227.036364 69.824908 
L 227.341032 70.95182 
L 227.6457 71.614866 
L 227.950369 74.696395 
L 228.255037 69.043576 
L 228.559705 69.679487 
L 228.864373 73.040315 
L 229.169042 72.086768 
L 229.47371 72.875004 
L 229.778378 68.145975 
L 230.387715 75.935417 
L 230.692383 77.458285 
L 230.997052 71.985393 
L 231.606388 67.241641 
L 231.911057 71.557135 
L 232.215725 70.905383 
L 232.520393 68.960571 
L 232.825061 78.375838 
L 233.12973 71.296235 
L 233.434398 69.924498 
L 233.739066 70.465054 
L 234.043735 71.823247 
L 234.348403 68.702139 
L 234.653071 71.653544 
L 234.95774 71.796716 
L 235.567076 66.40897 
L 236.176413 69.4842 
L 236.785749 74.099582 
L 237.090418 65.232147 
L 237.395086 72.206124 
L 237.699754 69.289395 
L 238.004423 72.138588 
L 238.309091 68.34362 
L 238.613759 69.666206 
L 238.918428 71.617472 
L 239.223096 70.767021 
L 239.527764 71.23537 
L 239.832432 66.476786 
L 240.137101 67.636186 
L 240.441769 69.366411 
L 240.746437 72.186079 
L 241.051106 69.384408 
L 241.355774 69.788789 
L 241.660442 72.562688 
L 241.965111 72.303294 
L 242.269779 71.08486 
L 242.879115 74.010355 
L 243.183784 69.75658 
L 243.488452 72.193123 
L 243.79312 68.863774 
L 244.097789 69.55667 
L 244.402457 69.440169 
L 244.707125 70.237714 
L 245.011794 70.15519 
L 245.316462 73.27712 
L 245.62113 69.940432 
L 245.925799 73.18448 
L 246.230467 68.874044 
L 246.535135 69.473216 
L 246.839803 65.920281 
L 247.144472 69.798269 
L 247.753808 69.808354 
L 248.058477 73.157376 
L 248.667813 67.966576 
L 248.972482 71.793784 
L 249.27715 70.576374 
L 249.886486 66.50327 
L 250.191155 70.426872 
L 250.495823 70.656089 
L 250.800491 66.227213 
L 251.409828 72.322998 
L 251.714496 70.725969 
L 252.019165 66.317556 
L 252.323833 69.244339 
L 252.628501 70.755323 
L 252.93317 69.308354 
L 253.237838 69.080983 
L 253.542506 67.975249 
L 253.847174 70.991057 
L 254.151843 66.697827 
L 254.456511 75.302175 
L 254.761179 70.812945 
L 255.065848 69.133004 
L 255.370516 73.026212 
L 255.675184 74.89466 
L 256.589189 66.826787 
L 256.893857 70.137332 
L 257.503194 74.963143 
L 258.112531 68.279373 
L 258.417199 66.682297 
L 258.721867 72.566319 
L 259.026536 68.139924 
L 259.331204 69.294344 
L 259.635872 72.342314 
L 259.940541 65.943584 
L 260.245209 65.495699 
L 260.549877 66.361091 
L 260.854545 68.032065 
L 261.159214 75.11837 
L 261.463882 67.983317 
L 262.073219 66.030313 
L 262.377887 69.811891 
L 262.682555 70.462603 
L 262.987224 69.540085 
L 263.291892 67.786463 
L 263.59656 71.666794 
L 263.901229 69.399008 
L 264.205897 74.493056 
L 264.815233 69.662653 
L 265.119902 70.32708 
L 265.42457 68.591921 
L 266.033907 68.95919 
L 266.338575 72.245144 
L 266.643243 68.77419 
L 266.947912 73.078948 
L 267.25258 71.12765 
L 267.861916 72.220569 
L 268.166585 73.967488 
L 268.471253 73.003824 
L 268.775921 67.083466 
L 269.08059 67.897271 
L 269.385258 64.483645 
L 269.689926 70.688841 
L 269.994595 67.470595 
L 270.299263 70.745983 
L 270.9086 67.152709 
L 271.213268 68.368801 
L 271.517936 66.932382 
L 271.822604 71.815303 
L 272.127273 68.446717 
L 272.736609 71.733726 
L 273.041278 69.870739 
L 273.650614 76.741852 
L 273.955283 70.255525 
L 274.259951 71.264678 
L 274.564619 67.122145 
L 274.869287 68.67536 
L 275.173956 73.379317 
L 275.478624 69.731803 
L 275.783292 64.231869 
L 276.087961 70.647215 
L 276.392629 71.612942 
L 276.697297 73.204572 
L 277.001966 71.924311 
L 277.306634 65.416108 
L 278.829975 72.994779 
L 279.134644 71.114044 
L 279.439312 66.192614 
L 279.74398 69.848786 
L 280.048649 67.051366 
L 280.353317 67.893284 
L 280.657985 65.799963 
L 280.962654 67.56128 
L 281.267322 68.283701 
L 281.57199 68.516736 
L 281.876658 67.307564 
L 282.181327 68.166765 
L 282.485995 71.00592 
L 282.790663 70.376464 
L 283.095332 67.458292 
L 283.4 69.536796 
L 283.704668 68.809409 
L 284.009337 70.986077 
L 284.314005 69.098623 
L 284.618673 70.549905 
L 284.923342 68.459703 
L 285.22801 69.506247 
L 285.532678 69.515059 
L 285.837346 72.548709 
L 286.142015 68.134743 
L 286.446683 72.388549 
L 286.751351 67.476428 
L 287.05602 68.570681 
L 287.360688 65.405914 
L 287.665356 65.832404 
L 287.970025 68.239391 
L 288.274693 69.52682 
L 288.579361 69.267612 
L 288.884029 74.243172 
L 289.188698 71.74215 
L 289.493366 71.583975 
L 289.798034 70.582254 
L 290.102703 68.489895 
L 290.407371 69.569253 
L 290.712039 73.014623 
L 291.016708 70.80494 
L 291.321376 66.773431 
L 291.626044 68.711215 
L 291.930713 68.771661 
L 292.235381 69.026773 
L 292.540049 65.630586 
L 292.844717 69.855581 
L 293.149386 72.13927 
L 293.454054 68.874851 
L 293.758722 70.991802 
L 294.368059 69.205521 
L 294.672727 70.652164 
L 294.977396 67.097988 
L 295.282064 68.289333 
L 295.586732 67.780583 
L 295.8914 66.251137 
L 296.196069 74.369169 
L 296.500737 67.9474 
L 296.805405 66.742479 
L 297.110074 70.659735 
L 297.71941 64.926658 
L 298.024079 66.960945 
L 298.328747 71.768789 
L 298.633415 70.946886 
L 298.938084 67.32747 
L 299.242752 72.876261 
L 299.852088 69.753663 
L 300.156757 68.794655 
L 300.461425 69.08362 
L 300.766093 69.007721 
L 301.070762 66.576656 
L 301.37543 68.707786 
L 301.680098 63.384924 
L 301.984767 65.245319 
L 302.289435 72.083634 
L 302.594103 66.090371 
L 302.898771 64.583096 
L 303.20344 65.296767 
L 303.508108 70.71967 
L 303.812776 67.550031 
L 304.117445 66.498429 
L 304.726781 73.589373 
L 305.03145 67.505798 
L 305.336118 68.692085 
L 305.640786 71.807251 
L 305.945455 68.484077 
L 306.250123 69.525935 
L 306.554791 68.512888 
L 306.859459 70.929292 
L 307.164128 67.839524 
L 307.468796 68.17595 
L 307.773464 68.819478 
L 308.078133 71.216473 
L 308.382801 67.757544 
L 308.687469 69.970454 
L 308.992138 73.803976 
L 309.296806 66.634681 
L 309.601474 69.775679 
L 309.906143 68.886301 
L 310.210811 70.294452 
L 310.515479 73.737448 
L 310.820147 71.619955 
L 311.124816 63.149857 
L 311.429484 69.983331 
L 311.734152 70.365107 
L 312.038821 67.167045 
L 312.343489 70.039262 
L 312.648157 70.522304 
L 312.952826 62.220684 
L 313.257494 69.42951 
L 313.562162 64.106446 
L 313.86683 70.371515 
L 314.476167 67.241036 
L 314.780835 70.176787 
L 315.085504 64.740014 
L 315.390172 67.377862 
L 315.69484 63.188381 
L 315.999509 71.692983 
L 316.304177 65.82097 
L 316.608845 68.505441 
L 316.913514 67.515402 
L 317.218182 72.586302 
L 317.52285 70.207506 
L 317.827518 70.188795 
L 318.132187 73.42538 
L 318.436855 63.132977 
L 318.741523 67.66509 
L 319.046192 70.194427 
L 319.35086 68.580859 
L 319.655528 68.387139 
L 319.960197 65.394061 
L 320.264865 69.218336 
L 320.569533 66.700294 
L 320.874201 67.626923 
L 321.17887 69.346614 
L 321.483538 67.358965 
L 321.788206 70.565513 
L 322.092875 70.585853 
L 322.397543 67.009398 
L 322.702211 69.568772 
L 323.00688 68.782553 
L 323.311548 68.893314 
L 323.616216 69.811658 
L 323.920885 66.407481 
L 324.225553 72.625958 
L 324.530221 72.470483 
L 324.834889 66.314577 
L 325.139558 68.022895 
L 325.444226 66.708238 
L 325.748894 63.828046 
L 326.053563 70.451292 
L 326.358231 69.155206 
L 326.662899 63.73356 
L 326.967568 67.216972 
L 327.272236 67.438774 
L 327.576904 68.388117 
L 327.881572 64.09211 
L 328.186241 67.978662 
L 328.490909 70.268014 
L 328.795577 69.400528 
L 329.100246 69.513725 
L 329.404914 68.040319 
L 329.709582 70.925305 
L 330.014251 69.105015 
L 330.318919 70.908005 
L 330.623587 68.067408 
L 330.928256 68.646177 
L 331.232924 65.54181 
L 331.537592 67.595723 
L 331.84226 66.160871 
L 332.146929 66.926378 
L 332.451597 66.806137 
L 332.756265 74.180942 
L 333.060934 66.465057 
L 333.365602 66.956446 
L 333.67027 71.744555 
L 333.974939 69.514206 
L 334.279607 74.358355 
L 334.888943 70.576467 
L 335.193612 66.343932 
L 335.49828 69.873935 
L 335.802948 68.774594 
L 336.107617 70.243315 
L 336.412285 69.165849 
L 336.716953 70.065172 
L 337.021622 65.561281 
L 337.32629 63.628121 
L 337.935627 69.714349 
L 338.240295 68.22113 
L 338.544963 70.717979 
L 338.849631 66.651375 
L 339.1543 67.114744 
L 339.763636 72.902481 
L 340.068305 66.203816 
L 340.677641 69.907959 
L 340.98231 64.811817 
L 341.286978 64.822863 
L 341.591646 72.026725 
L 341.896314 69.011739 
L 342.200983 70.926623 
L 342.505651 70.47638 
L 342.810319 65.35456 
L 343.114988 72.619876 
L 343.724324 64.728703 
L 344.028993 69.430581 
L 344.333661 67.386675 
L 344.638329 67.28817 
L 344.942998 65.36902 
L 345.247666 66.741921 
L 345.552334 72.495741 
L 345.857002 69.461145 
L 346.161671 67.811954 
L 346.466339 68.336468 
L 347.075676 73.367913 
L 347.685012 64.335182 
L 347.989681 64.492644 
L 348.294349 65.861402 
L 348.599017 64.892013 
L 348.903686 70.243547 
L 349.208354 65.542042 
L 349.513022 65.560272 
L 349.81769 70.295724 
L 350.122359 67.433483 
L 350.427027 69.830835 
L 350.731695 68.948345 
L 351.036364 71.75194 
L 351.341032 68.19944 
L 351.6457 71.790696 
L 351.950369 73.802936 
L 352.255037 64.62874 
L 352.559705 71.773133 
L 352.864373 68.584598 
L 353.169042 72.280161 
L 353.47371 70.176057 
L 353.778378 70.023872 
L 354.083047 66.180559 
L 354.387715 71.010993 
L 354.692383 67.275588 
L 354.997052 65.744978 
L 355.30172 65.21837 
L 355.606388 70.890706 
L 355.911057 69.6454 
L 356.520393 63.409158 
L 356.825061 65.085035 
L 357.12973 66.026015 
L 357.434398 75.628439 
L 358.043735 66.740617 
L 358.348403 69.293335 
L 358.653071 68.624875 
L 358.95774 62.869782 
L 359.262408 69.11766 
L 359.567076 67.616063 
L 359.871744 64.664782 
L 360.176413 71.816498 
L 360.481081 65.237934 
L 360.785749 68.244371 
L 361.090418 69.072232 
L 361.395086 66.826089 
L 361.699754 67.414183 
L 362.004423 67.578222 
L 362.309091 66.884006 
L 362.613759 66.851642 
L 362.918428 69.319276 
L 363.223096 69.323946 
L 363.527764 72.756268 
L 363.832432 67.633858 
L 364.137101 67.457237 
L 364.441769 70.287082 
L 364.746437 70.244044 
L 365.051106 68.965567 
L 365.355774 68.340036 
L 365.660442 66.316331 
L 365.965111 73.637857 
L 366.574447 67.984356 
L 366.879115 67.128196 
L 367.183784 65.815198 
L 367.488452 69.367466 
L 367.79312 65.427247 
L 368.097789 71.0969 
L 368.402457 68.762399 
L 368.707125 71.259232 
L 369.011794 65.183322 
L 369.316462 65.36148 
L 369.62113 70.852943 
L 369.925799 64.953902 
L 370.535135 72.689787 
L 370.839803 67.096297 
L 371.144472 68.467522 
L 371.44914 66.953855 
L 371.753808 67.1497 
L 372.058477 65.487337 
L 372.363145 66.451698 
L 372.667813 66.697688 
L 373.27715 70.314932 
L 373.581818 64.894697 
L 373.581818 64.894697 
" clip-path="url(#pb5f3197966)" style="fill: none; stroke: #1f77b4; stroke-width: 1.5; stroke-linecap: square"/>
   </g>
   <g id="line2d_17">
    <path d="M 69.218182 242.106525 
L 69.827518 190.340469 
L 70.132187 167.77861 
L 71.35086 143.073542 
L 71.655528 139.75209 
L 71.960197 132.060501 
L 72.264865 129.757721 
L 72.569533 128.654625 
L 72.874201 127.090293 
L 73.17887 127.306881 
L 73.483538 132.224703 
L 73.788206 125.359664 
L 74.092875 126.421747 
L 74.397543 121.667328 
L 75.00688 119.792682 
L 75.311548 119.64512 
L 75.616216 116.254735 
L 75.920885 118.997108 
L 76.225553 115.398831 
L 76.530221 118.119839 
L 76.834889 117.909325 
L 77.139558 121.669174 
L 77.444226 119.007821 
L 77.748894 120.80635 
L 78.053563 117.232129 
L 78.358231 110.049601 
L 78.662899 113.07087 
L 78.967568 113.385109 
L 79.272236 112.494598 
L 79.576904 114.069504 
L 79.881572 117.59289 
L 80.186241 117.087313 
L 80.490909 114.039203 
L 80.795577 114.252704 
L 81.100246 110.52051 
L 81.404914 113.643246 
L 81.709582 112.739378 
L 82.014251 110.693858 
L 82.318919 114.365373 
L 82.623587 113.482046 
L 82.928256 116.970183 
L 83.232924 110.476075 
L 83.537592 108.635477 
L 84.146929 113.526729 
L 84.451597 112.28434 
L 84.756265 107.652683 
L 85.060934 111.814284 
L 85.365602 113.219177 
L 85.67027 115.159009 
L 85.974939 108.878751 
L 86.279607 113.072793 
L 86.584275 105.091385 
L 86.888943 108.686614 
L 87.193612 107.179835 
L 87.49828 112.705958 
L 87.802948 107.697382 
L 88.107617 110.419166 
L 88.412285 109.027989 
L 88.716953 104.054585 
L 89.021622 111.037824 
L 89.32629 106.467063 
L 89.630958 110.035653 
L 89.935627 109.30493 
L 90.240295 107.461539 
L 90.544963 107.072192 
L 90.849631 109.754677 
L 91.1543 106.462843 
L 91.458968 110.838426 
L 91.763636 109.766981 
L 92.068305 112.970829 
L 92.372973 108.402566 
L 92.677641 113.888119 
L 92.98231 105.172963 
L 93.286978 105.65886 
L 93.591646 108.27792 
L 93.896314 108.282822 
L 94.505651 114.557852 
L 94.810319 109.241583 
L 95.114988 106.688818 
L 95.419656 108.108031 
L 95.724324 110.667576 
L 96.028993 109.824107 
L 96.333661 105.297098 
L 96.942998 108.313418 
L 97.247666 104.633462 
L 97.552334 110.115865 
L 97.857002 110.301951 
L 98.161671 104.449936 
L 98.466339 110.689824 
L 98.771007 110.427296 
L 99.075676 107.207513 
L 99.380344 107.515562 
L 99.685012 102.656845 
L 99.989681 104.837996 
L 100.294349 104.551388 
L 100.599017 104.103441 
L 100.903686 106.193039 
L 101.208354 106.256588 
L 101.81769 111.272053 
L 102.122359 104.214295 
L 102.427027 108.353229 
L 102.731695 101.180894 
L 103.036364 107.028425 
L 103.341032 106.327413 
L 103.6457 107.985075 
L 103.950369 104.352968 
L 104.255037 111.556224 
L 104.559705 103.596615 
L 104.864373 102.270662 
L 105.169042 103.202427 
L 105.47371 105.096893 
L 105.778378 105.294445 
L 106.083047 108.770379 
L 106.387715 105.785182 
L 106.692383 104.794197 
L 106.997052 108.373445 
L 107.30172 104.687904 
L 107.606388 102.976468 
L 107.911057 110.469884 
L 108.215725 103.695367 
L 108.520393 105.582604 
L 108.825061 103.932544 
L 109.12973 103.421079 
L 109.434398 103.295315 
L 109.739066 107.720344 
L 110.043735 104.869025 
L 110.348403 104.24126 
L 110.653071 102.715041 
L 110.95774 104.240345 
L 111.262408 103.457291 
L 111.567076 103.018916 
L 112.176413 109.074441 
L 112.481081 103.057999 
L 112.785749 102.510353 
L 113.090418 103.818075 
L 113.395086 110.548824 
L 114.004423 104.704179 
L 114.309091 106.449268 
L 114.613759 104.460704 
L 114.918428 103.308782 
L 115.223096 101.253519 
L 115.527764 101.509609 
L 115.832432 106.262592 
L 116.137101 100.80959 
L 116.441769 105.762996 
L 116.746437 106.456156 
L 117.051106 99.841303 
L 117.660442 101.424106 
L 117.965111 105.414732 
L 118.269779 105.889675 
L 118.574447 101.97169 
L 118.879115 100.37044 
L 119.183784 105.511297 
L 119.488452 101.639841 
L 119.79312 101.856709 
L 120.097789 107.157462 
L 120.402457 101.525946 
L 121.011794 102.789652 
L 121.316462 101.908513 
L 121.62113 103.872005 
L 121.925799 98.995988 
L 122.230467 104.473565 
L 122.535135 102.49023 
L 122.839803 102.299893 
L 123.144472 102.908233 
L 123.44914 101.081288 
L 123.753808 100.284813 
L 124.058477 106.419153 
L 124.363145 101.874396 
L 124.667813 100.149694 
L 124.972482 105.29626 
L 125.581818 100.937868 
L 125.886486 101.11888 
L 126.191155 100.507685 
L 126.495823 98.94243 
L 126.800491 101.177837 
L 127.10516 99.779151 
L 127.409828 104.292754 
L 127.714496 103.015193 
L 128.019165 98.339101 
L 128.323833 102.465002 
L 128.628501 101.503139 
L 128.93317 101.960457 
L 129.237838 100.256747 
L 129.542506 99.402991 
L 129.847174 99.917482 
L 130.151843 97.568211 
L 130.761179 100.369075 
L 131.065848 100.517584 
L 131.370516 101.183578 
L 131.675184 98.224803 
L 131.979853 100.517894 
L 132.284521 101.480844 
L 132.589189 103.327322 
L 132.893857 102.527326 
L 133.198526 100.81921 
L 133.503194 100.070568 
L 133.807862 100.389306 
L 134.112531 103.001881 
L 134.417199 99.588689 
L 134.721867 97.506911 
L 135.026536 103.403144 
L 135.331204 103.387675 
L 135.635872 98.965827 
L 135.940541 100.746227 
L 136.245209 101.261649 
L 136.549877 99.785558 
L 136.854545 99.473398 
L 137.159214 100.618136 
L 137.463882 103.347786 
L 137.76855 98.814184 
L 138.073219 106.295406 
L 138.377887 96.027749 
L 138.682555 103.237336 
L 138.987224 98.545419 
L 139.291892 98.671121 
L 139.59656 99.558125 
L 139.901229 98.488712 
L 140.205897 99.967704 
L 140.510565 98.955277 
L 140.815233 99.43624 
L 141.119902 102.877932 
L 141.42457 103.954265 
L 141.729238 102.500625 
L 142.033907 98.261744 
L 142.338575 100.989703 
L 142.643243 100.933911 
L 142.947912 100.442336 
L 143.25258 102.993581 
L 143.557248 103.000438 
L 143.861916 103.906029 
L 144.471253 99.256623 
L 144.775921 99.564471 
L 145.385258 100.993613 
L 145.689926 99.981031 
L 145.994595 101.586687 
L 146.299263 101.220752 
L 146.603931 99.324951 
L 146.9086 101.355514 
L 147.213268 102.161996 
L 147.517936 106.641979 
L 147.822604 102.248864 
L 148.127273 102.561878 
L 148.431941 97.820453 
L 148.736609 98.950622 
L 149.041278 98.192361 
L 149.345946 102.010399 
L 149.650614 96.394212 
L 149.955283 104.65464 
L 150.259951 97.419702 
L 150.564619 98.197807 
L 150.869287 97.624453 
L 151.478624 103.262268 
L 151.783292 101.075702 
L 152.087961 95.872801 
L 152.392629 100.673369 
L 152.697297 96.976952 
L 153.001966 101.768087 
L 153.306634 103.723915 
L 153.611302 97.921486 
L 153.915971 96.276081 
L 154.220639 99.116741 
L 154.525307 99.528693 
L 154.829975 102.600137 
L 155.134644 94.324117 
L 155.439312 102.175851 
L 155.74398 97.699204 
L 156.048649 97.482724 
L 156.353317 95.830104 
L 156.657985 96.955495 
L 156.962654 97.302192 
L 157.267322 100.458301 
L 157.57199 100.130533 
L 157.876658 99.135793 
L 158.181327 99.34948 
L 158.485995 100.178738 
L 159.095332 94.541977 
L 159.4 94.668905 
L 159.704668 95.237698 
L 160.009337 94.983082 
L 160.314005 98.203361 
L 160.618673 96.433852 
L 160.923342 97.330181 
L 161.22801 96.203611 
L 161.532678 98.38726 
L 161.837346 96.14678 
L 162.446683 100.390361 
L 162.751351 97.748091 
L 163.05602 93.813474 
L 163.360688 93.192457 
L 163.665356 95.419362 
L 163.970025 94.522925 
L 164.274693 98.475555 
L 164.579361 96.711337 
L 164.884029 99.66977 
L 165.188698 99.143519 
L 165.493366 96.033986 
L 165.798034 96.150503 
L 166.102703 98.194145 
L 166.407371 98.055783 
L 166.712039 99.915946 
L 167.016708 97.802331 
L 167.321376 98.199901 
L 167.626044 100.276901 
L 168.235381 92.474659 
L 168.540049 98.003855 
L 168.844717 91.042817 
L 169.149386 92.184964 
L 169.454054 97.214765 
L 169.758722 98.632768 
L 170.063391 99.139827 
L 170.368059 93.06719 
L 170.672727 96.086923 
L 170.977396 100.383271 
L 171.282064 95.290991 
L 171.586732 98.436427 
L 171.8914 93.700851 
L 172.500737 99.278732 
L 172.805405 98.996205 
L 173.110074 98.046195 
L 173.414742 94.817274 
L 173.71941 95.416756 
L 174.024079 97.215169 
L 174.328747 97.666932 
L 174.633415 97.030991 
L 174.938084 92.419348 
L 175.242752 97.811097 
L 175.54742 97.497168 
L 175.852088 95.039743 
L 176.156757 99.509253 
L 176.461425 93.453139 
L 176.766093 96.502614 
L 177.070762 95.108505 
L 177.37543 95.842439 
L 177.680098 93.357614 
L 177.984767 96.321617 
L 178.289435 94.644391 
L 178.594103 93.610693 
L 178.898771 95.977294 
L 179.20344 93.450859 
L 179.508108 93.52893 
L 180.117445 98.957263 
L 180.422113 99.128501 
L 181.03145 89.028933 
L 181.336118 98.925566 
L 181.945455 92.672955 
L 182.250123 92.940417 
L 182.554791 94.150411 
L 182.859459 88.90292 
L 183.164128 99.559909 
L 183.773464 91.329952 
L 184.078133 98.46184 
L 184.382801 93.058269 
L 184.687469 92.899877 
L 184.992138 93.180263 
L 185.296806 93.838623 
L 185.601474 93.343232 
L 185.906143 94.078919 
L 186.210811 94.150179 
L 186.515479 88.608494 
L 186.820147 96.669028 
L 187.124816 95.148161 
L 187.429484 92.078594 
L 188.038821 94.775632 
L 188.343489 91.921288 
L 188.648157 97.100529 
L 188.952826 95.244633 
L 189.257494 94.230499 
L 189.562162 92.52274 
L 189.86683 95.3286 
L 190.171499 93.965225 
L 190.476167 97.278408 
L 190.780835 97.033535 
L 191.085504 92.981299 
L 191.390172 95.930486 
L 191.69484 90.847996 
L 192.304177 99.257771 
L 192.608845 93.18906 
L 192.913514 91.474489 
L 193.218182 93.619832 
L 193.52285 96.928189 
L 193.827518 93.15066 
L 194.132187 93.148007 
L 194.436855 95.017944 
L 194.741523 91.197718 
L 195.046192 94.411031 
L 195.35086 91.794593 
L 195.655528 96.209786 
L 195.960197 94.317786 
L 196.264865 93.869917 
L 196.569533 93.696165 
L 196.874201 99.606221 
L 197.17887 94.006495 
L 197.483538 91.805702 
L 197.788206 95.879814 
L 198.092875 91.405774 
L 198.397543 94.235759 
L 198.702211 94.678912 
L 199.00688 96.912612 
L 199.311548 92.34137 
L 199.616216 93.718367 
L 199.920885 96.648082 
L 200.225553 91.610912 
L 200.530221 93.092805 
L 200.834889 96.381862 
L 201.139558 93.029783 
L 201.444226 97.15826 
L 201.748894 99.614941 
L 202.358231 92.907681 
L 202.662899 93.79754 
L 202.967568 96.113997 
L 203.272236 95.190718 
L 203.881572 87.840411 
L 204.186241 95.139876 
L 204.795577 88.634559 
L 205.100246 94.184699 
L 205.404914 93.243626 
L 205.709582 91.57062 
L 206.014251 90.932754 
L 206.318919 92.532437 
L 206.623587 93.123416 
L 206.928256 93.214256 
L 207.232924 90.432863 
L 207.537592 92.319293 
L 207.84226 93.185212 
L 208.146929 93.056081 
L 208.451597 95.42473 
L 208.756265 90.572203 
L 209.060934 91.012765 
L 209.365602 88.968331 
L 209.67027 89.626537 
L 209.974939 90.714258 
L 210.279607 92.608119 
L 210.584275 86.575898 
L 210.888943 92.918153 
L 211.193612 90.407295 
L 211.49828 93.757946 
L 212.107617 89.379772 
L 212.412285 94.018472 
L 212.716953 89.118066 
L 213.021622 93.071255 
L 213.32629 90.587888 
L 213.630958 92.58618 
L 213.935627 89.628786 
L 214.240295 91.180574 
L 214.544963 87.574175 
L 214.849631 92.899644 
L 215.1543 94.518596 
L 215.458968 91.943071 
L 215.763636 93.118032 
L 216.068305 89.31433 
L 216.372973 89.936323 
L 216.677641 94.267177 
L 216.98231 90.411173 
L 217.591646 87.831925 
L 217.896314 94.181767 
L 218.200983 88.608369 
L 218.505651 91.553817 
L 218.810319 87.814145 
L 219.114988 88.942328 
L 219.419656 98.11173 
L 219.724324 93.981702 
L 220.028993 92.5839 
L 220.333661 89.529832 
L 220.638329 92.074514 
L 220.942998 87.673316 
L 221.247666 92.528124 
L 221.552334 89.314066 
L 221.857002 93.608289 
L 222.161671 91.536626 
L 222.466339 92.012361 
L 222.771007 88.354654 
L 223.075676 89.406504 
L 223.380344 88.235034 
L 223.685012 90.558348 
L 223.989681 90.434353 
L 224.294349 93.879521 
L 224.599017 87.747399 
L 224.903686 85.824401 
L 225.208354 89.834545 
L 225.513022 89.364381 
L 225.81769 86.530439 
L 226.122359 91.335413 
L 226.427027 90.350355 
L 226.731695 92.394168 
L 227.036364 88.893456 
L 227.341032 91.32086 
L 227.6457 91.354993 
L 227.950369 95.458258 
L 228.255037 88.099387 
L 228.559705 89.502107 
L 228.864373 92.869592 
L 229.47371 91.454165 
L 229.778378 87.53846 
L 230.083047 87.933206 
L 230.387715 93.954225 
L 230.692383 94.010312 
L 231.30172 90.149095 
L 231.606388 88.346074 
L 231.911057 90.834126 
L 232.215725 91.090976 
L 232.520393 88.833848 
L 232.825061 97.018812 
L 233.12973 89.951357 
L 233.434398 90.535882 
L 233.739066 90.586352 
L 234.043735 88.508593 
L 234.348403 90.325934 
L 234.653071 91.461519 
L 234.95774 91.276705 
L 235.567076 86.901075 
L 235.871744 87.958744 
L 236.176413 88.450226 
L 236.481081 89.677317 
L 236.785749 93.376449 
L 237.090418 84.185342 
L 237.395086 88.640113 
L 237.699754 88.111054 
L 238.004423 89.59875 
L 238.309091 86.830451 
L 238.613759 88.568698 
L 238.918428 89.610975 
L 239.223096 89.023968 
L 239.527764 90.118546 
L 239.832432 85.54732 
L 240.137101 86.856563 
L 240.746437 91.346817 
L 241.051106 87.035311 
L 241.355774 88.583328 
L 241.660442 91.067827 
L 241.965111 90.948688 
L 242.269779 91.636775 
L 242.574447 87.90967 
L 242.879115 91.413934 
L 243.183784 88.369533 
L 243.488452 91.079944 
L 243.79312 87.979099 
L 244.402457 89.2815 
L 244.707125 88.030531 
L 245.011794 87.854716 
L 245.316462 93.073039 
L 245.62113 85.621326 
L 245.925799 91.225738 
L 246.230467 88.108804 
L 246.535135 88.494319 
L 246.839803 86.430709 
L 247.144472 85.604431 
L 247.44914 88.858905 
L 247.753808 86.012892 
L 248.058477 91.11355 
L 248.363145 87.128478 
L 248.667813 87.488393 
L 248.972482 89.071444 
L 249.27715 87.715221 
L 249.581818 87.418778 
L 249.886486 84.1547 
L 250.191155 88.47747 
L 250.495823 89.935656 
L 250.800491 84.367704 
L 251.10516 86.495546 
L 251.409828 91.716894 
L 252.019165 87.439288 
L 252.323833 88.978292 
L 252.93317 85.577186 
L 253.237838 87.376794 
L 253.542506 85.182595 
L 253.847174 88.727571 
L 254.151843 84.153117 
L 254.456511 90.506497 
L 255.065848 85.476448 
L 255.370516 92.317058 
L 255.675184 90.903214 
L 255.979853 88.352839 
L 256.284521 88.815711 
L 256.589189 85.046312 
L 256.893857 88.37895 
L 257.198526 90.01939 
L 257.503194 92.413406 
L 257.807862 88.050654 
L 258.112531 87.419693 
L 258.417199 85.102523 
L 258.721867 89.20889 
L 259.026536 87.320909 
L 259.331204 86.333772 
L 259.635872 89.415115 
L 259.940541 85.225044 
L 260.245209 83.515205 
L 260.854545 85.008192 
L 261.159214 90.762556 
L 261.463882 84.983849 
L 261.76855 84.704565 
L 262.377887 86.757904 
L 262.682555 88.977268 
L 262.987224 85.945604 
L 263.291892 84.840615 
L 263.59656 87.501488 
L 263.901229 85.053883 
L 264.205897 91.320798 
L 264.510565 89.768716 
L 264.815233 86.289291 
L 265.119902 85.579172 
L 265.42457 85.626477 
L 265.729238 85.273699 
L 266.033907 87.483878 
L 266.338575 87.609844 
L 266.643243 86.19558 
L 266.947912 89.394635 
L 267.25258 88.017002 
L 267.557248 88.933268 
L 267.861916 88.299281 
L 268.166585 89.975514 
L 268.471253 89.41437 
L 268.775921 84.630993 
L 269.08059 84.252909 
L 269.385258 84.815015 
L 269.689926 88.330342 
L 269.994595 85.676513 
L 270.299263 85.656995 
L 270.603931 84.999038 
L 270.9086 84.656003 
L 271.213268 85.225416 
L 271.517936 84.908757 
L 271.822604 88.517452 
L 272.127273 84.751978 
L 272.431941 85.557622 
L 272.736609 88.375258 
L 273.041278 86.275746 
L 273.345946 88.173765 
L 273.650614 91.881973 
L 273.955283 85.926133 
L 274.259951 88.737267 
L 274.564619 84.727651 
L 274.869287 85.655537 
L 275.173956 88.926286 
L 275.478624 84.228396 
L 275.783292 81.835652 
L 276.087961 85.805721 
L 276.392629 87.368478 
L 276.697297 87.46706 
L 277.001966 89.651361 
L 277.306634 83.291216 
L 277.915971 85.743537 
L 278.220639 87.633535 
L 278.525307 86.088295 
L 278.829975 89.458774 
L 279.134644 88.692522 
L 279.439312 82.839003 
L 279.74398 87.234103 
L 280.048649 83.463324 
L 280.353317 85.578443 
L 280.657985 83.886043 
L 280.962654 83.58178 
L 281.267322 84.445233 
L 281.57199 85.650075 
L 281.876658 81.630715 
L 282.181327 83.469933 
L 282.485995 86.384568 
L 282.790663 86.568451 
L 283.095332 82.688477 
L 283.4 86.27331 
L 283.704668 84.149658 
L 284.314005 86.031572 
L 284.618673 88.035015 
L 284.923342 85.498402 
L 285.22801 84.36651 
L 285.532678 85.003118 
L 285.837346 86.792766 
L 286.142015 85.076551 
L 286.446683 86.201988 
L 286.751351 85.032721 
L 287.05602 84.967077 
L 287.360688 80.385115 
L 287.665356 82.785523 
L 287.970025 83.042435 
L 288.274693 83.613958 
L 288.579361 84.43597 
L 288.884029 89.162175 
L 289.188698 86.881775 
L 289.493366 86.281285 
L 289.798034 83.771186 
L 290.102703 87.100985 
L 290.407371 86.296396 
L 290.712039 86.686395 
L 291.016708 85.772364 
L 291.321376 83.17307 
L 291.626044 86.104011 
L 291.930713 86.249666 
L 292.235381 84.081128 
L 292.540049 82.936343 
L 292.844717 85.697412 
L 293.149386 86.543875 
L 293.454054 84.182704 
L 293.758722 86.418794 
L 294.063391 85.375492 
L 294.368059 84.93054 
L 294.672727 85.699661 
L 294.977396 82.527277 
L 295.282064 84.808127 
L 295.586732 84.564791 
L 295.8914 82.373338 
L 296.196069 88.349146 
L 296.500737 83.865222 
L 296.805405 81.938501 
L 297.110074 87.329303 
L 297.414742 79.947609 
L 297.71941 80.507745 
L 298.024079 82.598676 
L 298.328747 87.84308 
L 298.938084 82.418145 
L 299.242752 86.425496 
L 299.54742 86.610527 
L 299.852088 84.898703 
L 300.156757 85.191718 
L 300.461425 84.271869 
L 300.766093 85.168213 
L 301.070762 82.428183 
L 301.37543 85.880255 
L 301.680098 79.806113 
L 301.984767 81.728832 
L 302.289435 87.159958 
L 302.594103 82.099778 
L 302.898771 81.03412 
L 303.20344 79.431536 
L 303.508108 86.064417 
L 303.812776 83.852779 
L 304.117445 82.510707 
L 304.422113 84.785661 
L 304.726781 88.983396 
L 305.03145 83.783117 
L 305.336118 82.481275 
L 305.640786 87.320304 
L 305.945455 83.365859 
L 306.250123 85.940468 
L 306.554791 84.703975 
L 306.859459 86.008563 
L 307.164128 83.083115 
L 307.468796 83.267463 
L 307.773464 82.998232 
L 308.078133 87.83644 
L 308.382801 83.298927 
L 308.687469 84.091864 
L 308.992138 86.527414 
L 309.296806 81.057951 
L 309.601474 85.542107 
L 309.906143 84.676203 
L 310.210811 83.462625 
L 310.515479 88.637987 
L 310.820147 86.852855 
L 311.124816 78.209983 
L 311.429484 85.376097 
L 311.734152 85.179011 
L 312.038821 82.303691 
L 312.343489 82.997752 
L 312.648157 86.32662 
L 312.952826 80.655245 
L 313.257494 83.969436 
L 313.562162 79.706988 
L 313.86683 84.771543 
L 314.171499 83.935722 
L 314.476167 82.165841 
L 314.780835 86.334532 
L 315.085504 81.035857 
L 315.390172 83.646307 
L 315.69484 80.421187 
L 315.999509 87.13186 
L 316.304177 81.206848 
L 316.608845 85.003413 
L 316.913514 83.195117 
L 317.218182 86.088884 
L 317.52285 84.430679 
L 318.132187 86.356284 
L 318.436855 78.686385 
L 318.741523 83.77882 
L 319.046192 82.760792 
L 319.35086 83.185886 
L 319.655528 82.871848 
L 319.960197 80.738933 
L 320.264865 84.921572 
L 320.874201 81.933272 
L 321.17887 85.657724 
L 321.483538 83.475844 
L 321.788206 85.622211 
L 322.092875 85.643264 
L 322.397543 80.733378 
L 322.702211 83.624167 
L 323.00688 80.924165 
L 323.616216 84.217846 
L 323.920885 81.630126 
L 324.225553 86.851257 
L 324.530221 87.053199 
L 324.834889 81.771172 
L 325.139558 81.936934 
L 325.444226 81.027014 
L 325.748894 78.522718 
L 326.053563 83.42632 
L 326.358231 83.549711 
L 326.662899 76.911616 
L 326.967568 81.706552 
L 327.272236 82.286547 
L 327.576904 84.43839 
L 327.881572 78.091992 
L 328.490909 83.627208 
L 328.795577 82.118226 
L 329.100246 84.606976 
L 329.404914 80.785741 
L 329.709582 83.62246 
L 330.014251 84.18227 
L 330.318919 85.22461 
L 330.623587 81.489002 
L 330.928256 81.541815 
L 331.232924 79.643982 
L 331.537592 81.705653 
L 331.84226 80.529947 
L 332.146929 81.399729 
L 332.451597 80.862664 
L 332.756265 85.444735 
L 333.060934 79.951674 
L 333.365602 81.034508 
L 333.67027 83.287167 
L 333.974939 82.640691 
L 334.279607 84.017594 
L 334.584275 84.826683 
L 334.888943 83.82628 
L 335.193612 81.167533 
L 335.49828 82.606449 
L 335.802948 82.531124 
L 336.107617 84.344261 
L 336.412285 82.522359 
L 336.716953 83.084371 
L 337.021622 80.21307 
L 337.32629 79.328951 
L 337.935627 80.968911 
L 338.240295 79.392438 
L 338.544963 83.902117 
L 338.849631 80.07809 
L 339.1543 80.296214 
L 339.458968 83.881653 
L 339.763636 84.620877 
L 340.068305 80.303537 
L 340.372973 82.886292 
L 340.677641 83.542589 
L 340.98231 79.300171 
L 341.286978 78.342497 
L 341.591646 85.277019 
L 341.896314 84.130481 
L 342.200983 86.413782 
L 342.505651 84.305412 
L 342.810319 80.164725 
L 343.114988 84.538384 
L 343.724324 80.276836 
L 344.028993 82.644632 
L 344.333661 79.845769 
L 344.638329 81.094597 
L 344.942998 77.669862 
L 345.247666 79.783616 
L 345.552334 82.68556 
L 345.857002 83.283955 
L 346.161671 83.047849 
L 346.466339 83.130389 
L 346.771007 83.823332 
L 347.075676 86.370046 
L 347.380344 81.202426 
L 347.685012 78.203995 
L 347.989681 79.35196 
L 348.599017 78.146077 
L 348.903686 83.051681 
L 349.208354 77.977461 
L 349.513022 81.879389 
L 349.81769 83.060277 
L 350.122359 82.241631 
L 350.427027 82.791744 
L 350.731695 80.179247 
L 351.036364 85.80417 
L 351.341032 81.974433 
L 351.6457 83.668989 
L 351.950369 86.259983 
L 352.255037 78.645751 
L 352.559705 84.717225 
L 352.864373 80.0225 
L 353.169042 83.361949 
L 353.47371 80.723511 
L 353.778378 83.192976 
L 354.083047 79.157837 
L 354.387715 83.723369 
L 354.692383 79.518994 
L 355.30172 80.657138 
L 355.606388 83.269728 
L 355.911057 81.707189 
L 356.520393 77.000579 
L 356.825061 77.146311 
L 357.12973 79.686012 
L 357.434398 86.987276 
L 357.739066 82.961167 
L 358.043735 80.810146 
L 358.348403 83.530177 
L 358.95774 76.807496 
L 359.262408 80.664368 
L 359.567076 81.270676 
L 359.871744 77.77752 
L 360.176413 85.401945 
L 360.481081 78.718097 
L 360.785749 79.965312 
L 361.090418 82.169456 
L 361.395086 79.633013 
L 361.699754 80.66758 
L 362.004423 79.260639 
L 362.309091 81.159636 
L 362.613759 78.058092 
L 362.918428 81.631445 
L 363.223096 82.057205 
L 363.527764 83.827599 
L 363.832432 79.917712 
L 364.137101 77.658722 
L 364.746437 82.63073 
L 365.051106 81.682365 
L 365.355774 81.810642 
L 365.660442 77.313655 
L 365.965111 83.309462 
L 366.269779 80.938439 
L 366.574447 80.64606 
L 366.879115 79.894021 
L 367.183784 79.804748 
L 367.488452 80.875278 
L 367.79312 79.392625 
L 368.707125 82.313465 
L 369.011794 78.55021 
L 369.316462 77.461931 
L 369.62113 84.520806 
L 369.925799 78.09328 
L 370.535135 84.907391 
L 370.839803 80.913848 
L 371.44914 79.27603 
L 371.753808 79.679775 
L 372.058477 76.971752 
L 372.363145 80.385875 
L 372.667813 79.109772 
L 372.972482 80.370794 
L 373.27715 80.822248 
L 373.581818 77.900554 
L 373.581818 77.900554 
" clip-path="url(#pb5f3197966)" style="fill: none; stroke: #ff7f0e; stroke-width: 1.5; stroke-linecap: square"/>
   </g>
   <g id="line2d_18">
    <path d="M 69.218182 242.116364 
L 69.827518 190.12207 
L 70.132187 167.285647 
L 71.046192 147.398981 
L 71.655528 139.389142 
L 71.960197 131.789083 
L 72.569533 128.12019 
L 72.874201 127.079836 
L 73.17887 127.112371 
L 73.483538 131.869807 
L 73.788206 125.793198 
L 74.092875 126.48165 
L 74.397543 121.703462 
L 75.00688 119.808678 
L 75.311548 119.335139 
L 75.616216 116.430907 
L 75.920885 119.290681 
L 76.225553 115.171219 
L 76.530221 118.035787 
L 76.834889 118.069648 
L 77.139558 122.130806 
L 77.444226 119.190238 
L 77.748894 121.23343 
L 78.053563 117.607823 
L 78.358231 110.587984 
L 78.662899 113.290654 
L 78.967568 114.536751 
L 79.272236 112.770113 
L 79.576904 114.525875 
L 79.881572 117.974045 
L 80.186241 117.841928 
L 80.490909 114.736188 
L 80.795577 115.016201 
L 81.100246 111.779252 
L 81.404914 115.075073 
L 82.014251 112.481256 
L 82.318919 116.002594 
L 82.623587 114.719564 
L 82.928256 118.369622 
L 83.232924 111.625049 
L 83.537592 110.181726 
L 84.146929 115.420893 
L 84.451597 114.485226 
L 84.756265 109.144118 
L 85.060934 113.600596 
L 85.67027 117.269792 
L 85.974939 110.698807 
L 86.279607 115.169047 
L 86.584275 107.151706 
L 86.888943 111.214399 
L 87.193612 109.577667 
L 87.49828 114.775821 
L 87.802948 109.959474 
L 88.107617 112.743737 
L 88.412285 111.978525 
L 88.716953 106.861049 
L 89.021622 113.978462 
L 89.32629 108.998976 
L 89.630958 112.232427 
L 89.935627 111.300182 
L 90.240295 109.540183 
L 90.544963 109.436233 
L 90.849631 112.982822 
L 91.1543 109.048174 
L 91.458968 113.75244 
L 91.763636 112.778816 
L 92.068305 115.903818 
L 92.372973 111.613335 
L 92.677641 117.055197 
L 92.98231 108.976681 
L 93.286978 108.809073 
L 93.591646 111.952181 
L 93.896314 111.825362 
L 94.200983 113.932553 
L 94.505651 117.813062 
L 94.810319 112.196603 
L 95.114988 110.149579 
L 95.724324 114.018832 
L 96.028993 113.750067 
L 96.333661 108.954898 
L 96.942998 112.003784 
L 97.247666 108.507013 
L 97.552334 113.873597 
L 97.857002 114.121727 
L 98.161671 108.421976 
L 98.466339 114.75351 
L 98.771007 114.670172 
L 99.075676 111.376251 
L 99.380344 111.915178 
L 99.685012 106.985588 
L 99.989681 108.986673 
L 100.294349 109.507261 
L 100.599017 108.827381 
L 100.903686 111.361512 
L 101.208354 111.025024 
L 101.81769 116.421257 
L 102.122359 109.422968 
L 102.427027 113.070497 
L 102.731695 106.30096 
L 103.036364 112.079915 
L 103.341032 111.748051 
L 103.6457 112.805595 
L 103.950369 109.850466 
L 104.255037 117.252811 
L 104.559705 109.048251 
L 104.864373 107.266594 
L 105.47371 110.210614 
L 105.778378 110.677629 
L 106.083047 114.4766 
L 106.387715 111.641681 
L 106.692383 110.052052 
L 106.997052 114.130322 
L 107.30172 109.844074 
L 107.606388 108.517749 
L 107.911057 116.325848 
L 108.215725 109.297918 
L 108.520393 110.633241 
L 108.825061 109.778989 
L 109.12973 109.264638 
L 109.434398 109.527725 
L 109.739066 114.043609 
L 110.043735 111.557993 
L 110.653071 109.060632 
L 110.95774 110.313556 
L 111.262408 109.776305 
L 111.567076 109.583579 
L 112.176413 115.341557 
L 112.481081 109.792782 
L 112.785749 109.047351 
L 113.090418 110.134188 
L 113.395086 117.350562 
L 113.699754 113.623465 
L 114.004423 111.606058 
L 114.309091 113.23013 
L 114.918428 110.40255 
L 115.223096 108.859714 
L 115.527764 109.132342 
L 115.832432 112.577588 
L 116.137101 108.147036 
L 116.441769 113.102117 
L 116.746437 113.892401 
L 117.051106 107.605937 
L 117.660442 108.886012 
L 117.965111 113.179117 
L 118.269779 113.506187 
L 118.574447 109.225959 
L 118.879115 108.255004 
L 119.183784 112.713018 
L 119.488452 110.080568 
L 119.79312 109.631737 
L 120.097789 115.394176 
L 120.402457 109.712585 
L 120.707125 110.567039 
L 121.011794 110.519703 
L 121.316462 110.244096 
L 121.62113 112.32516 
L 121.925799 107.522606 
L 122.230467 112.750983 
L 122.535135 110.968519 
L 122.839803 110.456526 
L 123.144472 111.255886 
L 123.44914 109.590172 
L 123.753808 108.616688 
L 124.058477 115.125372 
L 124.363145 111.013853 
L 124.667813 108.940283 
L 124.972482 113.535681 
L 125.581818 109.823579 
L 125.886486 110.006422 
L 126.191155 109.180144 
L 126.495823 107.541581 
L 126.800491 109.343578 
L 127.10516 109.266562 
L 127.409828 113.289165 
L 127.714496 111.422703 
L 128.019165 107.350359 
L 128.323833 112.100519 
L 128.628501 110.480295 
L 128.93317 110.772286 
L 129.237838 109.303596 
L 129.542506 108.816691 
L 129.847174 109.700421 
L 130.151843 107.21434 
L 130.456511 108.311587 
L 130.761179 109.890355 
L 131.065848 109.954463 
L 131.370516 110.863591 
L 131.675184 108.376532 
L 131.979853 110.23744 
L 132.284521 111.251775 
L 132.589189 113.368694 
L 132.893857 112.418017 
L 133.198526 110.40632 
L 133.503194 110.053759 
L 133.807862 110.201585 
L 134.112531 113.036349 
L 134.417199 109.105765 
L 134.721867 107.321253 
L 135.026536 112.519407 
L 135.331204 113.495777 
L 135.635872 109.201601 
L 135.940541 110.73325 
L 136.245209 111.389951 
L 136.549877 110.167964 
L 136.854545 109.797669 
L 137.159214 110.82921 
L 137.463882 113.425913 
L 137.76855 108.870155 
L 138.073219 116.13475 
L 138.377887 106.325846 
L 138.682555 113.501471 
L 138.987224 109.209839 
L 139.291892 109.046824 
L 139.59656 110.149393 
L 139.901229 109.507369 
L 140.205897 110.398097 
L 140.510565 109.525444 
L 140.815233 109.333571 
L 141.119902 112.987539 
L 141.42457 114.047348 
L 141.729238 113.049443 
L 142.033907 108.870249 
L 142.338575 112.062616 
L 142.643243 111.324354 
L 142.947912 111.093461 
L 143.25258 113.813647 
L 143.557248 113.882471 
L 143.861916 113.647978 
L 144.166585 112.484002 
L 144.471253 110.297234 
L 144.775921 110.918313 
L 145.08059 111.922408 
L 145.385258 112.253248 
L 145.689926 110.427187 
L 145.994595 112.855305 
L 146.299263 112.498912 
L 146.603931 110.837263 
L 146.9086 112.584182 
L 147.213268 113.547457 
L 147.517936 117.924359 
L 147.822604 112.735095 
L 148.127273 114.507676 
L 148.431941 109.273016 
L 148.736609 110.85315 
L 149.041278 109.832019 
L 149.345946 113.712676 
L 149.650614 108.375974 
L 149.955283 115.974163 
L 150.259951 109.01342 
L 150.564619 109.785335 
L 150.869287 109.201089 
L 151.478624 115.407356 
L 151.783292 112.919149 
L 152.087961 107.647703 
L 152.392629 113.364381 
L 152.697297 109.666056 
L 153.001966 114.582241 
L 153.306634 115.408271 
L 153.611302 109.557638 
L 153.915971 108.703541 
L 154.220639 111.480946 
L 154.525307 112.316549 
L 154.829975 115.165106 
L 155.134644 107.128232 
L 155.439312 114.566323 
L 155.74398 110.19904 
L 156.048649 110.270021 
L 156.353317 107.844913 
L 156.657985 109.631737 
L 156.962654 109.645018 
L 157.267322 113.135629 
L 157.876658 111.957208 
L 158.181327 111.678404 
L 158.485995 113.089891 
L 158.790663 109.476634 
L 159.095332 107.814116 
L 159.4 107.636656 
L 159.704668 108.13948 
L 160.009337 108.026547 
L 160.314005 111.727028 
L 160.618673 109.668445 
L 160.923342 111.31354 
L 161.22801 109.577047 
L 161.532678 111.838069 
L 161.837346 109.400052 
L 162.446683 113.797651 
L 162.751351 111.189079 
L 163.05602 106.911861 
L 163.360688 106.220919 
L 163.665356 109.74827 
L 163.970025 108.837217 
L 164.274693 112.189141 
L 164.579361 110.338923 
L 164.884029 113.575818 
L 165.188698 112.663478 
L 165.493366 109.856083 
L 165.798034 110.571523 
L 166.102703 112.250176 
L 166.407371 111.91915 
L 166.712039 114.345002 
L 167.016708 111.769617 
L 167.321376 112.018662 
L 167.626044 114.330573 
L 168.235381 106.726675 
L 168.540049 111.882783 
L 168.844717 105.781707 
L 169.149386 106.679944 
L 169.454054 111.01857 
L 169.758722 112.591644 
L 170.063391 112.544944 
L 170.368059 108.049447 
L 170.672727 110.760572 
L 170.977396 114.999756 
L 171.282064 110.137896 
L 171.586732 112.946316 
L 171.8914 108.636563 
L 172.196069 110.228503 
L 172.500737 113.999981 
L 172.805405 113.116778 
L 173.110074 112.75618 
L 173.414742 109.910276 
L 173.71941 110.458357 
L 174.024079 112.183819 
L 174.328747 113.150446 
L 174.633415 111.800972 
L 174.938084 107.29373 
L 175.242752 112.536877 
L 175.54742 112.111907 
L 175.852088 110.267228 
L 176.156757 113.94813 
L 176.461425 108.650371 
L 176.766093 110.938435 
L 177.070762 110.647313 
L 177.37543 110.860892 
L 177.680098 108.176343 
L 177.984767 111.487943 
L 178.594103 109.021411 
L 178.898771 111.127143 
L 179.20344 108.702129 
L 179.508108 109.008968 
L 179.812776 112.110495 
L 180.117445 113.782881 
L 180.422113 114.511431 
L 181.03145 104.632004 
L 181.336118 114.713994 
L 181.945455 108.775778 
L 182.250123 108.989853 
L 182.554791 110.105982 
L 182.859459 104.866171 
L 183.164128 115.31363 
L 183.773464 107.116286 
L 184.078133 114.602682 
L 184.382801 109.388168 
L 184.687469 109.348714 
L 184.992138 109.456682 
L 185.296806 109.826496 
L 185.601474 109.480327 
L 185.906143 109.59416 
L 186.210811 110.183246 
L 186.515479 105.027123 
L 186.820147 113.089348 
L 187.124816 111.365903 
L 187.429484 108.260853 
L 188.038821 111.51601 
L 188.343489 108.193317 
L 188.648157 113.694663 
L 188.952826 111.112792 
L 189.257494 111.037483 
L 189.562162 108.678701 
L 189.86683 111.678839 
L 190.171499 109.968473 
L 190.476167 113.482279 
L 190.780835 114.005334 
L 191.085504 108.838288 
L 191.390172 111.994149 
L 191.69484 107.713983 
L 192.304177 116.151444 
L 192.608845 109.882086 
L 192.913514 107.798136 
L 193.52285 112.931189 
L 193.827518 109.190911 
L 194.132187 109.801424 
L 194.436855 111.795247 
L 194.741523 107.82206 
L 195.046192 111.695766 
L 195.35086 108.690508 
L 195.655528 112.911066 
L 195.960197 111.25795 
L 196.569533 110.642922 
L 196.874201 115.779373 
L 197.17887 111.290609 
L 197.483538 109.284808 
L 197.788206 112.706036 
L 198.092875 108.149968 
L 198.397543 111.632837 
L 198.702211 112.074951 
L 199.00688 114.546386 
L 199.311548 109.103965 
L 199.616216 110.933641 
L 199.920885 113.450085 
L 200.225553 109.398051 
L 200.530221 110.776987 
L 200.834889 113.792407 
L 201.139558 110.659725 
L 201.748894 116.95428 
L 202.358231 110.640952 
L 202.662899 111.64272 
L 202.967568 114.020383 
L 203.272236 113.201986 
L 203.881572 105.171055 
L 204.186241 112.66171 
L 204.795577 106.789634 
L 205.100246 112.330807 
L 205.404914 111.254211 
L 205.709582 109.669733 
L 206.014251 108.744252 
L 206.318919 110.825363 
L 206.623587 111.10474 
L 206.928256 110.806807 
L 207.232924 108.398781 
L 207.537592 110.017454 
L 207.84226 110.662564 
L 208.146929 110.636018 
L 208.451597 113.254365 
L 208.756265 108.640441 
L 209.060934 109.443401 
L 209.365602 106.329151 
L 209.67027 108.627843 
L 209.974939 109.152713 
L 210.279607 111.582088 
L 210.584275 105.326592 
L 210.888943 111.270439 
L 211.193612 108.807258 
L 211.49828 112.154015 
L 212.107617 108.22866 
L 212.412285 112.865281 
L 212.716953 107.419603 
L 213.021622 111.699055 
L 213.32629 109.353368 
L 213.630958 111.207744 
L 213.935627 108.311215 
L 214.240295 110.343733 
L 214.544963 107.000699 
L 214.849631 111.585486 
L 215.1543 112.907668 
L 215.458968 111.020323 
L 215.763636 111.784666 
L 216.068305 107.997425 
L 216.372973 108.745648 
L 216.677641 113.109486 
L 216.98231 109.277841 
L 217.591646 106.834007 
L 217.896314 113.612558 
L 218.200983 107.842152 
L 218.505651 110.918452 
L 218.810319 106.824543 
L 219.114988 107.552752 
L 219.419656 117.206584 
L 219.724324 113.30935 
L 220.028993 112.028344 
L 220.333661 108.807413 
L 220.638329 111.471466 
L 220.942998 107.212478 
L 221.247666 111.492256 
L 221.552334 108.515189 
L 221.857002 112.772316 
L 222.161671 110.584773 
L 222.466339 111.861481 
L 222.771007 108.207063 
L 223.075676 109.132466 
L 223.380344 107.623329 
L 223.685012 109.47516 
L 223.989681 110.473267 
L 224.294349 113.581838 
L 224.599017 107.923496 
L 224.903686 105.824761 
L 225.208354 109.572129 
L 225.513022 109.38854 
L 225.81769 105.659977 
L 226.122359 110.808234 
L 226.427027 110.148555 
L 226.731695 112.278227 
L 227.036364 108.747029 
L 227.341032 111.179119 
L 227.6457 111.70298 
L 227.950369 115.106211 
L 228.255037 108.246378 
L 228.559705 109.720048 
L 228.864373 112.284309 
L 229.169042 112.334577 
L 229.47371 111.736927 
L 229.778378 107.900907 
L 230.083047 108.519689 
L 230.387715 114.496692 
L 230.692383 114.153377 
L 230.997052 111.134249 
L 231.30172 110.623389 
L 231.606388 108.812409 
L 231.911057 111.295667 
L 232.215725 111.846819 
L 232.520393 109.367471 
L 232.825061 117.104643 
L 233.12973 110.200499 
L 233.434398 110.989107 
L 233.739066 111.13155 
L 234.043735 109.216123 
L 234.348403 111.306512 
L 234.95774 112.194586 
L 235.567076 107.350871 
L 235.871744 108.318848 
L 236.176413 109.745337 
L 236.481081 109.810252 
L 236.785749 114.677898 
L 237.090418 105.928261 
L 237.395086 109.290998 
L 237.699754 109.112607 
L 238.004423 110.80012 
L 238.309091 107.965526 
L 238.918428 111.126244 
L 239.223096 110.223368 
L 239.527764 111.411455 
L 239.832432 106.855526 
L 240.137101 108.018293 
L 240.746437 113.157939 
L 241.051106 108.42857 
L 241.660442 112.157645 
L 241.965111 112.740293 
L 242.269779 113.079449 
L 242.574447 109.703928 
L 242.879115 113.294424 
L 243.183784 109.928987 
L 243.488452 112.508919 
L 243.79312 109.288981 
L 244.402457 110.843779 
L 244.707125 109.806171 
L 245.011794 109.544853 
L 245.316462 113.83484 
L 245.62113 107.609816 
L 245.925799 113.119183 
L 246.230467 110.239705 
L 246.535135 110.818086 
L 246.839803 108.07095 
L 247.144472 107.289743 
L 247.44914 110.710785 
L 247.753808 108.038152 
L 248.058477 112.335927 
L 248.363145 109.461181 
L 248.667813 109.553418 
L 248.972482 110.939227 
L 249.27715 109.75761 
L 249.581818 109.143529 
L 249.886486 106.3689 
L 250.191155 110.866725 
L 250.495823 111.568186 
L 250.800491 106.55691 
L 251.10516 108.732662 
L 251.409828 114.336267 
L 252.019165 109.697101 
L 252.323833 111.358192 
L 252.93317 108.26107 
L 253.237838 110.35225 
L 253.542506 107.675537 
L 253.847174 111.105873 
L 254.151843 107.045289 
L 254.456511 112.992488 
L 255.065848 107.946831 
L 255.370516 114.870493 
L 255.675184 113.61909 
L 255.979853 111.31489 
L 256.284521 112.228936 
L 256.589189 107.852717 
L 256.893857 111.121589 
L 257.503194 114.930955 
L 257.807862 111.542385 
L 258.112531 110.353181 
L 258.417199 108.233159 
L 258.721867 112.44675 
L 259.026536 110.450724 
L 259.331204 109.759099 
L 259.635872 112.168025 
L 259.940541 108.28757 
L 260.245209 106.83303 
L 260.854545 108.269619 
L 261.159214 113.766419 
L 261.463882 108.733143 
L 261.76855 107.988488 
L 262.073219 108.942548 
L 262.682555 112.422066 
L 263.291892 107.819283 
L 263.59656 110.797824 
L 263.901229 108.612732 
L 264.205897 114.400654 
L 264.510565 113.12497 
L 264.815233 109.585813 
L 265.42457 108.626649 
L 265.729238 108.899137 
L 266.033907 111.165077 
L 266.338575 111.380301 
L 266.643243 109.461398 
L 266.947912 113.10539 
L 267.25258 112.099356 
L 267.557248 112.863311 
L 267.861916 112.469309 
L 268.166585 113.453049 
L 268.471253 113.507506 
L 268.775921 109.266934 
L 269.08059 108.322075 
L 269.385258 108.378487 
L 269.689926 112.631999 
L 269.994595 109.663791 
L 270.299263 109.609938 
L 270.603931 109.680888 
L 270.9086 109.112561 
L 271.213268 109.84907 
L 271.517936 109.308049 
L 271.822604 113.420824 
L 272.127273 108.680082 
L 272.431941 109.673286 
L 272.736609 112.84567 
L 273.041278 110.963508 
L 273.345946 112.587145 
L 273.650614 115.981432 
L 273.955283 110.79365 
L 274.259951 112.836889 
L 274.564619 109.215921 
L 274.869287 109.883839 
L 275.173956 112.899538 
L 275.478624 108.800214 
L 275.783292 106.984579 
L 276.087961 110.185232 
L 276.392629 112.213173 
L 276.697297 112.731217 
L 277.001966 114.1149 
L 277.306634 108.113865 
L 277.611302 108.798554 
L 278.220639 111.771308 
L 278.525307 110.84277 
L 278.829975 114.286914 
L 279.134644 112.959596 
L 279.439312 108.215813 
L 279.74398 111.990224 
L 280.048649 108.10257 
L 280.353317 110.223166 
L 280.657985 108.505772 
L 281.267322 109.536677 
L 281.57199 110.802463 
L 281.876658 106.552333 
L 282.485995 110.69451 
L 282.790663 111.54887 
L 283.095332 107.776058 
L 283.4 111.356966 
L 283.704668 109.946845 
L 284.009337 110.196791 
L 284.314005 111.015234 
L 284.618673 113.03683 
L 284.923342 110.841002 
L 285.22801 109.834672 
L 285.532678 110.189638 
L 285.837346 112.158514 
L 286.142015 110.442299 
L 286.446683 111.827162 
L 286.751351 110.393148 
L 287.05602 110.100427 
L 287.360688 106.050131 
L 287.665356 107.723524 
L 287.970025 108.223198 
L 288.274693 109.046514 
L 288.579361 110.380332 
L 288.884029 114.702761 
L 289.188698 112.715267 
L 289.493366 112.170709 
L 289.798034 109.707869 
L 290.102703 112.304944 
L 290.407371 111.671485 
L 290.712039 112.82322 
L 291.016708 111.467851 
L 291.321376 108.814907 
L 291.626044 111.756491 
L 291.930713 111.77393 
L 292.540049 108.431393 
L 292.844717 111.572298 
L 293.149386 112.501487 
L 293.454054 110.166738 
L 293.758722 112.565859 
L 294.063391 110.884769 
L 294.368059 110.885405 
L 294.672727 111.435456 
L 294.977396 108.621374 
L 295.282064 109.991606 
L 295.586732 110.273341 
L 295.8914 108.231809 
L 296.196069 114.067006 
L 296.500737 109.660579 
L 296.805405 108.118023 
L 297.110074 113.465275 
L 297.414742 106.177074 
L 297.71941 106.502267 
L 298.024079 108.698778 
L 298.328747 113.745722 
L 298.938084 108.665793 
L 299.242752 112.64455 
L 299.54742 113.022416 
L 299.852088 110.810748 
L 300.461425 110.967231 
L 300.766093 111.399012 
L 301.070762 108.818599 
L 301.37543 111.712724 
L 301.680098 106.634981 
L 301.984767 107.884461 
L 302.289435 113.040553 
L 302.594103 108.535654 
L 303.20344 106.078104 
L 303.508108 112.180095 
L 304.117445 109.070608 
L 304.422113 111.52203 
L 304.726781 115.429418 
L 305.03145 110.515204 
L 305.336118 109.256136 
L 305.640786 113.510982 
L 305.945455 109.786312 
L 306.250123 112.89763 
L 306.554791 111.2905 
L 306.859459 112.734382 
L 307.164128 109.571849 
L 307.468796 110.120519 
L 307.773464 110.038538 
L 308.078133 114.41167 
L 308.382801 110.579978 
L 308.687469 110.486423 
L 308.992138 113.584041 
L 309.296806 107.849056 
L 309.601474 112.436976 
L 309.906143 112.00639 
L 310.210811 110.670244 
L 310.515479 115.521081 
L 310.820147 113.891532 
L 311.124816 105.263136 
L 311.429484 112.305099 
L 311.734152 112.125219 
L 312.038821 109.773373 
L 312.343489 110.587053 
L 312.648157 113.593133 
L 312.952826 107.565614 
L 313.257494 111.210924 
L 313.562162 106.562465 
L 313.86683 112.728455 
L 314.476167 109.800307 
L 314.780835 113.124256 
L 315.085504 108.143436 
L 315.390172 110.366555 
L 315.69484 107.811898 
L 315.999509 114.397179 
L 316.304177 108.695209 
L 316.608845 112.366259 
L 316.913514 110.334424 
L 317.218182 114.1167 
L 317.52285 111.727835 
L 318.132187 114.462093 
L 318.436855 106.32746 
L 318.741523 111.441166 
L 319.046192 110.491931 
L 319.35086 110.470334 
L 319.655528 110.582057 
L 319.960197 108.454479 
L 320.264865 112.527242 
L 320.874201 110.203974 
L 321.17887 113.888817 
L 321.483538 111.402425 
L 321.788206 113.030469 
L 322.092875 112.933407 
L 322.397543 108.6044 
L 322.702211 111.678653 
L 323.00688 109.279874 
L 323.616216 112.111969 
L 323.920885 109.797421 
L 324.225553 114.777597 
L 324.530221 115.177363 
L 324.834889 109.606417 
L 325.139558 110.362335 
L 325.444226 109.224966 
L 325.748894 106.243121 
L 326.053563 110.59931 
L 326.358231 110.992722 
L 326.662899 105.142166 
L 326.967568 109.988906 
L 327.272236 110.515343 
L 327.576904 112.092327 
L 327.881572 106.82175 
L 328.490909 111.381775 
L 328.795577 110.719644 
L 329.100246 112.833491 
L 329.404914 109.225075 
L 329.709582 112.002418 
L 330.014251 112.395272 
L 330.318919 113.415673 
L 330.623587 109.663325 
L 330.928256 110.616888 
L 331.232924 108.060167 
L 331.537592 110.49972 
L 331.84226 109.264747 
L 332.146929 110.359077 
L 332.451597 109.095432 
L 332.756265 113.677271 
L 333.060934 108.549369 
L 333.365602 109.091709 
L 333.67027 111.988595 
L 333.974939 111.481148 
L 334.279607 113.198821 
L 334.584275 113.27185 
L 334.888943 111.960218 
L 335.193612 108.688848 
L 335.49828 110.809289 
L 335.802948 111.076906 
L 336.107617 112.983707 
L 336.412285 111.093631 
L 336.716953 111.763038 
L 337.021622 108.722857 
L 337.32629 107.650185 
L 337.630958 108.542418 
L 337.935627 109.841669 
L 338.240295 107.737829 
L 338.544963 112.940854 
L 338.849631 109.156173 
L 339.1543 108.809849 
L 339.458968 112.722482 
L 339.763636 113.775992 
L 340.068305 109.045241 
L 340.372973 111.767739 
L 340.677641 112.074051 
L 340.98231 108.590949 
L 341.286978 107.099809 
L 341.591646 114.137878 
L 341.896314 112.934881 
L 342.200983 114.581605 
L 342.505651 113.314206 
L 342.810319 109.15788 
L 343.114988 113.707308 
L 343.724324 109.801858 
L 344.028993 112.495653 
L 344.333661 109.471064 
L 344.638329 110.679088 
L 344.942998 107.206474 
L 345.247666 108.451997 
L 345.552334 111.829396 
L 345.857002 112.103203 
L 346.161671 111.801841 
L 346.466339 112.639989 
L 346.771007 113.077789 
L 347.075676 115.533143 
L 347.380344 110.443013 
L 347.685012 107.255734 
L 347.989681 108.796661 
L 348.294349 108.289059 
L 348.599017 107.074783 
L 348.903686 112.859866 
L 349.208354 107.761598 
L 349.513022 111.230442 
L 349.81769 112.138376 
L 350.122359 111.480387 
L 350.427027 112.352187 
L 350.731695 109.49204 
L 351.036364 114.516132 
L 351.341032 110.895273 
L 351.950369 116.25292 
L 352.255037 108.278013 
L 352.559705 114.408179 
L 352.864373 109.612622 
L 353.169042 113.372806 
L 353.47371 110.613134 
L 353.778378 112.405326 
L 354.083047 109.030006 
L 354.387715 112.886707 
L 354.692383 109.925435 
L 354.997052 110.806 
L 355.30172 110.804061 
L 355.606388 113.231946 
L 355.911057 111.673719 
L 356.215725 108.603873 
L 356.520393 107.199554 
L 356.825061 107.515143 
L 357.12973 109.438545 
L 357.434398 116.783259 
L 358.043735 110.840784 
L 358.348403 113.144317 
L 358.95774 106.896703 
L 359.262408 110.445991 
L 359.567076 111.624723 
L 359.871744 108.395911 
L 360.176413 114.860835 
L 360.481081 108.599311 
L 360.785749 110.22976 
L 361.090418 112.638018 
L 361.395086 110.533046 
L 361.699754 110.75989 
L 362.004423 110.09191 
L 362.309091 111.018353 
L 362.613759 108.380566 
L 362.918428 112.422407 
L 363.223096 112.528281 
L 363.527764 114.248887 
L 363.832432 110.495965 
L 364.137101 108.128014 
L 364.441769 110.968426 
L 364.746437 111.828775 
L 365.051106 112.128213 
L 365.355774 111.941507 
L 365.660442 107.696637 
L 365.965111 113.79762 
L 366.269779 111.214306 
L 366.574447 110.302308 
L 366.879115 110.398097 
L 367.183784 110.356362 
L 367.488452 111.623606 
L 367.79312 109.934464 
L 368.097789 111.506732 
L 368.707125 113.479843 
L 369.011794 108.877432 
L 369.316462 107.473548 
L 369.62113 114.992471 
L 369.925799 108.695333 
L 370.230467 112.787101 
L 370.535135 115.359151 
L 370.839803 111.971342 
L 371.144472 110.789042 
L 371.44914 110.078862 
L 371.753808 109.795202 
L 372.058477 108.120707 
L 372.363145 110.928801 
L 372.667813 110.438451 
L 373.27715 112.195657 
L 373.581818 108.842104 
L 373.581818 108.842104 
" clip-path="url(#pb5f3197966)" style="fill: none; stroke: #2ca02c; stroke-width: 1.5; stroke-linecap: square"/>
   </g>
   <g id="line2d_19">
    <path d="M 54 44.443636 
L 388.8 44.443636 
" clip-path="url(#pb5f3197966)" style="fill: none; stroke: #1f77b4; stroke-width: 1.5; stroke-linecap: square"/>
   </g>
   <g id="patch_3">
    <path d="M 54 252 
L 54 34.56 
" style="fill: none; stroke: #000000; stroke-width: 0.8; stroke-linejoin: miter; stroke-linecap: square"/>
   </g>
   <g id="patch_4">
    <path d="M 388.8 252 
L 388.8 34.56 
" style="fill: none; stroke: #000000; stroke-width: 0.8; stroke-linejoin: miter; stroke-linecap: square"/>
   </g>
   <g id="patch_5">
    <path d="M 54 252 
L 388.8 252 
" style="fill: none; stroke: #000000; stroke-width: 0.8; stroke-linejoin: miter; stroke-linecap: square"/>
   </g>
   <g id="patch_6">
    <path d="M 54 34.56 
L 388.8 34.56 
" style="fill: none; stroke: #000000; stroke-width: 0.8; stroke-linejoin: miter; stroke-linecap: square"/>
   </g>
   <g id="legend_1">
    <g id="patch_7">
     <path d="M 327.534375 247 
L 381.8 247 
Q 383.8 247 383.8 245 
L 383.8 201.965625 
Q 383.8 199.965625 381.8 199.965625 
L 327.534375 199.965625 
Q 325.534375 199.965625 325.534375 201.965625 
L 325.534375 245 
Q 325.534375 247 327.534375 247 
z
" style="fill: #ffffff; opacity: 0.8; stroke: #cccccc; stroke-linejoin: miter"/>
    </g>
    <g id="line2d_20">
     <path d="M 329.534375 208.064063 
L 339.534375 208.064063 
L 349.534375 208.064063 
" style="fill: none; stroke: #1f77b4; stroke-width: 1.5; stroke-linecap: square"/>
    </g>
    <g id="text_16">
     <!-- 0.1 -->
     <g transform="translate(357.534375 211.564063)scale(0.1 -0.1)">
      <use xlink:href="#DejaVuSans-30"/>
      <use xlink:href="#DejaVuSans-2e" x="63.623047"/>
      <use xlink:href="#DejaVuSans-31" x="95.410156"/>
     </g>
    </g>
    <g id="line2d_21">
     <path d="M 329.534375 222.742188 
L 339.534375 222.742188 
L 349.534375 222.742188 
" style="fill: none; stroke: #ff7f0e; stroke-width: 1.5; stroke-linecap: square"/>
    </g>
    <g id="text_17">
     <!-- 0.01 -->
     <g transform="translate(357.534375 226.242188)scale(0.1 -0.1)">
      <use xlink:href="#DejaVuSans-30"/>
      <use xlink:href="#DejaVuSans-2e" x="63.623047"/>
      <use xlink:href="#DejaVuSans-30" x="95.410156"/>
      <use xlink:href="#DejaVuSans-31" x="159.033203"/>
     </g>
    </g>
    <g id="line2d_22">
     <path d="M 329.534375 237.420313 
L 339.534375 237.420313 
L 349.534375 237.420313 
" style="fill: none; stroke: #2ca02c; stroke-width: 1.5; stroke-linecap: square"/>
    </g>
    <g id="text_18">
     <!-- 0.0 -->
     <g transform="translate(357.534375 240.920313)scale(0.1 -0.1)">
      <use xlink:href="#DejaVuSans-30"/>
      <use xlink:href="#DejaVuSans-2e" x="63.623047"/>
      <use xlink:href="#DejaVuSans-30" x="95.410156"/>
     </g>
    </g>
   </g>
  </g>
 </g>
 <defs>
  <clipPath id="pb5f3197966">
   <rect x="54" y="34.56" width="334.8" height="217.44"/>
  </clipPath>
 </defs>
</svg>
