<?xml version="1.0" encoding="utf-8" standalone="no"?>
<!DOCTYPE svg PUBLIC "-//W3C//DTD SVG 1.1//EN"
  "http://www.w3.org/Graphics/SVG/1.1/DTD/svg11.dtd">
<svg xmlns:xlink="http://www.w3.org/1999/xlink" width="432pt" height="288pt" viewBox="0 0 432 288" xmlns="http://www.w3.org/2000/svg" version="1.1">
 <metadata>
  <rdf:RDF xmlns:dc="http://purl.org/dc/elements/1.1/" xmlns:cc="http://creativecommons.org/ns#" xmlns:rdf="http://www.w3.org/1999/02/22-rdf-syntax-ns#">
   <cc:Work>
    <dc:type rdf:resource="http://purl.org/dc/dcmitype/StillImage"/>
    <dc:date>2022-04-26T19:42:54.400331</dc:date>
    <dc:format>image/svg+xml</dc:format>
    <dc:creator>
     <cc:Agent>
      <dc:title>Matplotlib v3.5.0, https://matplotlib.org/</dc:title>
     </cc:Agent>
    </dc:creator>
   </cc:Work>
  </rdf:RDF>
 </metadata>
 <defs>
  <style type="text/css">*{stroke-linejoin: round; stroke-linecap: butt}</style>
 </defs>
 <g id="figure_1">
  <g id="patch_1">
   <path d="M 0 288 
L 432 288 
L 432 0 
L 0 0 
L 0 288 
z
" style="fill: none"/>
  </g>
  <g id="axes_1">
   <g id="patch_2">
    <path d="M 54 252 
L 388.8 252 
L 388.8 34.56 
L 54 34.56 
z
" style="fill: #ffffff"/>
   </g>
   <g id="PolyCollection_1">
    <defs>
     <path id="mc1a143f4c2" d="M 70.740232 -80.311707 
L 70.739768 -80.311707 
L 70.739059 -81.899895 
L 70.737526 -83.488083 
L 70.735469 -85.076271 
L 70.734035 -86.664459 
L 70.734385 -88.252646 
L 70.735777 -89.840834 
L 70.735766 -91.429022 
L 70.732463 -93.01721 
L 70.725726 -94.605398 
L 70.717423 -96.193586 
L 70.708861 -97.781774 
L 70.698609 -99.369962 
L 70.683899 -100.958149 
L 70.663545 -102.546337 
L 70.637941 -104.134525 
L 70.607622 -105.722713 
L 70.575193 -107.310901 
L 70.540584 -108.899089 
L 70.495258 -110.487277 
L 70.432343 -112.075465 
L 70.354665 -113.663652 
L 70.261842 -115.25184 
L 70.146322 -116.840028 
L 70.007972 -118.428216 
L 69.84753 -120.016404 
L 69.662738 -121.604592 
L 69.4709 -123.19278 
L 69.290384 -124.780968 
L 69.085327 -126.369155 
L 68.794701 -127.957343 
L 68.423538 -129.545531 
L 68.036276 -131.133719 
L 67.664157 -132.721907 
L 67.302658 -134.310095 
L 66.944582 -135.898283 
L 66.568075 -137.486471 
L 66.165549 -139.074659 
L 65.751517 -140.662846 
L 65.332999 -142.251034 
L 64.916687 -143.839222 
L 64.528922 -145.42741 
L 64.1918 -147.015598 
L 63.897077 -148.603786 
L 63.617583 -150.191974 
L 63.336958 -151.780162 
L 63.06494 -153.368349 
L 62.81372 -154.956537 
L 62.608785 -156.544725 
L 62.491185 -158.132913 
L 62.469994 -159.721101 
L 62.536395 -161.309289 
L 62.676581 -162.897477 
L 62.863489 -164.485665 
L 63.087998 -166.073852 
L 63.375524 -167.66204 
L 63.744691 -169.250228 
L 64.174753 -170.838416 
L 64.602949 -172.426604 
L 64.988375 -174.014792 
L 65.366058 -175.60298 
L 65.781306 -177.191168 
L 66.230673 -178.779355 
L 66.681481 -180.367543 
L 67.102395 -181.955731 
L 67.477013 -183.543919 
L 67.820999 -185.132107 
L 68.155465 -186.720295 
L 68.479036 -188.308483 
L 68.785613 -189.896671 
L 69.06351 -191.484859 
L 69.302294 -193.073046 
L 69.513735 -194.661234 
L 69.709249 -196.249422 
L 69.8768 -197.83761 
L 70.015465 -199.425798 
L 70.145073 -201.013986 
L 70.266371 -202.602174 
L 70.368723 -204.190362 
L 70.453179 -205.778549 
L 70.518741 -207.366737 
L 70.565199 -208.954925 
L 70.602605 -210.543113 
L 70.636305 -212.131301 
L 70.661369 -213.719489 
L 70.67723 -215.307677 
L 70.690219 -216.895865 
L 70.703119 -218.484052 
L 70.713698 -220.07224 
L 70.720842 -221.660428 
L 70.725516 -223.248616 
L 70.72873 -224.836804 
L 70.731476 -226.424992 
L 70.734529 -228.01318 
L 70.737238 -229.601368 
L 70.738429 -231.189555 
L 70.738488 -232.777743 
L 70.738709 -234.365931 
L 70.739335 -235.954119 
L 70.739806 -237.542307 
L 70.740194 -237.542307 
L 70.740194 -237.542307 
L 70.740665 -235.954119 
L 70.741291 -234.365931 
L 70.741512 -232.777743 
L 70.741571 -231.189555 
L 70.742762 -229.601368 
L 70.745471 -228.01318 
L 70.748524 -226.424992 
L 70.75127 -224.836804 
L 70.754484 -223.248616 
L 70.759158 -221.660428 
L 70.766302 -220.07224 
L 70.776881 -218.484052 
L 70.789781 -216.895865 
L 70.80277 -215.307677 
L 70.818631 -213.719489 
L 70.843695 -212.131301 
L 70.877395 -210.543113 
L 70.914801 -208.954925 
L 70.961259 -207.366737 
L 71.026821 -205.778549 
L 71.111277 -204.190362 
L 71.213629 -202.602174 
L 71.334927 -201.013986 
L 71.464535 -199.425798 
L 71.6032 -197.83761 
L 71.770751 -196.249422 
L 71.966265 -194.661234 
L 72.177706 -193.073046 
L 72.41649 -191.484859 
L 72.694387 -189.896671 
L 73.000964 -188.308483 
L 73.324535 -186.720295 
L 73.659001 -185.132107 
L 74.002987 -183.543919 
L 74.377605 -181.955731 
L 74.798519 -180.367543 
L 75.249327 -178.779355 
L 75.698694 -177.191168 
L 76.113942 -175.60298 
L 76.491625 -174.014792 
L 76.877051 -172.426604 
L 77.305247 -170.838416 
L 77.735309 -169.250228 
L 78.104476 -167.66204 
L 78.392002 -166.073852 
L 78.616511 -164.485665 
L 78.803419 -162.897477 
L 78.943605 -161.309289 
L 79.010006 -159.721101 
L 78.988815 -158.132913 
L 78.871215 -156.544725 
L 78.66628 -154.956537 
L 78.41506 -153.368349 
L 78.143042 -151.780162 
L 77.862417 -150.191974 
L 77.582923 -148.603786 
L 77.2882 -147.015598 
L 76.951078 -145.42741 
L 76.563313 -143.839222 
L 76.147001 -142.251034 
L 75.728483 -140.662846 
L 75.314451 -139.074659 
L 74.911925 -137.486471 
L 74.535418 -135.898283 
L 74.177342 -134.310095 
L 73.815843 -132.721907 
L 73.443724 -131.133719 
L 73.056462 -129.545531 
L 72.685299 -127.957343 
L 72.394673 -126.369155 
L 72.189616 -124.780968 
L 72.0091 -123.19278 
L 71.817262 -121.604592 
L 71.63247 -120.016404 
L 71.472028 -118.428216 
L 71.333678 -116.840028 
L 71.218158 -115.25184 
L 71.125335 -113.663652 
L 71.047657 -112.075465 
L 70.984742 -110.487277 
L 70.939416 -108.899089 
L 70.904807 -107.310901 
L 70.872378 -105.722713 
L 70.842059 -104.134525 
L 70.816455 -102.546337 
L 70.796101 -100.958149 
L 70.781391 -99.369962 
L 70.771139 -97.781774 
L 70.762577 -96.193586 
L 70.754274 -94.605398 
L 70.747537 -93.01721 
L 70.744234 -91.429022 
L 70.744223 -89.840834 
L 70.745615 -88.252646 
L 70.745965 -86.664459 
L 70.744531 -85.076271 
L 70.742474 -83.488083 
L 70.740941 -81.899895 
L 70.740232 -80.311707 
z
" style="stroke: #3d3d3d; stroke-width: 1.5"/>
    </defs>
    <g clip-path="url(#p340246bc98)">
     <use xlink:href="#mc1a143f4c2" x="0" y="288" style="fill: #2676ad; stroke: #3d3d3d; stroke-width: 1.5"/>
    </g>
   </g>
   <g id="PolyCollection_2">
    <defs>
     <path id="mb6b783a958" d="M 104.220396 -68.161462 
L 104.219604 -68.161462 
L 104.218234 -69.676762 
L 104.214769 -71.192062 
L 104.209587 -72.707362 
L 104.205761 -74.222662 
L 104.205037 -75.737962 
L 104.203791 -77.253263 
L 104.198271 -78.768563 
L 104.188799 -80.283863 
L 104.176546 -81.799163 
L 104.162726 -83.314463 
L 104.147925 -84.829763 
L 104.132078 -86.345063 
L 104.115038 -87.860363 
L 104.09105 -89.375663 
L 104.050031 -90.890963 
L 103.993597 -92.406264 
L 103.939166 -93.921564 
L 103.891862 -95.436864 
L 103.831882 -96.952164 
L 103.744622 -98.467464 
L 103.638077 -99.982764 
L 103.518246 -101.498064 
L 103.375661 -103.013364 
L 103.205664 -104.528664 
L 103.014487 -106.043964 
L 102.806938 -107.559264 
L 102.582252 -109.074565 
L 102.334359 -110.589865 
L 102.053502 -112.105165 
L 101.733561 -113.620465 
L 101.383616 -115.135765 
L 101.025684 -116.651065 
L 100.670581 -118.166365 
L 100.298624 -119.681665 
L 99.889783 -121.196965 
L 99.458848 -122.712265 
L 99.047397 -124.227566 
L 98.681154 -125.742866 
L 98.321516 -127.258166 
L 97.928459 -128.773466 
L 97.547106 -130.288766 
L 97.227831 -131.804066 
L 96.950496 -133.319366 
L 96.681376 -134.834666 
L 96.413742 -136.349966 
L 96.169383 -137.865266 
L 95.993124 -139.380566 
L 95.904817 -140.895867 
L 95.891302 -142.411167 
L 95.950729 -143.926467 
L 96.102548 -145.441767 
L 96.34206 -146.957067 
L 96.609889 -148.472367 
L 96.868007 -149.987667 
L 97.138248 -151.502967 
L 97.447794 -153.018267 
L 97.834713 -154.533567 
L 98.292759 -156.048868 
L 98.713433 -157.564168 
L 99.044644 -159.079468 
L 99.363789 -160.594768 
L 99.735554 -162.110068 
L 100.152507 -163.625368 
L 100.581242 -165.140668 
L 100.990005 -166.655968 
L 101.356153 -168.171268 
L 101.664998 -169.686568 
L 101.927043 -171.201869 
L 102.184338 -172.717169 
L 102.455795 -174.232469 
L 102.714819 -175.747769 
L 102.941902 -177.263069 
L 103.142004 -178.778369 
L 103.322285 -180.293669 
L 103.483784 -181.808969 
L 103.618647 -183.324269 
L 103.719242 -184.839569 
L 103.79378 -186.354869 
L 103.857841 -187.87017 
L 103.917738 -189.38547 
L 103.971463 -190.90077 
L 104.016481 -192.41607 
L 104.055606 -193.93137 
L 104.093616 -195.44667 
L 104.130162 -196.96197 
L 104.16037 -198.47727 
L 104.179478 -199.99257 
L 104.188722 -201.50787 
L 104.193792 -203.023171 
L 104.198425 -204.538471 
L 104.203393 -206.053771 
L 104.208291 -207.569071 
L 104.212657 -209.084371 
L 104.215993 -210.599671 
L 104.217733 -212.114971 
L 104.218272 -213.630271 
L 104.218718 -215.145571 
L 104.219359 -216.660871 
L 104.219806 -218.176171 
L 104.220194 -218.176171 
L 104.220194 -218.176171 
L 104.220641 -216.660871 
L 104.221282 -215.145571 
L 104.221728 -213.630271 
L 104.222267 -212.114971 
L 104.224007 -210.599671 
L 104.227343 -209.084371 
L 104.231709 -207.569071 
L 104.236607 -206.053771 
L 104.241575 -204.538471 
L 104.246208 -203.023171 
L 104.251278 -201.50787 
L 104.260522 -199.99257 
L 104.27963 -198.47727 
L 104.309838 -196.96197 
L 104.346384 -195.44667 
L 104.384394 -193.93137 
L 104.423519 -192.41607 
L 104.468537 -190.90077 
L 104.522262 -189.38547 
L 104.582159 -187.87017 
L 104.64622 -186.354869 
L 104.720758 -184.839569 
L 104.821353 -183.324269 
L 104.956216 -181.808969 
L 105.117715 -180.293669 
L 105.297996 -178.778369 
L 105.498098 -177.263069 
L 105.725181 -175.747769 
L 105.984205 -174.232469 
L 106.255662 -172.717169 
L 106.512957 -171.201869 
L 106.775002 -169.686568 
L 107.083847 -168.171268 
L 107.449995 -166.655968 
L 107.858758 -165.140668 
L 108.287493 -163.625368 
L 108.704446 -162.110068 
L 109.076211 -160.594768 
L 109.395356 -159.079468 
L 109.726567 -157.564168 
L 110.147241 -156.048868 
L 110.605287 -154.533567 
L 110.992206 -153.018267 
L 111.301752 -151.502967 
L 111.571993 -149.987667 
L 111.830111 -148.472367 
L 112.09794 -146.957067 
L 112.337452 -145.441767 
L 112.489271 -143.926467 
L 112.548698 -142.411167 
L 112.535183 -140.895867 
L 112.446876 -139.380566 
L 112.270617 -137.865266 
L 112.026258 -136.349966 
L 111.758624 -134.834666 
L 111.489504 -133.319366 
L 111.212169 -131.804066 
L 110.892894 -130.288766 
L 110.511541 -128.773466 
L 110.118484 -127.258166 
L 109.758846 -125.742866 
L 109.392603 -124.227566 
L 108.981152 -122.712265 
L 108.550217 -121.196965 
L 108.141376 -119.681665 
L 107.769419 -118.166365 
L 107.414316 -116.651065 
L 107.056384 -115.135765 
L 106.706439 -113.620465 
L 106.386498 -112.105165 
L 106.105641 -110.589865 
L 105.857748 -109.074565 
L 105.633062 -107.559264 
L 105.425513 -106.043964 
L 105.234336 -104.528664 
L 105.064339 -103.013364 
L 104.921754 -101.498064 
L 104.801923 -99.982764 
L 104.695378 -98.467464 
L 104.608118 -96.952164 
L 104.548138 -95.436864 
L 104.500834 -93.921564 
L 104.446403 -92.406264 
L 104.389969 -90.890963 
L 104.34895 -89.375663 
L 104.324962 -87.860363 
L 104.307922 -86.345063 
L 104.292075 -84.829763 
L 104.277274 -83.314463 
L 104.263454 -81.799163 
L 104.251201 -80.283863 
L 104.241729 -78.768563 
L 104.236209 -77.253263 
L 104.234963 -75.737962 
L 104.234239 -74.222662 
L 104.230413 -72.707362 
L 104.225231 -71.192062 
L 104.221766 -69.676762 
L 104.220396 -68.161462 
z
" style="stroke: #3d3d3d; stroke-width: 1.5"/>
    </defs>
    <g clip-path="url(#p340246bc98)">
     <use xlink:href="#mb6b783a958" x="0" y="288" style="fill: #f3801a; stroke: #3d3d3d; stroke-width: 1.5"/>
    </g>
   </g>
   <g id="PolyCollection_3">
    <defs>
     <path id="mc1cee6b0ac" d="M 137.700219 -77.935703 
L 137.699781 -77.935703 
L 137.699154 -79.44179 
L 137.697686 -80.947877 
L 137.694989 -82.453964 
L 137.690933 -83.960051 
L 137.686214 -85.466138 
L 137.681908 -86.972225 
L 137.678559 -88.478312 
L 137.675702 -89.984399 
L 137.67105 -91.490486 
L 137.662213 -92.996573 
L 137.649921 -94.50266 
L 137.635467 -96.008747 
L 137.616114 -97.514833 
L 137.588495 -99.02092 
L 137.552915 -100.527007 
L 137.510844 -102.033094 
L 137.465692 -103.539181 
L 137.41704 -105.045268 
L 137.352581 -106.551355 
L 137.26508 -108.057442 
L 137.160346 -109.563529 
L 137.043662 -111.069616 
L 136.917963 -112.575703 
L 136.775427 -114.08179 
L 136.599873 -115.587877 
L 136.390122 -117.093964 
L 136.155637 -118.600051 
L 135.907968 -120.106138 
L 135.648589 -121.612224 
L 135.352211 -123.118311 
L 135.001686 -124.624398 
L 134.620987 -126.130485 
L 134.24244 -127.636572 
L 133.867446 -129.142659 
L 133.482931 -130.648746 
L 133.082593 -132.154833 
L 132.6679 -133.66092 
L 132.262859 -135.167007 
L 131.897615 -136.673094 
L 131.578437 -138.179181 
L 131.265938 -139.685268 
L 130.900848 -141.191355 
L 130.498274 -142.697442 
L 130.135153 -144.203529 
L 129.859931 -145.709615 
L 129.670215 -147.215702 
L 129.535682 -148.721789 
L 129.444477 -150.227876 
L 129.431773 -151.733963 
L 129.510275 -153.24005 
L 129.632186 -154.746137 
L 129.78107 -156.252224 
L 129.972472 -157.758311 
L 130.169821 -159.264398 
L 130.351427 -160.770485 
L 130.584108 -162.276572 
L 130.930291 -163.782659 
L 131.372448 -165.288746 
L 131.834768 -166.794833 
L 132.248393 -168.30092 
L 132.619174 -169.807006 
L 133.007084 -171.313093 
L 133.437375 -172.81918 
L 133.863247 -174.325267 
L 134.241046 -175.831354 
L 134.594165 -177.337441 
L 134.958186 -178.843528 
L 135.321249 -180.349615 
L 135.644515 -181.855702 
L 135.906964 -183.361789 
L 136.121295 -184.867876 
L 136.31565 -186.373963 
L 136.511965 -187.88005 
L 136.711656 -189.386137 
L 136.892198 -190.892224 
L 137.032201 -192.398311 
L 137.13494 -193.904397 
L 137.221879 -195.410484 
L 137.308861 -196.916571 
L 137.39243 -198.422658 
L 137.459916 -199.928745 
L 137.507815 -201.434832 
L 137.543747 -202.940919 
L 137.573143 -204.447006 
L 137.596682 -205.953093 
L 137.616867 -207.45918 
L 137.635026 -208.965267 
L 137.648959 -210.471354 
L 137.658701 -211.977441 
L 137.667535 -213.483528 
L 137.677697 -214.989615 
L 137.687353 -216.495702 
L 137.693241 -218.001788 
L 137.695191 -219.507875 
L 137.695281 -221.013962 
L 137.695682 -222.520049 
L 137.697189 -224.026136 
L 137.698821 -225.532223 
L 137.699692 -227.03831 
L 137.700308 -227.03831 
L 137.700308 -227.03831 
L 137.701179 -225.532223 
L 137.702811 -224.026136 
L 137.704318 -222.520049 
L 137.704719 -221.013962 
L 137.704809 -219.507875 
L 137.706759 -218.001788 
L 137.712647 -216.495702 
L 137.722303 -214.989615 
L 137.732465 -213.483528 
L 137.741299 -211.977441 
L 137.751041 -210.471354 
L 137.764974 -208.965267 
L 137.783133 -207.45918 
L 137.803318 -205.953093 
L 137.826857 -204.447006 
L 137.856253 -202.940919 
L 137.892185 -201.434832 
L 137.940084 -199.928745 
L 138.00757 -198.422658 
L 138.091139 -196.916571 
L 138.178121 -195.410484 
L 138.26506 -193.904397 
L 138.367799 -192.398311 
L 138.507802 -190.892224 
L 138.688344 -189.386137 
L 138.888035 -187.88005 
L 139.08435 -186.373963 
L 139.278705 -184.867876 
L 139.493036 -183.361789 
L 139.755485 -181.855702 
L 140.078751 -180.349615 
L 140.441814 -178.843528 
L 140.805835 -177.337441 
L 141.158954 -175.831354 
L 141.536753 -174.325267 
L 141.962625 -172.81918 
L 142.392916 -171.313093 
L 142.780826 -169.807006 
L 143.151607 -168.30092 
L 143.565232 -166.794833 
L 144.027552 -165.288746 
L 144.469709 -163.782659 
L 144.815892 -162.276572 
L 145.048573 -160.770485 
L 145.230179 -159.264398 
L 145.427528 -157.758311 
L 145.61893 -156.252224 
L 145.767814 -154.746137 
L 145.889725 -153.24005 
L 145.968227 -151.733963 
L 145.955523 -150.227876 
L 145.864318 -148.721789 
L 145.729785 -147.215702 
L 145.540069 -145.709615 
L 145.264847 -144.203529 
L 144.901726 -142.697442 
L 144.499152 -141.191355 
L 144.134062 -139.685268 
L 143.821563 -138.179181 
L 143.502385 -136.673094 
L 143.137141 -135.167007 
L 142.7321 -133.66092 
L 142.317407 -132.154833 
L 141.917069 -130.648746 
L 141.532554 -129.142659 
L 141.15756 -127.636572 
L 140.779013 -126.130485 
L 140.398314 -124.624398 
L 140.047789 -123.118311 
L 139.751411 -121.612224 
L 139.492032 -120.106138 
L 139.244363 -118.600051 
L 139.009878 -117.093964 
L 138.800127 -115.587877 
L 138.624573 -114.08179 
L 138.482037 -112.575703 
L 138.356338 -111.069616 
L 138.239654 -109.563529 
L 138.13492 -108.057442 
L 138.047419 -106.551355 
L 137.98296 -105.045268 
L 137.934308 -103.539181 
L 137.889156 -102.033094 
L 137.847085 -100.527007 
L 137.811505 -99.02092 
L 137.783886 -97.514833 
L 137.764533 -96.008747 
L 137.750079 -94.50266 
L 137.737787 -92.996573 
L 137.72895 -91.490486 
L 137.724298 -89.984399 
L 137.721441 -88.478312 
L 137.718092 -86.972225 
L 137.713786 -85.466138 
L 137.709067 -83.960051 
L 137.705011 -82.453964 
L 137.702314 -80.947877 
L 137.700846 -79.44179 
L 137.700219 -77.935703 
z
" style="stroke: #3d3d3d; stroke-width: 1.5"/>
    </defs>
    <g clip-path="url(#p340246bc98)">
     <use xlink:href="#mc1cee6b0ac" x="0" y="288" style="fill: #329a32; stroke: #3d3d3d; stroke-width: 1.5"/>
    </g>
   </g>
   <g id="PolyCollection_4">
    <defs>
     <path id="mc61c7dd7d5" d="M 171.180331 -81.746945 
L 171.179669 -81.746945 
L 171.178583 -83.381384 
L 171.176253 -85.015823 
L 171.173234 -86.650261 
L 171.170797 -88.2847 
L 171.169705 -89.919138 
L 171.169044 -91.553577 
L 171.167435 -93.188015 
L 171.164774 -94.822454 
L 171.160472 -96.456893 
L 171.152527 -98.091331 
L 171.13964 -99.72577 
L 171.121792 -101.360208 
L 171.100377 -102.994647 
L 171.07619 -104.629085 
L 171.048536 -106.263524 
L 171.015507 -107.897963 
L 170.973354 -109.532401 
L 170.925113 -111.16684 
L 170.874061 -112.801278 
L 170.807884 -114.435717 
L 170.708838 -116.070155 
L 170.579437 -117.704594 
L 170.438051 -119.339032 
L 170.277861 -120.973471 
L 170.085841 -122.60791 
L 169.870086 -124.242348 
L 169.631777 -125.876787 
L 169.360786 -127.511225 
L 169.049071 -129.145664 
L 168.703469 -130.780102 
L 168.352589 -132.414541 
L 167.994585 -134.04898 
L 167.582973 -135.683418 
L 167.114826 -137.317857 
L 166.654781 -138.952295 
L 166.236331 -140.586734 
L 165.839053 -142.221172 
L 165.421204 -143.855611 
L 164.95807 -145.49005 
L 164.513892 -147.124488 
L 164.161216 -148.758927 
L 163.86901 -150.393365 
L 163.585131 -152.027804 
L 163.360787 -153.662242 
L 163.245324 -155.296681 
L 163.169671 -156.93112 
L 163.082586 -158.565558 
L 163.027309 -160.199997 
L 163.05398 -161.834435 
L 163.199545 -163.468874 
L 163.468771 -165.103312 
L 163.779279 -166.737751 
L 164.040499 -168.37219 
L 164.267291 -170.006628 
L 164.54972 -171.641067 
L 164.932429 -173.275505 
L 165.387067 -174.909944 
L 165.867219 -176.544382 
L 166.354231 -178.178821 
L 166.839474 -179.813259 
L 167.284382 -181.447698 
L 167.688314 -183.082137 
L 168.105041 -184.716575 
L 168.528114 -186.351014 
L 168.898997 -187.985452 
L 169.207465 -189.619891 
L 169.473115 -191.254329 
L 169.699527 -192.888768 
L 169.906062 -194.523207 
L 170.112512 -196.157645 
L 170.296837 -197.792084 
L 170.444943 -199.426522 
L 170.573279 -201.060961 
L 170.689512 -202.695399 
L 170.790529 -204.329838 
L 170.874763 -205.964277 
L 170.943267 -207.598715 
L 170.999895 -209.233154 
L 171.046207 -210.867592 
L 171.085084 -212.502031 
L 171.116947 -214.136469 
L 171.135903 -215.770908 
L 171.142422 -217.405347 
L 171.145478 -219.039785 
L 171.15083 -220.674224 
L 171.158072 -222.308662 
L 171.165239 -223.943101 
L 171.170966 -225.577539 
L 171.174186 -227.211978 
L 171.174759 -228.846417 
L 171.174184 -230.480855 
L 171.173982 -232.115294 
L 171.174859 -233.749732 
L 171.176707 -235.384171 
L 171.178089 -237.018609 
L 171.178388 -238.653048 
L 171.178653 -240.287487 
L 171.179309 -241.921925 
L 171.179805 -243.556364 
L 171.180195 -243.556364 
L 171.180195 -243.556364 
L 171.180691 -241.921925 
L 171.181347 -240.287487 
L 171.181612 -238.653048 
L 171.181911 -237.018609 
L 171.183293 -235.384171 
L 171.185141 -233.749732 
L 171.186018 -232.115294 
L 171.185816 -230.480855 
L 171.185241 -228.846417 
L 171.185814 -227.211978 
L 171.189034 -225.577539 
L 171.194761 -223.943101 
L 171.201928 -222.308662 
L 171.20917 -220.674224 
L 171.214522 -219.039785 
L 171.217578 -217.405347 
L 171.224097 -215.770908 
L 171.243053 -214.136469 
L 171.274916 -212.502031 
L 171.313793 -210.867592 
L 171.360105 -209.233154 
L 171.416733 -207.598715 
L 171.485237 -205.964277 
L 171.569471 -204.329838 
L 171.670488 -202.695399 
L 171.786721 -201.060961 
L 171.915057 -199.426522 
L 172.063163 -197.792084 
L 172.247488 -196.157645 
L 172.453938 -194.523207 
L 172.660473 -192.888768 
L 172.886885 -191.254329 
L 173.152535 -189.619891 
L 173.461003 -187.985452 
L 173.831886 -186.351014 
L 174.254959 -184.716575 
L 174.671686 -183.082137 
L 175.075618 -181.447698 
L 175.520526 -179.813259 
L 176.005769 -178.178821 
L 176.492781 -176.544382 
L 176.972933 -174.909944 
L 177.427571 -173.275505 
L 177.81028 -171.641067 
L 178.092709 -170.006628 
L 178.319501 -168.37219 
L 178.580721 -166.737751 
L 178.891229 -165.103312 
L 179.160455 -163.468874 
L 179.30602 -161.834435 
L 179.332691 -160.199997 
L 179.277414 -158.565558 
L 179.190329 -156.93112 
L 179.114676 -155.296681 
L 178.999213 -153.662242 
L 178.774869 -152.027804 
L 178.49099 -150.393365 
L 178.198784 -148.758927 
L 177.846108 -147.124488 
L 177.40193 -145.49005 
L 176.938796 -143.855611 
L 176.520947 -142.221172 
L 176.123669 -140.586734 
L 175.705219 -138.952295 
L 175.245174 -137.317857 
L 174.777027 -135.683418 
L 174.365415 -134.04898 
L 174.007411 -132.414541 
L 173.656531 -130.780102 
L 173.310929 -129.145664 
L 172.999214 -127.511225 
L 172.728223 -125.876787 
L 172.489914 -124.242348 
L 172.274159 -122.60791 
L 172.082139 -120.973471 
L 171.921949 -119.339032 
L 171.780563 -117.704594 
L 171.651162 -116.070155 
L 171.552116 -114.435717 
L 171.485939 -112.801278 
L 171.434887 -111.16684 
L 171.386646 -109.532401 
L 171.344493 -107.897963 
L 171.311464 -106.263524 
L 171.28381 -104.629085 
L 171.259623 -102.994647 
L 171.238208 -101.360208 
L 171.22036 -99.72577 
L 171.207473 -98.091331 
L 171.199528 -96.456893 
L 171.195226 -94.822454 
L 171.192565 -93.188015 
L 171.190956 -91.553577 
L 171.190295 -89.919138 
L 171.189203 -88.2847 
L 171.186766 -86.650261 
L 171.183747 -85.015823 
L 171.181417 -83.381384 
L 171.180331 -81.746945 
z
" style="stroke: #3d3d3d; stroke-width: 1.5"/>
    </defs>
    <g clip-path="url(#p340246bc98)">
     <use xlink:href="#mc61c7dd7d5" x="0" y="288" style="fill: #cd3031; stroke: #3d3d3d; stroke-width: 1.5"/>
    </g>
   </g>
   <g id="PolyCollection_5">
    <defs>
     <path id="m12cb5a9750" d="M 204.660194 -60.04355 
L 204.659806 -60.04355 
L 204.659319 -61.671393 
L 204.658697 -63.299237 
L 204.658626 -64.92708 
L 204.65909 -66.554923 
L 204.659169 -68.182767 
L 204.658436 -69.81061 
L 204.656978 -71.438454 
L 204.654289 -73.066297 
L 204.650655 -74.69414 
L 204.648008 -76.321984 
L 204.645413 -77.949827 
L 204.639342 -79.577671 
L 204.630146 -81.205514 
L 204.621014 -82.833358 
L 204.612803 -84.461201 
L 204.603695 -86.089044 
L 204.589793 -87.716888 
L 204.568116 -89.344731 
L 204.538362 -90.972575 
L 204.499774 -92.600418 
L 204.449536 -94.228262 
L 204.381475 -95.856105 
L 204.291058 -97.483948 
L 204.182959 -99.111792 
L 204.073035 -100.739635 
L 203.974531 -102.367479 
L 203.880153 -103.995322 
L 203.765622 -105.623165 
L 203.60424 -107.251009 
L 203.389218 -108.878852 
L 203.130276 -110.506696 
L 202.831414 -112.134539 
L 202.496502 -113.762383 
L 202.140439 -115.390226 
L 201.785809 -117.018069 
L 201.447448 -118.645913 
L 201.104899 -120.273756 
L 200.719128 -121.9016 
L 200.280636 -123.529443 
L 199.812898 -125.157286 
L 199.343878 -126.78513 
L 198.888586 -128.412973 
L 198.455961 -130.040817 
L 198.047999 -131.66866 
L 197.659111 -133.296504 
L 197.305179 -134.924347 
L 197.028394 -136.55219 
L 196.829507 -138.180034 
L 196.664625 -139.807877 
L 196.542322 -141.435721 
L 196.496373 -143.063564 
L 196.507832 -144.691407 
L 196.552893 -146.319251 
L 196.660151 -147.947094 
L 196.874777 -149.574938 
L 197.168527 -151.202781 
L 197.450544 -152.830625 
L 197.7279 -154.458468 
L 198.087541 -156.086311 
L 198.521852 -157.714155 
L 198.983324 -159.341998 
L 199.451333 -160.969842 
L 199.893796 -162.597685 
L 200.313652 -164.225529 
L 200.738057 -165.853372 
L 201.148489 -167.481215 
L 201.521143 -169.109059 
L 201.879254 -170.736902 
L 202.232892 -172.364746 
L 202.562597 -173.992589 
L 202.87035 -175.620432 
L 203.15158 -177.248276 
L 203.386997 -178.876119 
L 203.58856 -180.503963 
L 203.7727 -182.131806 
L 203.927833 -183.75965 
L 204.047323 -185.387493 
L 204.148253 -187.015336 
L 204.247634 -188.64318 
L 204.338965 -190.271023 
L 204.411186 -191.898867 
L 204.466353 -193.52671 
L 204.506518 -195.154553 
L 204.537502 -196.782397 
L 204.567722 -198.41024 
L 204.593763 -200.038084 
L 204.609877 -201.665927 
L 204.619687 -203.293771 
L 204.629399 -204.921614 
L 204.63931 -206.549457 
L 204.646187 -208.177301 
L 204.649498 -209.805144 
L 204.651828 -211.432988 
L 204.654542 -213.060831 
L 204.656308 -214.688675 
L 204.657047 -216.316518 
L 204.658011 -217.944361 
L 204.659136 -219.572205 
L 204.659779 -221.200048 
L 204.660221 -221.200048 
L 204.660221 -221.200048 
L 204.660864 -219.572205 
L 204.661989 -217.944361 
L 204.662953 -216.316518 
L 204.663692 -214.688675 
L 204.665458 -213.060831 
L 204.668172 -211.432988 
L 204.670502 -209.805144 
L 204.673813 -208.177301 
L 204.68069 -206.549457 
L 204.690601 -204.921614 
L 204.700313 -203.293771 
L 204.710123 -201.665927 
L 204.726237 -200.038084 
L 204.752278 -198.41024 
L 204.782498 -196.782397 
L 204.813482 -195.154553 
L 204.853647 -193.52671 
L 204.908814 -191.898867 
L 204.981035 -190.271023 
L 205.072366 -188.64318 
L 205.171747 -187.015336 
L 205.272677 -185.387493 
L 205.392167 -183.75965 
L 205.5473 -182.131806 
L 205.73144 -180.503963 
L 205.933003 -178.876119 
L 206.16842 -177.248276 
L 206.44965 -175.620432 
L 206.757403 -173.992589 
L 207.087108 -172.364746 
L 207.440746 -170.736902 
L 207.798857 -169.109059 
L 208.171511 -167.481215 
L 208.581943 -165.853372 
L 209.006348 -164.225529 
L 209.426204 -162.597685 
L 209.868667 -160.969842 
L 210.336676 -159.341998 
L 210.798148 -157.714155 
L 211.232459 -156.086311 
L 211.5921 -154.458468 
L 211.869456 -152.830625 
L 212.151473 -151.202781 
L 212.445223 -149.574938 
L 212.659849 -147.947094 
L 212.767107 -146.319251 
L 212.812168 -144.691407 
L 212.823627 -143.063564 
L 212.777678 -141.435721 
L 212.655375 -139.807877 
L 212.490493 -138.180034 
L 212.291606 -136.55219 
L 212.014821 -134.924347 
L 211.660889 -133.296504 
L 211.272001 -131.66866 
L 210.864039 -130.040817 
L 210.431414 -128.412973 
L 209.976122 -126.78513 
L 209.507102 -125.157286 
L 209.039364 -123.529443 
L 208.600872 -121.9016 
L 208.215101 -120.273756 
L 207.872552 -118.645913 
L 207.534191 -117.018069 
L 207.179561 -115.390226 
L 206.823498 -113.762383 
L 206.488586 -112.134539 
L 206.189724 -110.506696 
L 205.930782 -108.878852 
L 205.71576 -107.251009 
L 205.554378 -105.623165 
L 205.439847 -103.995322 
L 205.345469 -102.367479 
L 205.246965 -100.739635 
L 205.137041 -99.111792 
L 205.028942 -97.483948 
L 204.938525 -95.856105 
L 204.870464 -94.228262 
L 204.820226 -92.600418 
L 204.781638 -90.972575 
L 204.751884 -89.344731 
L 204.730207 -87.716888 
L 204.716305 -86.089044 
L 204.707197 -84.461201 
L 204.698986 -82.833358 
L 204.689854 -81.205514 
L 204.680658 -79.577671 
L 204.674587 -77.949827 
L 204.671992 -76.321984 
L 204.669345 -74.69414 
L 204.665711 -73.066297 
L 204.663022 -71.438454 
L 204.661564 -69.81061 
L 204.660831 -68.182767 
L 204.66091 -66.554923 
L 204.661374 -64.92708 
L 204.661303 -63.299237 
L 204.660681 -61.671393 
L 204.660194 -60.04355 
z
" style="stroke: #3d3d3d; stroke-width: 1.5"/>
    </defs>
    <g clip-path="url(#p340246bc98)">
     <use xlink:href="#m12cb5a9750" x="0" y="288" style="fill: #946bb9; stroke: #3d3d3d; stroke-width: 1.5"/>
    </g>
   </g>
   <g id="PolyCollection_6">
    <defs>
     <path id="mf43f4a884f" d="M 238.140201 -75.14695 
L 238.139799 -75.14695 
L 238.139223 -76.847469 
L 238.138298 -78.547988 
L 238.137633 -80.248506 
L 238.137438 -81.949025 
L 238.13689 -83.649544 
L 238.13478 -85.350063 
L 238.131254 -87.050582 
L 238.127666 -88.751101 
L 238.123725 -90.45162 
L 238.117027 -92.152139 
L 238.106978 -93.852658 
L 238.096713 -95.553177 
L 238.085725 -97.253695 
L 238.067261 -98.954214 
L 238.03941 -100.654733 
L 238.007223 -102.355252 
L 237.975784 -104.055771 
L 237.942967 -105.75629 
L 237.893288 -107.456809 
L 237.812334 -109.157328 
L 237.703475 -110.857847 
L 237.582314 -112.558366 
L 237.460064 -114.258884 
L 237.325664 -115.959403 
L 237.164355 -117.659922 
L 236.970435 -119.360441 
L 236.736435 -121.06096 
L 236.466477 -122.761479 
L 236.170427 -124.461998 
L 235.85109 -126.162517 
L 235.515342 -127.863036 
L 235.157667 -129.563555 
L 234.767644 -131.264073 
L 234.342821 -132.964592 
L 233.886023 -134.665111 
L 233.394263 -136.36563 
L 232.855742 -138.066149 
L 232.295489 -139.766668 
L 231.786347 -141.467187 
L 231.383515 -143.167706 
L 231.078701 -144.868225 
L 230.832582 -146.568744 
L 230.578928 -148.269262 
L 230.326188 -149.969781 
L 230.14647 -151.6703 
L 230.04881 -153.370819 
L 229.984701 -155.071338 
L 229.922169 -156.771857 
L 229.918832 -158.472376 
L 230.057703 -160.172895 
L 230.313779 -161.873414 
L 230.640478 -163.573933 
L 231.050594 -165.274451 
L 231.523366 -166.97497 
L 231.999911 -168.675489 
L 232.483175 -170.376008 
L 232.95432 -172.076527 
L 233.365741 -173.777046 
L 233.781009 -175.477565 
L 234.229509 -177.178084 
L 234.621524 -178.878603 
L 234.940501 -180.579122 
L 235.279239 -182.27964 
L 235.676905 -183.980159 
L 236.076308 -185.680678 
L 236.417058 -187.381197 
L 236.690117 -189.081716 
L 236.913406 -190.782235 
L 237.10247 -192.482754 
L 237.264864 -194.183273 
L 237.41249 -195.883792 
L 237.556081 -197.584311 
L 237.683337 -199.284829 
L 237.783819 -200.985348 
L 237.860506 -202.685867 
L 237.920099 -204.386386 
L 237.966658 -206.086905 
L 238.002551 -207.787424 
L 238.034875 -209.487943 
L 238.062857 -211.188462 
L 238.08236 -212.888981 
L 238.097566 -214.589499 
L 238.111197 -216.290018 
L 238.120165 -217.990537 
L 238.124016 -219.691056 
L 238.126806 -221.391575 
L 238.130093 -223.092094 
L 238.132764 -224.792613 
L 238.134867 -226.493132 
L 238.13686 -228.193651 
L 238.138613 -229.89417 
L 238.139621 -231.594688 
L 238.139921 -233.295207 
L 238.139829 -234.995726 
L 238.139352 -236.696245 
L 238.1387 -238.396764 
L 238.138658 -240.097283 
L 238.139288 -241.797802 
L 238.139806 -243.498321 
L 238.140194 -243.498321 
L 238.140194 -243.498321 
L 238.140712 -241.797802 
L 238.141342 -240.097283 
L 238.1413 -238.396764 
L 238.140648 -236.696245 
L 238.140171 -234.995726 
L 238.140079 -233.295207 
L 238.140379 -231.594688 
L 238.141387 -229.89417 
L 238.14314 -228.193651 
L 238.145133 -226.493132 
L 238.147236 -224.792613 
L 238.149907 -223.092094 
L 238.153194 -221.391575 
L 238.155984 -219.691056 
L 238.159835 -217.990537 
L 238.168803 -216.290018 
L 238.182434 -214.589499 
L 238.19764 -212.888981 
L 238.217143 -211.188462 
L 238.245125 -209.487943 
L 238.277449 -207.787424 
L 238.313342 -206.086905 
L 238.359901 -204.386386 
L 238.419494 -202.685867 
L 238.496181 -200.985348 
L 238.596663 -199.284829 
L 238.723919 -197.584311 
L 238.86751 -195.883792 
L 239.015136 -194.183273 
L 239.17753 -192.482754 
L 239.366594 -190.782235 
L 239.589883 -189.081716 
L 239.862942 -187.381197 
L 240.203692 -185.680678 
L 240.603095 -183.980159 
L 241.000761 -182.27964 
L 241.339499 -180.579122 
L 241.658476 -178.878603 
L 242.050491 -177.178084 
L 242.498991 -175.477565 
L 242.914259 -173.777046 
L 243.32568 -172.076527 
L 243.796825 -170.376008 
L 244.280089 -168.675489 
L 244.756634 -166.97497 
L 245.229406 -165.274451 
L 245.639522 -163.573933 
L 245.966221 -161.873414 
L 246.222297 -160.172895 
L 246.361168 -158.472376 
L 246.357831 -156.771857 
L 246.295299 -155.071338 
L 246.23119 -153.370819 
L 246.13353 -151.6703 
L 245.953812 -149.969781 
L 245.701072 -148.269262 
L 245.447418 -146.568744 
L 245.201299 -144.868225 
L 244.896485 -143.167706 
L 244.493653 -141.467187 
L 243.984511 -139.766668 
L 243.424258 -138.066149 
L 242.885737 -136.36563 
L 242.393977 -134.665111 
L 241.937179 -132.964592 
L 241.512356 -131.264073 
L 241.122333 -129.563555 
L 240.764658 -127.863036 
L 240.42891 -126.162517 
L 240.109573 -124.461998 
L 239.813523 -122.761479 
L 239.543565 -121.06096 
L 239.309565 -119.360441 
L 239.115645 -117.659922 
L 238.954336 -115.959403 
L 238.819936 -114.258884 
L 238.697686 -112.558366 
L 238.576525 -110.857847 
L 238.467666 -109.157328 
L 238.386712 -107.456809 
L 238.337033 -105.75629 
L 238.304216 -104.055771 
L 238.272777 -102.355252 
L 238.24059 -100.654733 
L 238.212739 -98.954214 
L 238.194275 -97.253695 
L 238.183287 -95.553177 
L 238.173022 -93.852658 
L 238.162973 -92.152139 
L 238.156275 -90.45162 
L 238.152334 -88.751101 
L 238.148746 -87.050582 
L 238.14522 -85.350063 
L 238.14311 -83.649544 
L 238.142562 -81.949025 
L 238.142367 -80.248506 
L 238.141702 -78.547988 
L 238.140777 -76.847469 
L 238.140201 -75.14695 
z
" style="stroke: #3d3d3d; stroke-width: 1.5"/>
    </defs>
    <g clip-path="url(#p340246bc98)">
     <use xlink:href="#mf43f4a884f" x="0" y="288" style="fill: #89584e; stroke: #3d3d3d; stroke-width: 1.5"/>
    </g>
   </g>
   <g id="PolyCollection_7">
    <defs>
     <path id="me66f3dc50b" d="M 271.620234 -45.883636 
L 271.619766 -45.883636 
L 271.619051 -47.489741 
L 271.617652 -49.095846 
L 271.616343 -50.701951 
L 271.616394 -52.308056 
L 271.617775 -53.914161 
L 271.619008 -55.520266 
L 271.619061 -57.126371 
L 271.618089 -58.732476 
L 271.616845 -60.338581 
L 271.615377 -61.944686 
L 271.612568 -63.55079 
L 271.607912 -65.156895 
L 271.601303 -66.763 
L 271.591831 -68.369105 
L 271.579517 -69.97521 
L 271.567367 -71.581315 
L 271.557182 -73.18742 
L 271.543652 -74.793525 
L 271.522486 -76.39963 
L 271.494825 -78.005735 
L 271.458158 -79.61184 
L 271.404301 -81.217945 
L 271.326392 -82.824049 
L 271.226181 -84.430154 
L 271.113843 -86.036259 
L 271.003435 -87.642364 
L 270.898086 -89.248469 
L 270.779442 -90.854574 
L 270.623958 -92.460679 
L 270.423297 -94.066784 
L 270.183231 -95.672889 
L 269.908799 -97.278994 
L 269.60627 -98.885099 
L 269.298395 -100.491204 
L 268.994148 -102.097308 
L 268.663414 -103.703413 
L 268.281868 -105.309518 
L 267.879068 -106.915623 
L 267.500108 -108.521728 
L 267.118197 -110.127833 
L 266.677478 -111.733938 
L 266.19189 -113.340043 
L 265.719404 -114.946148 
L 265.299555 -116.552253 
L 264.934049 -118.158358 
L 264.601909 -119.764463 
L 264.280244 -121.370567 
L 263.957657 -122.976672 
L 263.661598 -124.582777 
L 263.432995 -126.188882 
L 263.291458 -127.794987 
L 263.25 -129.401092 
L 263.330327 -131.007197 
L 263.50754 -132.613302 
L 263.714763 -134.219407 
L 263.919349 -135.825512 
L 264.141369 -137.431617 
L 264.430791 -139.037722 
L 264.771846 -140.643826 
L 265.129001 -142.249931 
L 265.548746 -143.856036 
L 266.044423 -145.462141 
L 266.520823 -147.068246 
L 266.904986 -148.674351 
L 267.254887 -150.280456 
L 267.649287 -151.886561 
L 268.075268 -153.492666 
L 268.509878 -155.098771 
L 268.929138 -156.704876 
L 269.276952 -158.310981 
L 269.5478 -159.917085 
L 269.79604 -161.52319 
L 270.04845 -163.129295 
L 270.285773 -164.7354 
L 270.488435 -166.341505 
L 270.660239 -167.94761 
L 270.81522 -169.553715 
L 270.956384 -171.15982 
L 271.080211 -172.765925 
L 271.191236 -174.37203 
L 271.286288 -175.978135 
L 271.35562 -177.58424 
L 271.407986 -179.190344 
L 271.454959 -180.796449 
L 271.492786 -182.402554 
L 271.520209 -184.008659 
L 271.542905 -185.614764 
L 271.563442 -187.220869 
L 271.580773 -188.826974 
L 271.591409 -190.433079 
L 271.594978 -192.039184 
L 271.597726 -193.645289 
L 271.604065 -195.251394 
L 271.611281 -196.857499 
L 271.615372 -198.463604 
L 271.616517 -200.069708 
L 271.617381 -201.675813 
L 271.618735 -203.281918 
L 271.619653 -204.888023 
L 271.620347 -204.888023 
L 271.620347 -204.888023 
L 271.621265 -203.281918 
L 271.622619 -201.675813 
L 271.623483 -200.069708 
L 271.624628 -198.463604 
L 271.628719 -196.857499 
L 271.635935 -195.251394 
L 271.642274 -193.645289 
L 271.645022 -192.039184 
L 271.648591 -190.433079 
L 271.659227 -188.826974 
L 271.676558 -187.220869 
L 271.697095 -185.614764 
L 271.719791 -184.008659 
L 271.747214 -182.402554 
L 271.785041 -180.796449 
L 271.832014 -179.190344 
L 271.88438 -177.58424 
L 271.953712 -175.978135 
L 272.048764 -174.37203 
L 272.159789 -172.765925 
L 272.283616 -171.15982 
L 272.42478 -169.553715 
L 272.579761 -167.94761 
L 272.751565 -166.341505 
L 272.954227 -164.7354 
L 273.19155 -163.129295 
L 273.44396 -161.52319 
L 273.6922 -159.917085 
L 273.963048 -158.310981 
L 274.310862 -156.704876 
L 274.730122 -155.098771 
L 275.164732 -153.492666 
L 275.590713 -151.886561 
L 275.985113 -150.280456 
L 276.335014 -148.674351 
L 276.719177 -147.068246 
L 277.195577 -145.462141 
L 277.691254 -143.856036 
L 278.110999 -142.249931 
L 278.468154 -140.643826 
L 278.809209 -139.037722 
L 279.098631 -137.431617 
L 279.320651 -135.825512 
L 279.525237 -134.219407 
L 279.73246 -132.613302 
L 279.909673 -131.007197 
L 279.99 -129.401092 
L 279.948542 -127.794987 
L 279.807005 -126.188882 
L 279.578402 -124.582777 
L 279.282343 -122.976672 
L 278.959756 -121.370567 
L 278.638091 -119.764463 
L 278.305951 -118.158358 
L 277.940445 -116.552253 
L 277.520596 -114.946148 
L 277.04811 -113.340043 
L 276.562522 -111.733938 
L 276.121803 -110.127833 
L 275.739892 -108.521728 
L 275.360932 -106.915623 
L 274.958132 -105.309518 
L 274.576586 -103.703413 
L 274.245852 -102.097308 
L 273.941605 -100.491204 
L 273.63373 -98.885099 
L 273.331201 -97.278994 
L 273.056769 -95.672889 
L 272.816703 -94.066784 
L 272.616042 -92.460679 
L 272.460558 -90.854574 
L 272.341914 -89.248469 
L 272.236565 -87.642364 
L 272.126157 -86.036259 
L 272.013819 -84.430154 
L 271.913608 -82.824049 
L 271.835699 -81.217945 
L 271.781842 -79.61184 
L 271.745175 -78.005735 
L 271.717514 -76.39963 
L 271.696348 -74.793525 
L 271.682818 -73.18742 
L 271.672633 -71.581315 
L 271.660483 -69.97521 
L 271.648169 -68.369105 
L 271.638697 -66.763 
L 271.632088 -65.156895 
L 271.627432 -63.55079 
L 271.624623 -61.944686 
L 271.623155 -60.338581 
L 271.621911 -58.732476 
L 271.620939 -57.126371 
L 271.620992 -55.520266 
L 271.622225 -53.914161 
L 271.623606 -52.308056 
L 271.623657 -50.701951 
L 271.622348 -49.095846 
L 271.620949 -47.489741 
L 271.620234 -45.883636 
z
" style="stroke: #3d3d3d; stroke-width: 1.5"/>
    </defs>
    <g clip-path="url(#p340246bc98)">
     <use xlink:href="#me66f3dc50b" x="0" y="288" style="fill: #de7cc0; stroke: #3d3d3d; stroke-width: 1.5"/>
    </g>
   </g>
   <g id="PolyCollection_8">
    <defs>
     <path id="m083da582b3" d="M 305.100195 -74.901148 
L 305.099805 -74.901148 
L 305.09928 -76.601014 
L 305.098629 -78.300879 
L 305.098549 -80.000745 
L 305.098745 -81.700611 
L 305.098557 -83.400476 
L 305.098609 -85.100342 
L 305.099185 -86.800207 
L 305.099302 -88.500073 
L 305.098054 -90.199938 
L 305.095422 -91.899804 
L 305.092324 -93.59967 
L 305.089879 -95.299535 
L 305.087505 -96.999401 
L 305.081275 -98.699266 
L 305.069846 -100.399132 
L 305.056184 -102.098998 
L 305.040509 -103.798863 
L 305.019002 -105.498729 
L 304.988908 -107.198594 
L 304.955714 -108.89846 
L 304.927754 -110.598326 
L 304.896979 -112.298191 
L 304.845126 -113.998057 
L 304.765796 -115.697922 
L 304.666513 -117.397788 
L 304.556776 -119.097653 
L 304.438719 -120.797519 
L 304.295907 -122.497385 
L 304.120483 -124.19725 
L 303.914358 -125.897116 
L 303.672855 -127.596981 
L 303.410955 -129.296847 
L 303.12953 -130.996713 
L 302.797673 -132.696578 
L 302.416283 -134.396444 
L 302.009549 -136.096309 
L 301.579575 -137.796175 
L 301.144011 -139.49604 
L 300.709059 -141.195906 
L 300.248312 -142.895772 
L 299.776184 -144.595637 
L 299.311053 -146.295503 
L 298.87341 -147.995368 
L 298.507266 -149.695234 
L 298.176823 -151.3951 
L 297.802591 -153.094965 
L 297.421593 -154.794831 
L 297.128086 -156.494696 
L 296.940348 -158.194562 
L 296.861522 -159.894428 
L 296.88803 -161.594293 
L 296.948147 -163.294159 
L 297.037226 -164.994024 
L 297.225037 -166.69389 
L 297.499704 -168.393755 
L 297.76863 -170.093621 
L 298.014325 -171.793487 
L 298.342709 -173.493352 
L 298.784558 -175.193218 
L 299.250603 -176.893083 
L 299.707405 -178.592949 
L 300.185327 -180.292815 
L 300.678165 -181.99268 
L 301.166989 -183.692546 
L 301.64033 -185.392411 
L 302.056142 -187.092277 
L 302.40796 -188.792142 
L 302.743552 -190.492008 
L 303.085829 -192.191874 
L 303.41437 -193.891739 
L 303.704097 -195.591605 
L 303.939646 -197.29147 
L 304.117875 -198.991336 
L 304.262204 -200.691202 
L 304.399975 -202.391067 
L 304.535803 -204.090933 
L 304.658944 -205.790798 
L 304.762777 -207.490664 
L 304.840317 -209.19053 
L 304.89341 -210.890395 
L 304.938775 -212.590261 
L 304.981421 -214.290126 
L 305.015533 -215.989992 
L 305.041895 -217.689857 
L 305.060587 -219.389723 
L 305.069676 -221.089589 
L 305.075539 -222.789454 
L 305.082615 -224.48932 
L 305.087763 -226.189185 
L 305.090232 -227.889051 
L 305.091446 -229.588917 
L 305.09249 -231.288782 
L 305.093729 -232.988648 
L 305.094568 -234.688513 
L 305.095295 -236.388379 
L 305.09645 -238.088244 
L 305.097885 -239.78811 
L 305.099134 -241.487976 
L 305.099789 -243.187841 
L 305.100211 -243.187841 
L 305.100211 -243.187841 
L 305.100866 -241.487976 
L 305.102115 -239.78811 
L 305.10355 -238.088244 
L 305.104705 -236.388379 
L 305.105432 -234.688513 
L 305.106271 -232.988648 
L 305.10751 -231.288782 
L 305.108554 -229.588917 
L 305.109768 -227.889051 
L 305.112237 -226.189185 
L 305.117385 -224.48932 
L 305.124461 -222.789454 
L 305.130324 -221.089589 
L 305.139413 -219.389723 
L 305.158105 -217.689857 
L 305.184467 -215.989992 
L 305.218579 -214.290126 
L 305.261225 -212.590261 
L 305.30659 -210.890395 
L 305.359683 -209.19053 
L 305.437223 -207.490664 
L 305.541056 -205.790798 
L 305.664197 -204.090933 
L 305.800025 -202.391067 
L 305.937796 -200.691202 
L 306.082125 -198.991336 
L 306.260354 -197.29147 
L 306.495903 -195.591605 
L 306.78563 -193.891739 
L 307.114171 -192.191874 
L 307.456448 -190.492008 
L 307.79204 -188.792142 
L 308.143858 -187.092277 
L 308.55967 -185.392411 
L 309.033011 -183.692546 
L 309.521835 -181.99268 
L 310.014673 -180.292815 
L 310.492595 -178.592949 
L 310.949397 -176.893083 
L 311.415442 -175.193218 
L 311.857291 -173.493352 
L 312.185675 -171.793487 
L 312.43137 -170.093621 
L 312.700296 -168.393755 
L 312.974963 -166.69389 
L 313.162774 -164.994024 
L 313.251853 -163.294159 
L 313.31197 -161.594293 
L 313.338478 -159.894428 
L 313.259652 -158.194562 
L 313.071914 -156.494696 
L 312.778407 -154.794831 
L 312.397409 -153.094965 
L 312.023177 -151.3951 
L 311.692734 -149.695234 
L 311.32659 -147.995368 
L 310.888947 -146.295503 
L 310.423816 -144.595637 
L 309.951688 -142.895772 
L 309.490941 -141.195906 
L 309.055989 -139.49604 
L 308.620425 -137.796175 
L 308.190451 -136.096309 
L 307.783717 -134.396444 
L 307.402327 -132.696578 
L 307.07047 -130.996713 
L 306.789045 -129.296847 
L 306.527145 -127.596981 
L 306.285642 -125.897116 
L 306.079517 -124.19725 
L 305.904093 -122.497385 
L 305.761281 -120.797519 
L 305.643224 -119.097653 
L 305.533487 -117.397788 
L 305.434204 -115.697922 
L 305.354874 -113.998057 
L 305.303021 -112.298191 
L 305.272246 -110.598326 
L 305.244286 -108.89846 
L 305.211092 -107.198594 
L 305.180998 -105.498729 
L 305.159491 -103.798863 
L 305.143816 -102.098998 
L 305.130154 -100.399132 
L 305.118725 -98.699266 
L 305.112495 -96.999401 
L 305.110121 -95.299535 
L 305.107676 -93.59967 
L 305.104578 -91.899804 
L 305.101946 -90.199938 
L 305.100698 -88.500073 
L 305.100815 -86.800207 
L 305.101391 -85.100342 
L 305.101443 -83.400476 
L 305.101255 -81.700611 
L 305.101451 -80.000745 
L 305.101371 -78.300879 
L 305.10072 -76.601014 
L 305.100195 -74.901148 
z
" style="stroke: #3d3d3d; stroke-width: 1.5"/>
    </defs>
    <g clip-path="url(#p340246bc98)">
     <use xlink:href="#m083da582b3" x="0" y="288" style="fill: #7f7f7f; stroke: #3d3d3d; stroke-width: 1.5"/>
    </g>
   </g>
   <g id="PolyCollection_9">
    <defs>
     <path id="m12e23d7ae3" d="M 338.580196 -82.116976 
L 338.579804 -82.116976 
L 338.57934 -83.663941 
L 338.578725 -85.210906 
L 338.578577 -86.757871 
L 338.578963 -88.304836 
L 338.578914 -89.851801 
L 338.577442 -91.398767 
L 338.574434 -92.945732 
L 338.570845 -94.492697 
L 338.568009 -96.039662 
L 338.565656 -97.586627 
L 338.560887 -99.133592 
L 338.552467 -100.680557 
L 338.544311 -102.227522 
L 338.538676 -103.774487 
L 338.529774 -105.321452 
L 338.511393 -106.868417 
L 338.484352 -108.415382 
L 338.450894 -109.962347 
L 338.410273 -111.509312 
L 338.358954 -113.056277 
L 338.295156 -114.603242 
L 338.225927 -116.150207 
L 338.156884 -117.697172 
L 338.078854 -119.244137 
L 337.977263 -120.791102 
L 337.849 -122.338067 
L 337.705367 -123.885032 
L 337.550159 -125.431997 
L 337.364806 -126.978962 
L 337.138367 -128.525927 
L 336.884351 -130.072892 
L 336.615122 -131.619857 
L 336.327718 -133.166822 
L 336.002085 -134.713787 
L 335.626044 -136.260752 
L 335.21347 -137.807717 
L 334.79384 -139.354682 
L 334.389625 -140.901647 
L 333.983379 -142.448612 
L 333.551803 -143.995577 
L 333.110915 -145.542542 
L 332.676204 -147.089507 
L 332.251453 -148.636472 
L 331.872203 -150.183437 
L 331.563077 -151.730402 
L 331.282448 -153.277367 
L 330.994771 -154.824332 
L 330.713902 -156.371298 
L 330.483944 -157.918263 
L 330.359406 -159.465228 
L 330.341987 -161.012193 
L 330.370619 -162.559158 
L 330.401852 -164.106123 
L 330.460613 -165.653088 
L 330.595431 -167.200053 
L 330.829704 -168.747018 
L 331.149864 -170.293983 
L 331.514771 -171.840948 
L 331.894739 -173.387913 
L 332.272571 -174.934878 
L 332.622501 -176.481843 
L 332.950415 -178.028808 
L 333.303855 -179.575773 
L 333.720401 -181.122738 
L 334.192971 -182.669703 
L 334.664094 -184.216668 
L 335.07686 -185.763633 
L 335.43221 -187.310598 
L 335.763899 -188.857563 
L 336.084333 -190.404528 
L 336.384414 -191.951493 
L 336.668346 -193.498458 
L 336.946406 -195.045423 
L 337.206434 -196.592388 
L 337.431412 -198.139353 
L 337.630019 -199.686318 
L 337.806866 -201.233283 
L 337.944846 -202.780248 
L 338.046273 -204.327213 
L 338.131931 -205.874178 
L 338.2077 -207.421143 
L 338.268214 -208.968108 
L 338.316541 -210.515073 
L 338.363007 -212.062038 
L 338.412083 -213.609003 
L 338.459276 -215.155968 
L 338.495907 -216.702933 
L 338.518816 -218.249898 
L 338.532598 -219.796863 
L 338.541533 -221.343828 
L 338.547353 -222.890794 
L 338.551884 -224.437759 
L 338.555815 -225.984724 
L 338.559116 -227.531689 
L 338.563805 -229.078654 
L 338.570345 -230.625619 
L 338.575864 -232.172584 
L 338.578734 -233.719549 
L 338.579728 -235.266514 
L 338.580272 -235.266514 
L 338.580272 -235.266514 
L 338.581266 -233.719549 
L 338.584136 -232.172584 
L 338.589655 -230.625619 
L 338.596195 -229.078654 
L 338.600884 -227.531689 
L 338.604185 -225.984724 
L 338.608116 -224.437759 
L 338.612647 -222.890794 
L 338.618467 -221.343828 
L 338.627402 -219.796863 
L 338.641184 -218.249898 
L 338.664093 -216.702933 
L 338.700724 -215.155968 
L 338.747917 -213.609003 
L 338.796993 -212.062038 
L 338.843459 -210.515073 
L 338.891786 -208.968108 
L 338.9523 -207.421143 
L 339.028069 -205.874178 
L 339.113727 -204.327213 
L 339.215154 -202.780248 
L 339.353134 -201.233283 
L 339.529981 -199.686318 
L 339.728588 -198.139353 
L 339.953566 -196.592388 
L 340.213594 -195.045423 
L 340.491654 -193.498458 
L 340.775586 -191.951493 
L 341.075667 -190.404528 
L 341.396101 -188.857563 
L 341.72779 -187.310598 
L 342.08314 -185.763633 
L 342.495906 -184.216668 
L 342.967029 -182.669703 
L 343.439599 -181.122738 
L 343.856145 -179.575773 
L 344.209585 -178.028808 
L 344.537499 -176.481843 
L 344.887429 -174.934878 
L 345.265261 -173.387913 
L 345.645229 -171.840948 
L 346.010136 -170.293983 
L 346.330296 -168.747018 
L 346.564569 -167.200053 
L 346.699387 -165.653088 
L 346.758148 -164.106123 
L 346.789381 -162.559158 
L 346.818013 -161.012193 
L 346.800594 -159.465228 
L 346.676056 -157.918263 
L 346.446098 -156.371298 
L 346.165229 -154.824332 
L 345.877552 -153.277367 
L 345.596923 -151.730402 
L 345.287797 -150.183437 
L 344.908547 -148.636472 
L 344.483796 -147.089507 
L 344.049085 -145.542542 
L 343.608197 -143.995577 
L 343.176621 -142.448612 
L 342.770375 -140.901647 
L 342.36616 -139.354682 
L 341.94653 -137.807717 
L 341.533956 -136.260752 
L 341.157915 -134.713787 
L 340.832282 -133.166822 
L 340.544878 -131.619857 
L 340.275649 -130.072892 
L 340.021633 -128.525927 
L 339.795194 -126.978962 
L 339.609841 -125.431997 
L 339.454633 -123.885032 
L 339.311 -122.338067 
L 339.182737 -120.791102 
L 339.081146 -119.244137 
L 339.003116 -117.697172 
L 338.934073 -116.150207 
L 338.864844 -114.603242 
L 338.801046 -113.056277 
L 338.749727 -111.509312 
L 338.709106 -109.962347 
L 338.675648 -108.415382 
L 338.648607 -106.868417 
L 338.630226 -105.321452 
L 338.621324 -103.774487 
L 338.615689 -102.227522 
L 338.607533 -100.680557 
L 338.599113 -99.133592 
L 338.594344 -97.586627 
L 338.591991 -96.039662 
L 338.589155 -94.492697 
L 338.585566 -92.945732 
L 338.582558 -91.398767 
L 338.581086 -89.851801 
L 338.581037 -88.304836 
L 338.581423 -86.757871 
L 338.581275 -85.210906 
L 338.58066 -83.663941 
L 338.580196 -82.116976 
z
" style="stroke: #3d3d3d; stroke-width: 1.5"/>
    </defs>
    <g clip-path="url(#p340246bc98)">
     <use xlink:href="#m12e23d7ae3" x="0" y="288" style="fill: #b4b52a; stroke: #3d3d3d; stroke-width: 1.5"/>
    </g>
   </g>
   <g id="PolyCollection_10">
    <defs>
     <path id="m456624e46d" d="M 372.060235 -95.819316 
L 372.059765 -95.819316 
L 372.05908 -97.297651 
L 372.05741 -98.775986 
L 372.054405 -100.254321 
L 372.05039 -101.732656 
L 372.046466 -103.210992 
L 372.043248 -104.689327 
L 372.03968 -106.167662 
L 372.033428 -107.645997 
L 372.0231 -109.124332 
L 372.010605 -110.602668 
L 371.99903 -112.081003 
L 371.98772 -113.559338 
L 371.971669 -115.037673 
L 371.947057 -116.516008 
L 371.916122 -117.994343 
L 371.883023 -119.472679 
L 371.846444 -120.951014 
L 371.80011 -122.429349 
L 371.737147 -123.907684 
L 371.652089 -125.386019 
L 371.546228 -126.864355 
L 371.429154 -128.34269 
L 371.306914 -129.821025 
L 371.176197 -131.29936 
L 371.030397 -132.777695 
L 370.859081 -134.256031 
L 370.650045 -135.734366 
L 370.403495 -137.212701 
L 370.134856 -138.691036 
L 369.863493 -140.169371 
L 369.594117 -141.647707 
L 369.304428 -143.126042 
L 368.961276 -144.604377 
L 368.563274 -146.082712 
L 368.146986 -147.561047 
L 367.746022 -149.039382 
L 367.366044 -150.517718 
L 366.979636 -151.996053 
L 366.567951 -153.474388 
L 366.159863 -154.952723 
L 365.777106 -156.431058 
L 365.406181 -157.909394 
L 365.050425 -159.387729 
L 364.728381 -160.866064 
L 364.443909 -162.344399 
L 364.198797 -163.822734 
L 364.011988 -165.30107 
L 363.915365 -166.779405 
L 363.910475 -168.25774 
L 363.950802 -169.736075 
L 364.002966 -171.21441 
L 364.078874 -172.692745 
L 364.201684 -174.171081 
L 364.377928 -175.649416 
L 364.595894 -177.127751 
L 364.848203 -178.606086 
L 365.136229 -180.084421 
L 365.444207 -181.562757 
L 365.745235 -183.041092 
L 366.046648 -184.519427 
L 366.390111 -185.997762 
L 366.795223 -187.476097 
L 367.242439 -188.954433 
L 367.686954 -190.432768 
L 368.091896 -191.911103 
L 368.468131 -193.389438 
L 368.835018 -194.867773 
L 369.1753 -196.346108 
L 369.482298 -197.824444 
L 369.78429 -199.302779 
L 370.088016 -200.781114 
L 370.363646 -202.259449 
L 370.590314 -203.737784 
L 370.784089 -205.21612 
L 370.974805 -206.694455 
L 371.161348 -208.17279 
L 371.318678 -209.651125 
L 371.43949 -211.12946 
L 371.535405 -212.607796 
L 371.617524 -214.086131 
L 371.692876 -215.564466 
L 371.763514 -217.042801 
L 371.82563 -218.521136 
L 371.875971 -219.999472 
L 371.91514 -221.477807 
L 371.945039 -222.956142 
L 371.967368 -224.434477 
L 371.983588 -225.912812 
L 371.995227 -227.391147 
L 372.006349 -228.869483 
L 372.020135 -230.347818 
L 372.033063 -231.826153 
L 372.04075 -233.304488 
L 372.044229 -234.782823 
L 372.047116 -236.261159 
L 372.051217 -237.739494 
L 372.055522 -239.217829 
L 372.058397 -240.696164 
L 372.059614 -242.174499 
L 372.060386 -242.174499 
L 372.060386 -242.174499 
L 372.061603 -240.696164 
L 372.064478 -239.217829 
L 372.068783 -237.739494 
L 372.072884 -236.261159 
L 372.075771 -234.782823 
L 372.07925 -233.304488 
L 372.086937 -231.826153 
L 372.099865 -230.347818 
L 372.113651 -228.869483 
L 372.124773 -227.391147 
L 372.136412 -225.912812 
L 372.152632 -224.434477 
L 372.174961 -222.956142 
L 372.20486 -221.477807 
L 372.244029 -219.999472 
L 372.29437 -218.521136 
L 372.356486 -217.042801 
L 372.427124 -215.564466 
L 372.502476 -214.086131 
L 372.584595 -212.607796 
L 372.68051 -211.12946 
L 372.801322 -209.651125 
L 372.958652 -208.17279 
L 373.145195 -206.694455 
L 373.335911 -205.21612 
L 373.529686 -203.737784 
L 373.756354 -202.259449 
L 374.031984 -200.781114 
L 374.33571 -199.302779 
L 374.637702 -197.824444 
L 374.9447 -196.346108 
L 375.284982 -194.867773 
L 375.651869 -193.389438 
L 376.028104 -191.911103 
L 376.433046 -190.432768 
L 376.877561 -188.954433 
L 377.324777 -187.476097 
L 377.729889 -185.997762 
L 378.073352 -184.519427 
L 378.374765 -183.041092 
L 378.675793 -181.562757 
L 378.983771 -180.084421 
L 379.271797 -178.606086 
L 379.524106 -177.127751 
L 379.742072 -175.649416 
L 379.918316 -174.171081 
L 380.041126 -172.692745 
L 380.117034 -171.21441 
L 380.169198 -169.736075 
L 380.209525 -168.25774 
L 380.204635 -166.779405 
L 380.108012 -165.30107 
L 379.921203 -163.822734 
L 379.676091 -162.344399 
L 379.391619 -160.866064 
L 379.069575 -159.387729 
L 378.713819 -157.909394 
L 378.342894 -156.431058 
L 377.960137 -154.952723 
L 377.552049 -153.474388 
L 377.140364 -151.996053 
L 376.753956 -150.517718 
L 376.373978 -149.039382 
L 375.973014 -147.561047 
L 375.556726 -146.082712 
L 375.158724 -144.604377 
L 374.815572 -143.126042 
L 374.525883 -141.647707 
L 374.256507 -140.169371 
L 373.985144 -138.691036 
L 373.716505 -137.212701 
L 373.469955 -135.734366 
L 373.260919 -134.256031 
L 373.089603 -132.777695 
L 372.943803 -131.29936 
L 372.813086 -129.821025 
L 372.690846 -128.34269 
L 372.573772 -126.864355 
L 372.467911 -125.386019 
L 372.382853 -123.907684 
L 372.31989 -122.429349 
L 372.273556 -120.951014 
L 372.236977 -119.472679 
L 372.203878 -117.994343 
L 372.172943 -116.516008 
L 372.148331 -115.037673 
L 372.13228 -113.559338 
L 372.12097 -112.081003 
L 372.109395 -110.602668 
L 372.0969 -109.124332 
L 372.086572 -107.645997 
L 372.08032 -106.167662 
L 372.076752 -104.689327 
L 372.073534 -103.210992 
L 372.06961 -101.732656 
L 372.065595 -100.254321 
L 372.06259 -98.775986 
L 372.06092 -97.297651 
L 372.060235 -95.819316 
z
" style="stroke: #3d3d3d; stroke-width: 1.5"/>
    </defs>
    <g clip-path="url(#p340246bc98)">
     <use xlink:href="#m456624e46d" x="0" y="288" style="fill: #20b6c6; stroke: #3d3d3d; stroke-width: 1.5"/>
    </g>
   </g>
   <g id="matplotlib.axis_1">
    <g id="xtick_1">
     <g id="line2d_1">
      <defs>
       <path id="m8cd4a2957b" d="M 0 0 
L 0 3.5 
" style="stroke: #000000; stroke-width: 0.8"/>
      </defs>
      <g>
       <use xlink:href="#m8cd4a2957b" x="70.74" y="252" style="stroke: #000000; stroke-width: 0.8"/>
      </g>
     </g>
     <g id="text_1">
      <!-- b0 -->
      <g transform="translate(64.384531 266.598437)scale(0.1 -0.1)">
       <defs>
        <path id="DejaVuSans-62" d="M 3116 1747 
Q 3116 2381 2855 2742 
Q 2594 3103 2138 3103 
Q 1681 3103 1420 2742 
Q 1159 2381 1159 1747 
Q 1159 1113 1420 752 
Q 1681 391 2138 391 
Q 2594 391 2855 752 
Q 3116 1113 3116 1747 
z
M 1159 2969 
Q 1341 3281 1617 3432 
Q 1894 3584 2278 3584 
Q 2916 3584 3314 3078 
Q 3713 2572 3713 1747 
Q 3713 922 3314 415 
Q 2916 -91 2278 -91 
Q 1894 -91 1617 61 
Q 1341 213 1159 525 
L 1159 0 
L 581 0 
L 581 4863 
L 1159 4863 
L 1159 2969 
z
" transform="scale(0.015625)"/>
        <path id="DejaVuSans-30" d="M 2034 4250 
Q 1547 4250 1301 3770 
Q 1056 3291 1056 2328 
Q 1056 1369 1301 889 
Q 1547 409 2034 409 
Q 2525 409 2770 889 
Q 3016 1369 3016 2328 
Q 3016 3291 2770 3770 
Q 2525 4250 2034 4250 
z
M 2034 4750 
Q 2819 4750 3233 4129 
Q 3647 3509 3647 2328 
Q 3647 1150 3233 529 
Q 2819 -91 2034 -91 
Q 1250 -91 836 529 
Q 422 1150 422 2328 
Q 422 3509 836 4129 
Q 1250 4750 2034 4750 
z
" transform="scale(0.015625)"/>
       </defs>
       <use xlink:href="#DejaVuSans-62"/>
       <use xlink:href="#DejaVuSans-30" x="63.476562"/>
      </g>
     </g>
    </g>
    <g id="xtick_2">
     <g id="line2d_2">
      <g>
       <use xlink:href="#m8cd4a2957b" x="104.22" y="252" style="stroke: #000000; stroke-width: 0.8"/>
      </g>
     </g>
     <g id="text_2">
      <!-- b1 -->
      <g transform="translate(97.864531 266.598437)scale(0.1 -0.1)">
       <defs>
        <path id="DejaVuSans-31" d="M 794 531 
L 1825 531 
L 1825 4091 
L 703 3866 
L 703 4441 
L 1819 4666 
L 2450 4666 
L 2450 531 
L 3481 531 
L 3481 0 
L 794 0 
L 794 531 
z
" transform="scale(0.015625)"/>
       </defs>
       <use xlink:href="#DejaVuSans-62"/>
       <use xlink:href="#DejaVuSans-31" x="63.476562"/>
      </g>
     </g>
    </g>
    <g id="xtick_3">
     <g id="line2d_3">
      <g>
       <use xlink:href="#m8cd4a2957b" x="137.7" y="252" style="stroke: #000000; stroke-width: 0.8"/>
      </g>
     </g>
     <g id="text_3">
      <!-- b2 -->
      <g transform="translate(131.344531 266.598437)scale(0.1 -0.1)">
       <defs>
        <path id="DejaVuSans-32" d="M 1228 531 
L 3431 531 
L 3431 0 
L 469 0 
L 469 531 
Q 828 903 1448 1529 
Q 2069 2156 2228 2338 
Q 2531 2678 2651 2914 
Q 2772 3150 2772 3378 
Q 2772 3750 2511 3984 
Q 2250 4219 1831 4219 
Q 1534 4219 1204 4116 
Q 875 4013 500 3803 
L 500 4441 
Q 881 4594 1212 4672 
Q 1544 4750 1819 4750 
Q 2544 4750 2975 4387 
Q 3406 4025 3406 3419 
Q 3406 3131 3298 2873 
Q 3191 2616 2906 2266 
Q 2828 2175 2409 1742 
Q 1991 1309 1228 531 
z
" transform="scale(0.015625)"/>
       </defs>
       <use xlink:href="#DejaVuSans-62"/>
       <use xlink:href="#DejaVuSans-32" x="63.476562"/>
      </g>
     </g>
    </g>
    <g id="xtick_4">
     <g id="line2d_4">
      <g>
       <use xlink:href="#m8cd4a2957b" x="171.18" y="252" style="stroke: #000000; stroke-width: 0.8"/>
      </g>
     </g>
     <g id="text_4">
      <!-- b3 -->
      <g transform="translate(164.824531 266.598437)scale(0.1 -0.1)">
       <defs>
        <path id="DejaVuSans-33" d="M 2597 2516 
Q 3050 2419 3304 2112 
Q 3559 1806 3559 1356 
Q 3559 666 3084 287 
Q 2609 -91 1734 -91 
Q 1441 -91 1130 -33 
Q 819 25 488 141 
L 488 750 
Q 750 597 1062 519 
Q 1375 441 1716 441 
Q 2309 441 2620 675 
Q 2931 909 2931 1356 
Q 2931 1769 2642 2001 
Q 2353 2234 1838 2234 
L 1294 2234 
L 1294 2753 
L 1863 2753 
Q 2328 2753 2575 2939 
Q 2822 3125 2822 3475 
Q 2822 3834 2567 4026 
Q 2313 4219 1838 4219 
Q 1578 4219 1281 4162 
Q 984 4106 628 3988 
L 628 4550 
Q 988 4650 1302 4700 
Q 1616 4750 1894 4750 
Q 2613 4750 3031 4423 
Q 3450 4097 3450 3541 
Q 3450 3153 3228 2886 
Q 3006 2619 2597 2516 
z
" transform="scale(0.015625)"/>
       </defs>
       <use xlink:href="#DejaVuSans-62"/>
       <use xlink:href="#DejaVuSans-33" x="63.476562"/>
      </g>
     </g>
    </g>
    <g id="xtick_5">
     <g id="line2d_5">
      <g>
       <use xlink:href="#m8cd4a2957b" x="204.66" y="252" style="stroke: #000000; stroke-width: 0.8"/>
      </g>
     </g>
     <g id="text_5">
      <!-- b4 -->
      <g transform="translate(198.304531 266.598437)scale(0.1 -0.1)">
       <defs>
        <path id="DejaVuSans-34" d="M 2419 4116 
L 825 1625 
L 2419 1625 
L 2419 4116 
z
M 2253 4666 
L 3047 4666 
L 3047 1625 
L 3713 1625 
L 3713 1100 
L 3047 1100 
L 3047 0 
L 2419 0 
L 2419 1100 
L 313 1100 
L 313 1709 
L 2253 4666 
z
" transform="scale(0.015625)"/>
       </defs>
       <use xlink:href="#DejaVuSans-62"/>
       <use xlink:href="#DejaVuSans-34" x="63.476562"/>
      </g>
     </g>
    </g>
    <g id="xtick_6">
     <g id="line2d_6">
      <g>
       <use xlink:href="#m8cd4a2957b" x="238.14" y="252" style="stroke: #000000; stroke-width: 0.8"/>
      </g>
     </g>
     <g id="text_6">
      <!-- b5 -->
      <g transform="translate(231.784531 266.598437)scale(0.1 -0.1)">
       <defs>
        <path id="DejaVuSans-35" d="M 691 4666 
L 3169 4666 
L 3169 4134 
L 1269 4134 
L 1269 2991 
Q 1406 3038 1543 3061 
Q 1681 3084 1819 3084 
Q 2600 3084 3056 2656 
Q 3513 2228 3513 1497 
Q 3513 744 3044 326 
Q 2575 -91 1722 -91 
Q 1428 -91 1123 -41 
Q 819 9 494 109 
L 494 744 
Q 775 591 1075 516 
Q 1375 441 1709 441 
Q 2250 441 2565 725 
Q 2881 1009 2881 1497 
Q 2881 1984 2565 2268 
Q 2250 2553 1709 2553 
Q 1456 2553 1204 2497 
Q 953 2441 691 2322 
L 691 4666 
z
" transform="scale(0.015625)"/>
       </defs>
       <use xlink:href="#DejaVuSans-62"/>
       <use xlink:href="#DejaVuSans-35" x="63.476562"/>
      </g>
     </g>
    </g>
    <g id="xtick_7">
     <g id="line2d_7">
      <g>
       <use xlink:href="#m8cd4a2957b" x="271.62" y="252" style="stroke: #000000; stroke-width: 0.8"/>
      </g>
     </g>
     <g id="text_7">
      <!-- b6 -->
      <g transform="translate(265.264531 266.598437)scale(0.1 -0.1)">
       <defs>
        <path id="DejaVuSans-36" d="M 2113 2584 
Q 1688 2584 1439 2293 
Q 1191 2003 1191 1497 
Q 1191 994 1439 701 
Q 1688 409 2113 409 
Q 2538 409 2786 701 
Q 3034 994 3034 1497 
Q 3034 2003 2786 2293 
Q 2538 2584 2113 2584 
z
M 3366 4563 
L 3366 3988 
Q 3128 4100 2886 4159 
Q 2644 4219 2406 4219 
Q 1781 4219 1451 3797 
Q 1122 3375 1075 2522 
Q 1259 2794 1537 2939 
Q 1816 3084 2150 3084 
Q 2853 3084 3261 2657 
Q 3669 2231 3669 1497 
Q 3669 778 3244 343 
Q 2819 -91 2113 -91 
Q 1303 -91 875 529 
Q 447 1150 447 2328 
Q 447 3434 972 4092 
Q 1497 4750 2381 4750 
Q 2619 4750 2861 4703 
Q 3103 4656 3366 4563 
z
" transform="scale(0.015625)"/>
       </defs>
       <use xlink:href="#DejaVuSans-62"/>
       <use xlink:href="#DejaVuSans-36" x="63.476562"/>
      </g>
     </g>
    </g>
    <g id="xtick_8">
     <g id="line2d_8">
      <g>
       <use xlink:href="#m8cd4a2957b" x="305.1" y="252" style="stroke: #000000; stroke-width: 0.8"/>
      </g>
     </g>
     <g id="text_8">
      <!-- b7 -->
      <g transform="translate(298.744531 266.598437)scale(0.1 -0.1)">
       <defs>
        <path id="DejaVuSans-37" d="M 525 4666 
L 3525 4666 
L 3525 4397 
L 1831 0 
L 1172 0 
L 2766 4134 
L 525 4134 
L 525 4666 
z
" transform="scale(0.015625)"/>
       </defs>
       <use xlink:href="#DejaVuSans-62"/>
       <use xlink:href="#DejaVuSans-37" x="63.476562"/>
      </g>
     </g>
    </g>
    <g id="xtick_9">
     <g id="line2d_9">
      <g>
       <use xlink:href="#m8cd4a2957b" x="338.58" y="252" style="stroke: #000000; stroke-width: 0.8"/>
      </g>
     </g>
     <g id="text_9">
      <!-- b8 -->
      <g transform="translate(332.224531 266.598437)scale(0.1 -0.1)">
       <defs>
        <path id="DejaVuSans-38" d="M 2034 2216 
Q 1584 2216 1326 1975 
Q 1069 1734 1069 1313 
Q 1069 891 1326 650 
Q 1584 409 2034 409 
Q 2484 409 2743 651 
Q 3003 894 3003 1313 
Q 3003 1734 2745 1975 
Q 2488 2216 2034 2216 
z
M 1403 2484 
Q 997 2584 770 2862 
Q 544 3141 544 3541 
Q 544 4100 942 4425 
Q 1341 4750 2034 4750 
Q 2731 4750 3128 4425 
Q 3525 4100 3525 3541 
Q 3525 3141 3298 2862 
Q 3072 2584 2669 2484 
Q 3125 2378 3379 2068 
Q 3634 1759 3634 1313 
Q 3634 634 3220 271 
Q 2806 -91 2034 -91 
Q 1263 -91 848 271 
Q 434 634 434 1313 
Q 434 1759 690 2068 
Q 947 2378 1403 2484 
z
M 1172 3481 
Q 1172 3119 1398 2916 
Q 1625 2713 2034 2713 
Q 2441 2713 2670 2916 
Q 2900 3119 2900 3481 
Q 2900 3844 2670 4047 
Q 2441 4250 2034 4250 
Q 1625 4250 1398 4047 
Q 1172 3844 1172 3481 
z
" transform="scale(0.015625)"/>
       </defs>
       <use xlink:href="#DejaVuSans-62"/>
       <use xlink:href="#DejaVuSans-38" x="63.476562"/>
      </g>
     </g>
    </g>
    <g id="xtick_10">
     <g id="line2d_10">
      <g>
       <use xlink:href="#m8cd4a2957b" x="372.06" y="252" style="stroke: #000000; stroke-width: 0.8"/>
      </g>
     </g>
     <g id="text_10">
      <!-- b9 -->
      <g transform="translate(365.704531 266.598437)scale(0.1 -0.1)">
       <defs>
        <path id="DejaVuSans-39" d="M 703 97 
L 703 672 
Q 941 559 1184 500 
Q 1428 441 1663 441 
Q 2288 441 2617 861 
Q 2947 1281 2994 2138 
Q 2813 1869 2534 1725 
Q 2256 1581 1919 1581 
Q 1219 1581 811 2004 
Q 403 2428 403 3163 
Q 403 3881 828 4315 
Q 1253 4750 1959 4750 
Q 2769 4750 3195 4129 
Q 3622 3509 3622 2328 
Q 3622 1225 3098 567 
Q 2575 -91 1691 -91 
Q 1453 -91 1209 -44 
Q 966 3 703 97 
z
M 1959 2075 
Q 2384 2075 2632 2365 
Q 2881 2656 2881 3163 
Q 2881 3666 2632 3958 
Q 2384 4250 1959 4250 
Q 1534 4250 1286 3958 
Q 1038 3666 1038 3163 
Q 1038 2656 1286 2365 
Q 1534 2075 1959 2075 
z
" transform="scale(0.015625)"/>
       </defs>
       <use xlink:href="#DejaVuSans-62"/>
       <use xlink:href="#DejaVuSans-39" x="63.476562"/>
      </g>
     </g>
    </g>
    <g id="text_11">
     <!-- beds -->
     <g transform="translate(209.370313 280.276563)scale(0.1 -0.1)">
      <defs>
       <path id="DejaVuSans-65" d="M 3597 1894 
L 3597 1613 
L 953 1613 
Q 991 1019 1311 708 
Q 1631 397 2203 397 
Q 2534 397 2845 478 
Q 3156 559 3463 722 
L 3463 178 
Q 3153 47 2828 -22 
Q 2503 -91 2169 -91 
Q 1331 -91 842 396 
Q 353 884 353 1716 
Q 353 2575 817 3079 
Q 1281 3584 2069 3584 
Q 2775 3584 3186 3129 
Q 3597 2675 3597 1894 
z
M 3022 2063 
Q 3016 2534 2758 2815 
Q 2500 3097 2075 3097 
Q 1594 3097 1305 2825 
Q 1016 2553 972 2059 
L 3022 2063 
z
" transform="scale(0.015625)"/>
       <path id="DejaVuSans-64" d="M 2906 2969 
L 2906 4863 
L 3481 4863 
L 3481 0 
L 2906 0 
L 2906 525 
Q 2725 213 2448 61 
Q 2172 -91 1784 -91 
Q 1150 -91 751 415 
Q 353 922 353 1747 
Q 353 2572 751 3078 
Q 1150 3584 1784 3584 
Q 2172 3584 2448 3432 
Q 2725 3281 2906 2969 
z
M 947 1747 
Q 947 1113 1208 752 
Q 1469 391 1925 391 
Q 2381 391 2643 752 
Q 2906 1113 2906 1747 
Q 2906 2381 2643 2742 
Q 2381 3103 1925 3103 
Q 1469 3103 1208 2742 
Q 947 2381 947 1747 
z
" transform="scale(0.015625)"/>
       <path id="DejaVuSans-73" d="M 2834 3397 
L 2834 2853 
Q 2591 2978 2328 3040 
Q 2066 3103 1784 3103 
Q 1356 3103 1142 2972 
Q 928 2841 928 2578 
Q 928 2378 1081 2264 
Q 1234 2150 1697 2047 
L 1894 2003 
Q 2506 1872 2764 1633 
Q 3022 1394 3022 966 
Q 3022 478 2636 193 
Q 2250 -91 1575 -91 
Q 1294 -91 989 -36 
Q 684 19 347 128 
L 347 722 
Q 666 556 975 473 
Q 1284 391 1588 391 
Q 1994 391 2212 530 
Q 2431 669 2431 922 
Q 2431 1156 2273 1281 
Q 2116 1406 1581 1522 
L 1381 1569 
Q 847 1681 609 1914 
Q 372 2147 372 2553 
Q 372 3047 722 3315 
Q 1072 3584 1716 3584 
Q 2034 3584 2315 3537 
Q 2597 3491 2834 3397 
z
" transform="scale(0.015625)"/>
      </defs>
      <use xlink:href="#DejaVuSans-62"/>
      <use xlink:href="#DejaVuSans-65" x="63.476562"/>
      <use xlink:href="#DejaVuSans-64" x="125"/>
      <use xlink:href="#DejaVuSans-73" x="188.476562"/>
     </g>
    </g>
   </g>
   <g id="matplotlib.axis_2">
    <g id="ytick_1">
     <g id="line2d_11">
      <defs>
       <path id="mbbd0abd4e5" d="M 0 0 
L -3.5 0 
" style="stroke: #000000; stroke-width: 0.8"/>
      </defs>
      <g>
       <use xlink:href="#mbbd0abd4e5" x="54" y="243.111069" style="stroke: #000000; stroke-width: 0.8"/>
      </g>
     </g>
     <g id="text_12">
      <!-- 6 -->
      <g transform="translate(32.257812 246.910287)scale(0.1 -0.1)">
       <defs>
        <path id="DejaVuSans-2212" d="M 678 2272 
L 4684 2272 
L 4684 1741 
L 678 1741 
L 678 2272 
z
" transform="scale(0.015625)"/>
       </defs>
       <use xlink:href="#DejaVuSans-2212"/>
       <use xlink:href="#DejaVuSans-36" x="83.789062"/>
      </g>
     </g>
    </g>
    <g id="ytick_2">
     <g id="line2d_12">
      <g>
       <use xlink:href="#mbbd0abd4e5" x="54" y="206.873183" style="stroke: #000000; stroke-width: 0.8"/>
      </g>
     </g>
     <g id="text_13">
      <!-- 4 -->
      <g transform="translate(32.257812 210.672402)scale(0.1 -0.1)">
       <use xlink:href="#DejaVuSans-2212"/>
       <use xlink:href="#DejaVuSans-34" x="83.789062"/>
      </g>
     </g>
    </g>
    <g id="ytick_3">
     <g id="line2d_13">
      <g>
       <use xlink:href="#mbbd0abd4e5" x="54" y="170.635297" style="stroke: #000000; stroke-width: 0.8"/>
      </g>
     </g>
     <g id="text_14">
      <!-- 2 -->
      <g transform="translate(32.257812 174.434516)scale(0.1 -0.1)">
       <use xlink:href="#DejaVuSans-2212"/>
       <use xlink:href="#DejaVuSans-32" x="83.789062"/>
      </g>
     </g>
    </g>
    <g id="ytick_4">
     <g id="line2d_14">
      <g>
       <use xlink:href="#mbbd0abd4e5" x="54" y="134.397411" style="stroke: #000000; stroke-width: 0.8"/>
      </g>
     </g>
     <g id="text_15">
      <!-- 0 -->
      <g transform="translate(40.6375 138.19663)scale(0.1 -0.1)">
       <use xlink:href="#DejaVuSans-30"/>
      </g>
     </g>
    </g>
    <g id="ytick_5">
     <g id="line2d_15">
      <g>
       <use xlink:href="#mbbd0abd4e5" x="54" y="98.159526" style="stroke: #000000; stroke-width: 0.8"/>
      </g>
     </g>
     <g id="text_16">
      <!-- 2 -->
      <g transform="translate(40.6375 101.958744)scale(0.1 -0.1)">
       <use xlink:href="#DejaVuSans-32"/>
      </g>
     </g>
    </g>
    <g id="ytick_6">
     <g id="line2d_16">
      <g>
       <use xlink:href="#mbbd0abd4e5" x="54" y="61.92164" style="stroke: #000000; stroke-width: 0.8"/>
      </g>
     </g>
     <g id="text_17">
      <!-- 4 -->
      <g transform="translate(40.6375 65.720858)scale(0.1 -0.1)">
       <use xlink:href="#DejaVuSans-34"/>
      </g>
     </g>
    </g>
    <g id="text_18">
     <!-- dist -->
     <g transform="translate(26.178125 152.408125)rotate(-90)scale(0.1 -0.1)">
      <defs>
       <path id="DejaVuSans-69" d="M 603 3500 
L 1178 3500 
L 1178 0 
L 603 0 
L 603 3500 
z
M 603 4863 
L 1178 4863 
L 1178 4134 
L 603 4134 
L 603 4863 
z
" transform="scale(0.015625)"/>
       <path id="DejaVuSans-74" d="M 1172 4494 
L 1172 3500 
L 2356 3500 
L 2356 3053 
L 1172 3053 
L 1172 1153 
Q 1172 725 1289 603 
Q 1406 481 1766 481 
L 2356 481 
L 2356 0 
L 1766 0 
Q 1100 0 847 248 
Q 594 497 594 1153 
L 594 3053 
L 172 3053 
L 172 3500 
L 594 3500 
L 594 4494 
L 1172 4494 
z
" transform="scale(0.015625)"/>
      </defs>
      <use xlink:href="#DejaVuSans-64"/>
      <use xlink:href="#DejaVuSans-69" x="63.476562"/>
      <use xlink:href="#DejaVuSans-73" x="91.259766"/>
      <use xlink:href="#DejaVuSans-74" x="143.359375"/>
     </g>
    </g>
   </g>
   <g id="line2d_17">
    <path d="M 70.74 178.368918 
L 70.74 80.240525 
" clip-path="url(#p340246bc98)" style="fill: none; stroke: #3d3d3d; stroke-width: 1.5; stroke-linecap: square"/>
   </g>
   <g id="line2d_18">
    <path d="M 70.74 141.550716 
L 70.74 116.996384 
" clip-path="url(#p340246bc98)" style="fill: none; stroke: #3d3d3d; stroke-width: 4.5; stroke-linecap: square"/>
   </g>
   <g id="line2d_19">
    <path d="M 104.22 195.035514 
L 104.22 97.279269 
" clip-path="url(#p340246bc98)" style="fill: none; stroke: #3d3d3d; stroke-width: 1.5; stroke-linecap: square"/>
   </g>
   <g id="line2d_20">
    <path d="M 104.22 158.378474 
L 104.22 133.919006 
" clip-path="url(#p340246bc98)" style="fill: none; stroke: #3d3d3d; stroke-width: 4.5; stroke-linecap: square"/>
   </g>
   <g id="line2d_21">
    <path d="M 137.7 184.895701 
L 137.7 87.403062 
" clip-path="url(#p340246bc98)" style="fill: none; stroke: #3d3d3d; stroke-width: 1.5; stroke-linecap: square"/>
   </g>
   <g id="line2d_22">
    <path d="M 137.7 148.334827 
L 137.7 123.944157 
" clip-path="url(#p340246bc98)" style="fill: none; stroke: #3d3d3d; stroke-width: 4.5; stroke-linecap: square"/>
   </g>
   <g id="line2d_23">
    <path d="M 171.18 177.9259 
L 171.18 79.713926 
" clip-path="url(#p340246bc98)" style="fill: none; stroke: #3d3d3d; stroke-width: 1.5; stroke-linecap: square"/>
   </g>
   <g id="line2d_24">
    <path d="M 171.18 141.087219 
L 171.18 116.525568 
" clip-path="url(#p340246bc98)" style="fill: none; stroke: #3d3d3d; stroke-width: 4.5; stroke-linecap: square"/>
   </g>
   <g id="line2d_25">
    <path d="M 204.66 193.178234 
L 204.66 95.584065 
" clip-path="url(#p340246bc98)" style="fill: none; stroke: #3d3d3d; stroke-width: 1.5; stroke-linecap: square"/>
   </g>
   <g id="line2d_26">
    <path d="M 204.66 156.515006 
L 204.66 132.072759 
" clip-path="url(#p340246bc98)" style="fill: none; stroke: #3d3d3d; stroke-width: 4.5; stroke-linecap: square"/>
   </g>
   <g id="line2d_27">
    <path d="M 238.14 181.523372 
L 238.14 84.080268 
" clip-path="url(#p340246bc98)" style="fill: none; stroke: #3d3d3d; stroke-width: 1.5; stroke-linecap: square"/>
   </g>
   <g id="line2d_28">
    <path d="M 238.14 144.992734 
L 238.14 120.626202 
" clip-path="url(#p340246bc98)" style="fill: none; stroke: #3d3d3d; stroke-width: 4.5; stroke-linecap: square"/>
   </g>
   <g id="line2d_29">
    <path d="M 271.62 207.040102 
L 271.62 109.406116 
" clip-path="url(#p340246bc98)" style="fill: none; stroke: #3d3d3d; stroke-width: 1.5; stroke-linecap: square"/>
   </g>
   <g id="line2d_30">
    <path d="M 271.62 170.442858 
L 271.62 146.027452 
" clip-path="url(#p340246bc98)" style="fill: none; stroke: #3d3d3d; stroke-width: 4.5; stroke-linecap: square"/>
   </g>
   <g id="line2d_31">
    <path d="M 305.1 175.099587 
L 305.1 77.595524 
" clip-path="url(#p340246bc98)" style="fill: none; stroke: #3d3d3d; stroke-width: 1.5; stroke-linecap: square"/>
   </g>
   <g id="line2d_32">
    <path d="M 305.1 138.598589 
L 305.1 114.194642 
" clip-path="url(#p340246bc98)" style="fill: none; stroke: #3d3d3d; stroke-width: 4.5; stroke-linecap: square"/>
   </g>
   <g id="line2d_33">
    <path d="M 338.58 174.493999 
L 338.58 77.224297 
" clip-path="url(#p340246bc98)" style="fill: none; stroke: #3d3d3d; stroke-width: 1.5; stroke-linecap: square"/>
   </g>
   <g id="line2d_34">
    <path d="M 338.58 138.016434 
L 338.58 113.694047 
" clip-path="url(#p340246bc98)" style="fill: none; stroke: #3d3d3d; stroke-width: 4.5; stroke-linecap: square"/>
   </g>
   <g id="line2d_35">
    <path d="M 372.06 167.132209 
L 372.06 69.003993 
" clip-path="url(#p340246bc98)" style="fill: none; stroke: #3d3d3d; stroke-width: 1.5; stroke-linecap: square"/>
   </g>
   <g id="line2d_36">
    <path d="M 372.06 130.333645 
L 372.06 105.775913 
" clip-path="url(#p340246bc98)" style="fill: none; stroke: #3d3d3d; stroke-width: 4.5; stroke-linecap: square"/>
   </g>
   <g id="patch_3">
    <path d="M 54 252 
L 54 34.56 
" style="fill: none; stroke: #000000; stroke-width: 0.8; stroke-linejoin: miter; stroke-linecap: square"/>
   </g>
   <g id="patch_4">
    <path d="M 388.8 252 
L 388.8 34.56 
" style="fill: none; stroke: #000000; stroke-width: 0.8; stroke-linejoin: miter; stroke-linecap: square"/>
   </g>
   <g id="patch_5">
    <path d="M 54 252 
L 388.8 252 
" style="fill: none; stroke: #000000; stroke-width: 0.8; stroke-linejoin: miter; stroke-linecap: square"/>
   </g>
   <g id="patch_6">
    <path d="M 54 34.56 
L 388.8 34.56 
" style="fill: none; stroke: #000000; stroke-width: 0.8; stroke-linejoin: miter; stroke-linecap: square"/>
   </g>
   <g id="PathCollection_1">
    <defs>
     <path id="mee49e3997d" d="M 0 1.5 
C 0.397805 1.5 0.77937 1.341951 1.06066 1.06066 
C 1.341951 0.77937 1.5 0.397805 1.5 0 
C 1.5 -0.397805 1.341951 -0.77937 1.06066 -1.06066 
C 0.77937 -1.341951 0.397805 -1.5 0 -1.5 
C -0.397805 -1.5 -0.77937 -1.341951 -1.06066 -1.06066 
C -1.341951 -0.77937 -1.5 -0.397805 -1.5 0 
C -1.5 0.397805 -1.341951 0.77937 -1.06066 1.06066 
C -0.77937 1.341951 -0.397805 1.5 0 1.5 
z
" style="stroke: #3d3d3d"/>
    </defs>
    <g clip-path="url(#p340246bc98)">
     <use xlink:href="#mee49e3997d" x="70.74" y="129.094301" style="fill: #ffffff; stroke: #3d3d3d"/>
    </g>
   </g>
   <g id="PathCollection_2">
    <g clip-path="url(#p340246bc98)">
     <use xlink:href="#mee49e3997d" x="104.22" y="146.156173" style="fill: #ffffff; stroke: #3d3d3d"/>
    </g>
   </g>
   <g id="PathCollection_3">
    <g clip-path="url(#p340246bc98)">
     <use xlink:href="#mee49e3997d" x="137.7" y="136.156813" style="fill: #ffffff; stroke: #3d3d3d"/>
    </g>
   </g>
   <g id="PathCollection_4">
    <g clip-path="url(#p340246bc98)">
     <use xlink:href="#mee49e3997d" x="171.18" y="128.809839" style="fill: #ffffff; stroke: #3d3d3d"/>
    </g>
   </g>
   <g id="PathCollection_5">
    <g clip-path="url(#p340246bc98)">
     <use xlink:href="#mee49e3997d" x="204.66" y="144.282417" style="fill: #ffffff; stroke: #3d3d3d"/>
    </g>
   </g>
   <g id="PathCollection_6">
    <g clip-path="url(#p340246bc98)">
     <use xlink:href="#mee49e3997d" x="238.14" y="132.707321" style="fill: #ffffff; stroke: #3d3d3d"/>
    </g>
   </g>
   <g id="PathCollection_7">
    <g clip-path="url(#p340246bc98)">
     <use xlink:href="#mee49e3997d" x="271.62" y="158.273925" style="fill: #ffffff; stroke: #3d3d3d"/>
    </g>
   </g>
   <g id="PathCollection_8">
    <g clip-path="url(#p340246bc98)">
     <use xlink:href="#mee49e3997d" x="305.1" y="126.423474" style="fill: #ffffff; stroke: #3d3d3d"/>
    </g>
   </g>
   <g id="PathCollection_9">
    <g clip-path="url(#p340246bc98)">
     <use xlink:href="#mee49e3997d" x="338.58" y="125.912487" style="fill: #ffffff; stroke: #3d3d3d"/>
    </g>
   </g>
   <g id="PathCollection_10">
    <g clip-path="url(#p340246bc98)">
     <use xlink:href="#mee49e3997d" x="372.06" y="118.185565" style="fill: #ffffff; stroke: #3d3d3d"/>
    </g>
   </g>
  </g>
 </g>
 <defs>
  <clipPath id="p340246bc98">
   <rect x="54" y="34.56" width="334.8" height="217.44"/>
  </clipPath>
 </defs>
</svg>
